<?xml version="1.0" standalone="no"?>
<!DOCTYPE svg PUBLIC "-//W3C//DTD SVG 1.1//EN" "http://www.w3.org/Graphics/SVG/1.1/DTD/svg11.dtd" >
<svg xmlns="http://www.w3.org/2000/svg" xmlns:xlink="http://www.w3.org/1999/xlink" version="1.1">
<metadata></metadata>
<defs>
<font id="libre_franklinXLtIt" horiz-adv-x="0" >
<font-face units-per-em="1000" ascent="800" descent="-200" />
<missing-glyph horiz-adv-x="219" />
<glyph unicode="&#xfb01;" horiz-adv-x="593" d="M377 528q2 -2 1 -6l-4 -27q0 -3 -1.5 -4.5t-5.5 -1.5h-129q-7 0 -9 -9l-66 -470q-1 -6 -2.5 -8t-6.5 -2h-32q-5 0 -7.5 3.5t-1.5 8.5l66 471q2 6 -4 6h-111q-6 0 -6 8l4 27q0 3 1.5 4.5t4.5 1.5h109q4 0 7 2.5t3 6.5l12 79q9 63 40.5 93.5t91.5 30.5h74q10 0 8 -9l-4 -25 q-1 -4 -2.5 -5.5t-6.5 -1.5h-77q-35 0 -51.5 -19.5t-22.5 -59.5l-12 -86q-1 -4 0 -5t5 -1h130q3 0 5 -2zM564 655q-1 -8 -3.5 -11.5t-10.5 -3.5h-35q-12 0 -10 16l10 73q1 13 14 13h35q5 0 8 -4t2 -11zM469 12q-1 -8 -3 -10t-10 -2h-25q-13 0 -12 12l72 509q1 6 2.5 7.5 t6.5 1.5h32q11 0 9 -12z" />
<glyph unicode="&#xfb02;" horiz-adv-x="593" d="M377 528q2 -2 1 -6l-4 -27q0 -3 -1.5 -4.5t-5.5 -1.5h-129q-7 0 -9 -9l-66 -470q-1 -6 -2.5 -8t-6.5 -2h-32q-5 0 -7.5 3.5t-1.5 8.5l66 471q2 6 -4 6h-111q-6 0 -6 8l4 27q0 3 1.5 4.5t4.5 1.5h109q4 0 7 2.5t3 6.5l12 79q9 63 40.5 93.5t91.5 30.5h74q10 0 8 -9l-4 -25 q-1 -4 -2.5 -5.5t-6.5 -1.5h-77q-35 0 -51.5 -19.5t-22.5 -59.5l-12 -86q-1 -4 0 -5t5 -1h130q3 0 5 -2zM469 12q-1 -8 -3 -10t-10 -2h-25q-13 0 -12 12l102 721q1 6 2.5 7.5t7.5 1.5h31q11 0 8 -12z" />
<glyph />
<glyph />
<glyph unicode="&#xd;" horiz-adv-x="219" />
<glyph unicode=" "  horiz-adv-x="219" />
<glyph unicode="&#x09;" horiz-adv-x="219" />
<glyph unicode="&#xa0;" horiz-adv-x="219" />
<glyph unicode="!" horiz-adv-x="235" d="M123 163q-1 -5 -3.5 -6.5t-8.5 -1.5h-17q-11 0 -9 10l67 570q0 4 1.5 5.5t4.5 1.5h51q3 0 5 -2.5t2 -5.5zM117 11q-1 -7 -3.5 -9t-10.5 -2h-46q-13 0 -11 12l10 66q1 8 7 8h56q8 0 8 -10z" />
<glyph unicode="&#x22;" horiz-adv-x="380" d="M285 550q-2 -6 -4 -7.5t-8 -1.5h-19q-9 0 -9 10l5 185q1 6 7 6h68q4 0 6 -2.5t1 -5.5zM141 550q-2 -6 -4 -7.5t-8 -1.5h-19q-9 0 -9 10l5 185q1 6 7 6h68q4 0 6 -2.5t1 -5.5z" />
<glyph unicode="#" horiz-adv-x="603" d="M591 497.5q2 -2.5 2 -5.5l-4 -26q-1 -5 -3 -6.5t-8 -1.5h-106l-49 -168h99q4 0 6.5 -2.5t1.5 -5.5l-4 -26q-1 -5 -3 -6.5t-8 -1.5h-105l-71 -241q-1 -5 -3 -6.5t-7 -0.5l-24 4q-8 1 -8 9l69 235h-161l-71 -241q-1 -5 -3 -6.5t-6 -0.5l-25 4q-9 1 -7 9l69 235h-111 q-5 0 -8 3t-2 7l4 25q0 4 1.5 5.5t4.5 1.5h124l49 168h-111q-11 0 -9 10l4 25q0 4 1.5 5.5t4.5 1.5h122l70 236q3 7 7 6l26 -4q5 -1 6.5 -4.5t0.5 -8.5l-66 -225h160l70 236q3 7 8 6l25 -4q5 -1 7 -4.5t1 -8.5l-66 -225h100q4 0 6 -2.5zM428 458h-161l-49 -168h161z" />
<glyph unicode="$" horiz-adv-x="581" d="M500 91.5q-30 -46.5 -82.5 -73.5t-117.5 -28q-10 0 -12 -8l-9 -66q-1 -5 -2 -6.5t-6 -1.5h-27q-4 0 -6.5 2.5t-1.5 5.5l10 69q0 3 -0.5 4.5t-3.5 1.5q-86 0 -137.5 30t-82.5 92q-4 6 -4 9q0 4 5 7l21 14q4 2 8 2q8 0 9 -6q33 -51 74 -75t108 -25q4 0 7.5 2.5t4.5 6.5 l38 281v4q0 12 -16 22q-64 29 -101 53.5t-54 53t-17 66.5q0 20 2 31q11 79 76 131.5t158 60.5q4 0 8 3t5 6l7 55q2 6 6 6h28q5 0 7.5 -3.5t1.5 -8.5l-8 -53q0 -3 0.5 -4.5t3.5 -1.5q58 -6 100.5 -29.5t76.5 -65.5q11 -8 1 -14l-29 -22l-4 -2q-3 0 -8 10q-19 28 -55.5 47.5 t-81.5 25.5h-3q-8 0 -10 -9l-41 -291v-4q0 -3 2 -5t6 -4l28 -13q73 -32 110.5 -75.5t37.5 -103.5q0 -57 -30 -103.5zM344 695v2q0 6 -7 4q-70 -6 -118 -46.5t-57 -100.5q-1 -6 -1 -17q0 -35 27 -64.5t94 -61.5q2 -1 7 -1q15 0 18 15zM298 41q1 -1 3 -1q49 0 88.5 20.5 t62 55.5t22.5 78q0 42 -27.5 71.5t-91.5 58.5q-3 1 -8 1q-12 0 -13 -11l-37 -270q0 -2 1 -3z" />
<glyph unicode="%" horiz-adv-x="902" d="M398.5 710q37.5 -43 37.5 -122q0 -14 -4 -50q-15 -101 -67 -156t-125 -55q-65 0 -103.5 43.5t-38.5 122.5q0 27 4 51q14 99 67 154t127 55q65 0 102.5 -43zM159 3q-4 -4 -7 -5.5t-10 -1.5h-18q-9 0 -9 7q0 5 4 9l591 734q3 4 7.5 4h5.5h23q5 0 7 -2.5t-1 -7.5z M337.5 412.5q41.5 50.5 52.5 130.5q3 23 3 43q0 60 -26 96.5t-73 36.5q-57 0 -98.5 -51t-52.5 -131q-3 -21 -3 -41q0 -61 26 -97.5t73 -36.5q57 0 98.5 50.5zM796 373q38 -43 38 -121q0 -27 -4 -51q-15 -101 -67 -156t-125 -55q-65 0 -103 42.5t-38 121.5q0 28 4 52 q14 100 66.5 155t126.5 55q64 0 102 -43zM706 48q32 24 54 65t29 92q3 21 3 39q0 61 -27 99t-72 38q-36 0 -68.5 -24t-54.5 -65.5t-28 -91.5q-3 -19 -3 -39q0 -60 27 -98.5t72 -38.5q36 0 68 24z" />
<glyph unicode="&#x26;" horiz-adv-x="749" d="M497 719q43 -34 43 -93q0 -136 -217 -227q-11 -3 -11 -8q0 -3 3 -8l150 -214q3 -4 5 -4t11 9q46 36 103.5 105t75.5 107q4 6 14 3l21 -8q4 -2 6 -6t1 -8q-20 -44 -76.5 -112t-115.5 -123q-6 -3 -7.5 -6.5t2.5 -8.5q27 -29 78 -49.5t99 -20.5q16 0 13 -12l-2 -21 q-2 -9 -5 -11.5t-12 -2.5q-51 0 -115 27t-99 60q-4 2 -6 2q-6 0 -10 -7q-110 -87 -230 -87q-89 0 -139 44t-50 120q0 9 2 31q8 60 49 109.5t125 97.5q7 3 11 6.5t4 6.5t-7 13q-50 61 -50 124q0 8 2 24q7 51 39 92.5t80 65.5t104 24q68 0 111 -34zM298 686q-38 -23 -59 -61 t-21 -80q0 -23 7 -43t24 -43l21 -26q2 -3 6 -3q5 0 11 3q99 43 145 85t54 93q1 5 1 16q0 40 -28.5 61t-73.5 21q-49 0 -87 -23zM253 366q-6 0 -15 -6q-71 -30 -113.5 -84t-42.5 -115q0 -55 39 -88t102 -33q49 0 99 20.5t90 54.5q16 10 9 22l-156 221q-6 8 -12 8z" />
<glyph unicode="'" horiz-adv-x="236" d="M178 550q-2 -6 -4 -7.5t-8 -1.5h-19q-9 0 -9 10l5 185q1 6 7 6h68q4 0 6 -2.5t1 -5.5z" />
<glyph unicode="(" horiz-adv-x="272" d="M152 -157q-39 88 -59.5 168t-20.5 167q0 49 8 110q17 118 71.5 234t133.5 216q5 4 14 4h13q4 0 5.5 -3t0.5 -7q-69 -106 -117.5 -221.5t-64.5 -229.5q-9 -63 -9 -125q0 -148 53 -316q2 -2 1.5 -3.5t-4.5 -1.5h-16q-8 0 -9 8z" />
<glyph unicode=")" horiz-adv-x="272" d="M-38.5 -162q-1.5 3 -0.5 7q69 106 117.5 221.5t64.5 229.5q9 63 9 125q0 148 -53 316q-2 2 -1.5 3.5t4.5 1.5h16q8 0 9 -8q39 -88 59.5 -168t20.5 -167q0 -49 -8 -110q-17 -118 -71.5 -234t-133.5 -216q-5 -4 -14 -4h-13q-4 0 -5.5 3z" />
<glyph unicode="*" horiz-adv-x="339" d="M220 564q-2 2 -4 -3l-92 -117q-2 -3 -4.5 -0.5t-3.5 2.5l-23 17q-5 3 -1 9l98 106q2 4 -1 5l-106 32q-4 1 -4 9l14 26q1 2 3 2t4 -1l100 -40h1q5 0 7 6l9 121q0 4 7 4h34q3 0 4.5 -2.5t0.5 -4.5l-23 -121q0 -5 4 -2l114 45q7 4 7 -4l6 -24v-4t-3 -4l-114 -38q-3 -1 -5 -3 t-1 -4l65 -100q2 -3 2 -5.5t-4 -5.5l-26 -16q-3 -3 -6.5 -1.5t-2.5 3.5z" />
<glyph unicode="+" horiz-adv-x="545" d="M494 387l-5 -28q0 -5 -2 -6.5t-8 -1.5h-172l-24 -176q-1 -7 -7 -7h-28q-5 0 -8 3.5t-2 9.5l24 169h-172q-9 0 -9 9l5 29q1 6 5 6h177l24 175q1 5 2.5 6.5t5.5 1.5h29q4 0 6.5 -2.5t1.5 -4.5l-24 -175h173q8 0 8 -8z" />
<glyph unicode="," horiz-adv-x="193" d="M-11.5 -134q-0.5 2 2.5 8l61 113q2 6 2 7q0 6 -10 6h-10q-5 0 -6.5 1.5t-0.5 5.5l10 71q0 8 9 8h57q7 0 5 -9l-9 -59q-2 -9 -4 -12l-80 -134q-5 -8 -13 -8h-8q-5 0 -5.5 2z" />
<glyph unicode="-" horiz-adv-x="381" d="M310 251q-1 -5 -3 -6.5t-8 -1.5l-224 -1q-9 0 -9 9l5 30q1 7 5 7l231 1q4 0 6.5 -2.5t1.5 -5.5z" />
<glyph unicode="." horiz-adv-x="188" d="M94 11q-1 -7 -4 -9t-11 -2h-45q-14 0 -12 12l10 66q1 6 2.5 7.5t5.5 1.5h56q4 0 6 -3t1 -7z" />
<glyph unicode="/" horiz-adv-x="331" d="M-29 -49l362 786q3 5 9 5h32q11 0 6 -13l-358 -777q-2 -5 -4.5 -6.5t-7.5 -1.5h-33q-8 0 -6 7z" />
<glyph unicode="0" horiz-adv-x="678" d="M564 679q60 -73 60 -211q0 -41 -8 -102q-17 -123 -63 -207.5t-110.5 -126.5t-140.5 -42q-100 0 -159.5 71t-59.5 207q0 44 8 102q17 124 63 210t111 129t140 43q99 0 159 -73zM467 121q66 82 91 251q8 62 8 106q0 114 -43 169.5t-119 55.5q-95 0 -162.5 -84t-92.5 -253 q-8 -61 -8 -103q0 -113 44 -168.5t121 -55.5q95 0 161 82z" />
<glyph unicode="1" horiz-adv-x="444" d="M367 42l-5 -34q-1 -4 -2.5 -6t-5.5 -2h-328q-8 0 -7 8l5 36q0 3 1.5 4.5t5.5 1.5h138q6 0 7 6l86 613q1 7 -6 4l-142 -53l-4 -1q-7 0 -5 8l3 27q1 10 10 14l147 69q11 5 25 5h31q9 0 8 -11l-96 -675q-1 -6 5 -6h122q9 0 7 -8z" />
<glyph unicode="2" horiz-adv-x="577" d="M304 307q90 78 139 142.5t49 130.5q0 59 -43 91t-102 32q-50 0 -104.5 -25t-93.5 -74q-5 -6 -11 -2l-30 26q-2 1 -2 4q0 4 5 9q47 55 113.5 83t131.5 28q82 0 137 -42.5t55 -125.5q0 -58 -25.5 -107.5t-67 -93.5t-116.5 -111l-239 -210q-5 -2 -5 -7q0 -4 7 -4h371 q10 0 9 -10l-4 -32q-1 -4 -3 -6.5t-6 -2.5h-437q-13 0 -12 14l3 25q1 12 5.5 18.5t15.5 16.5z" />
<glyph unicode="3" horiz-adv-x="628" d="M136 659q57 49 112 71t118 22q66 0 114 -21t73.5 -57.5t25.5 -83.5q0 -66 -44 -118t-117 -76q-5 -2 -5 -4.5t6 -3.5q58 -15 95 -57.5t37 -104.5q0 -65 -35.5 -118.5t-104 -85.5t-161.5 -32q-59 0 -99.5 13t-67 33.5t-55.5 53.5q-3 4 -3 6t2 4l32 24q2 2 4 2t3 -2 q31 -44 80.5 -64.5t111.5 -20.5q66 0 120 22.5t85.5 64t31.5 96.5q0 68 -56 106t-135 38h-90q-5 0 -7.5 2t-1.5 6l5 33q0 6 8 6h73q60 0 113.5 23t85.5 62.5t32 86.5q0 52 -42.5 85t-113.5 33q-62 0 -105 -21t-93 -59q-4 -3 -7 -3q-5 0 -9 6l-15 19q-6 8 -1 14z" />
<glyph unicode="4" horiz-adv-x="629" d="M478 742h42q10 0 9 -11l-66 -465q-1 -7 6 -7h100q11 0 11 -8l-5 -31q-1 -5 -3 -7t-8 -2h-101q-8 0 -10 -9l-26 -193q-1 -5 -3 -7t-8 -2h-39q-8 0 -7 11l27 193v2q0 5 -6 5h-338q-6 0 -8 2t-1 9l6 36q1 7 3.5 12.5t8.5 12.5l401 454q4 5 15 5zM394 259q7 0 8 9l54 381v2 q0 3 -2 3t-11 -10l-329 -373q-11 -12 0 -12h280z" />
<glyph unicode="5" horiz-adv-x="644" d="M603 742q7 0 8.5 -2t0.5 -8l-8 -34q-2 -4 -4 -5.5t-7 -1.5h-353q-8 0 -10 -9l-57 -263l-1 -4q0 -6 8 -3q90 53 189 53q92 0 151 -45.5t59 -138.5q0 -84 -41 -150.5t-112.5 -103.5t-159.5 -37q-141 0 -227 99q-4 5 -4 7.5t4 4.5l25 21q2 2 5 2q4 0 8 -4q75 -83 183 -83 q75 0 134.5 30.5t93 85t33.5 123.5q0 71 -45 106.5t-117 35.5q-55 0 -100.5 -18.5t-101.5 -51.5l-8 -2q-4 0 -8 4l-26 19q-6 6 -6 9l2 9l76 347q1 5 4 6.5t11 1.5h401z" />
<glyph unicode="6" horiz-adv-x="649" d="M533.5 728.5q41.5 -23.5 66.5 -59.5q3 -6 -2 -10l-33 -18q-1 -1 -3 -1q-4 0 -10 9q-21 27 -48.5 40.5t-69.5 13.5q-120 0 -191.5 -84t-90.5 -221l-2 -15q0 -4 4 -4q3 0 9 2q60 28 107 42.5t103 14.5q101 0 156 -50.5t55 -132.5q0 -73 -37 -134t-100.5 -96t-138.5 -35 q-108 0 -167 72t-59 204q0 43 8 99q26 182 116.5 284.5t227.5 102.5q58 0 99.5 -23.5zM267.5 374q-58.5 -15 -96.5 -37q-22 -14 -28.5 -32t-6.5 -56q0 -51 18.5 -99t58 -79.5t99.5 -31.5q57 0 106.5 28.5t79 76.5t29.5 103q0 62 -41 102t-115 40q-45 0 -103.5 -15z" />
<glyph unicode="7" horiz-adv-x="590" d="M598 742q10 0 8 -9l-3 -26q-4 -17 -13 -28q-79 -96 -160 -225.5t-142.5 -249.5t-84.5 -191q-2 -7 -4.5 -10t-8.5 -3h-42q-8 0 -8 8q0 3 2 9q50 131 151.5 312.5t234.5 351.5q7 10 -4 10h-411q-7 0 -6 10l8 34q2 4 4 5.5t7 1.5h472z" />
<glyph unicode="8" horiz-adv-x="661" d="M548.5 705.5q55.5 -46.5 55.5 -128.5q0 -66 -35 -111t-61.5 -65t-31.5 -24q-5 -5 -5 -8t6 -6q46 -21 77.5 -55.5t31.5 -100.5q0 -69 -38.5 -118t-105 -74t-150.5 -25q-110 0 -172.5 45.5t-62.5 130.5q0 72 38.5 119t106.5 93q7 5 7 8t-6 7q-27 18 -42 32.5t-24 36.5 t-9 56q0 65 36.5 118.5t98.5 84.5t137 31q93 0 148.5 -46.5zM287.5 679.5q-48.5 -24.5 -76 -65.5t-27.5 -89q0 -42 25 -67.5t76 -38.5l104 -25q3 -1 10 -1q28 0 64 28.5t61.5 71.5t25.5 86q0 57 -41.5 91t-113.5 34q-59 0 -107.5 -24.5zM418 59.5q53 21.5 82.5 59.5t29.5 87 q0 44 -26 74.5t-76 43.5l-147 38q-17 5 -59.5 -22t-76 -74.5t-33.5 -101.5q0 -57 49.5 -91.5t135.5 -34.5q68 0 121 21.5z" />
<glyph unicode="9" horiz-adv-x="645" d="M140 12.5q-43 22.5 -67 59.5q-6 7 0 11l31 16l5 2q5 0 10 -8q21 -28 51 -41t78 -13q116 0 186 84t89 221q1 4 1 10q0 13 -12 6q-59 -27 -104 -41.5t-102 -14.5q-100 0 -154.5 51t-54.5 134q0 74 37.5 134t101 94.5t136.5 34.5q105 0 163 -71.5t58 -203.5 q0 -128 -40.5 -239.5t-119 -179.5t-187.5 -68q-63 0 -106 22.5zM411.5 369.5q56.5 16.5 94.5 42.5q22 12 29 30.5t7 54.5q0 50 -18 97.5t-57.5 78.5t-98.5 31q-57 0 -106 -28.5t-78.5 -76.5t-29.5 -103q0 -62 40.5 -102.5t111.5 -40.5q49 0 105.5 16.5z" />
<glyph unicode=":" horiz-adv-x="188" d="M152 426q-1 -7 -3.5 -9t-10.5 -2h-46q-13 0 -11 13l9 65q1 9 8 9h56q4 0 6.5 -3t1.5 -7zM95 14q-1 -7 -4.5 -9t-11.5 -2h-45q-13 0 -11 12l9 66q1 5 2.5 6.5t5.5 1.5h56q8 0 7 -10z" />
<glyph unicode=";" horiz-adv-x="214" d="M81 427l9 66q1 8 8 8h56q9 0 8 -10l-10 -65q-1 -7 -3.5 -9t-10.5 -2h-46q-12 0 -11 12zM-10 -132.5q-2 3.5 0 8.5l61 114q3 4 3 7t-8 3h-10q-5 0 -7.5 3t-1.5 6l10 72q0 3 2 4t5 1h57q7 0 7 -8l-9 -62l-3 -12l-80 -134q-4 -6 -13 -6h-8q-3 0 -5 3.5z" />
<glyph unicode="&#x3c;" horiz-adv-x="528" d="M447 189q-1 -9 -6 -11.5t-11 0.5l-353 148q-4 2 -6.5 5t-1.5 7l6 40q0 5 2.5 7t6.5 4l394 149l8 2q5 0 7.5 -3.5t1.5 -9.5l-3 -31q-1 -5 -5 -8t-11 -6l-334 -125l295 -125q15 -8 14 -18z" />
<glyph unicode="=" horiz-adv-x="545" d="M504 459q-1 -5 -3 -6.5t-8 -1.5l-389 -1q-9 0 -8 9l3 28q2 7 6 7l395 1q4 0 6 -2.5t2 -5.5zM473 237q-1 -5 -3 -6.5t-8 -1.5l-388 -1q-11 0 -9 10l3 28q1 7 6 7l395 1q4 0 6.5 -2.5t1.5 -5.5z" />
<glyph unicode="&#x3e;" horiz-adv-x="528" d="M68 225.5q4 3.5 11 6.5l333 125l-296 126q-15 6 -14 16l5 30q1 11 8 11q6 0 10 -2l351 -150q10 -3 9 -12l-6 -40q0 -4 -2.5 -6.5t-6.5 -4.5l-393 -147q-3 -1 -7 -1q-5 0 -8.5 3.5t-2.5 10.5l4 26q1 5 5 8.5z" />
<glyph unicode="?" horiz-adv-x="516" d="M88 629q40 57 105 90t138 33q90 0 141.5 -42.5t51.5 -114.5q0 -9 -2 -27q-8 -57 -40 -99.5t-92 -98.5t-93 -100.5t-42 -105.5q-2 -7 -8 -7h-32q-4 0 -7 3.5t-2 9.5q7 47 27.5 86t46.5 68t67 69q55 53 84 91.5t36 88.5q1 7 1 20q0 52 -37 82t-102 30q-57 0 -114 -30.5 t-80 -71.5q-3 -3 -9 -1l-34 15q-6 3 -4 12zM244 11q-1 -7 -3.5 -9t-10.5 -2h-46q-6 0 -9 3.5t-2 8.5l10 66q0 4 1.5 6t5.5 2h56q8 0 8 -10z" />
<glyph unicode="@" horiz-adv-x="834" d="M386 -113q-107 0 -183 41t-115.5 113t-39.5 163q0 33 4 60q15 107 78 198t161 145t212 54q82 0 152.5 -29.5t113.5 -90t43 -150.5q0 -29 -4 -54q-10 -74 -43 -132.5t-81 -91t-101 -32.5q-39 0 -58.5 13.5t-21.5 45.5q0 5 -2 5q-3 0 -8 -9q-62 -69 -151 -69 q-50 0 -82.5 39.5t-32.5 104.5q0 23 2 35q9 63 41 115.5t79 83t100 30.5q40 0 68 -19.5t41 -52.5h1q5 0 8 6l14 36q1 3 2.5 3.5t4.5 0.5h32q4 0 6 -2t1 -5l-70 -228q-10 -30 -10 -51q0 -19 10 -27t30 -8q38 0 73 26t60.5 73.5t34.5 108.5q3 24 3 47q0 78 -36.5 130 t-95.5 76.5t-126 24.5q-104 0 -189.5 -48t-139 -130t-67.5 -180q-4 -36 -4 -52q0 -77 33 -138t100.5 -96.5t166.5 -35.5q58 0 96 14.5t90 46.5q3 2 8 2q7 0 11 -6l11 -18q2 -3 2 -7q0 -6 -9 -13q-103 -66 -223 -66zM281 205q0 -43 18 -66.5t52 -23.5q53 0 102 45.5t68 109.5 q10 33 10 62q0 46 -24 70.5t-59 24.5q-62 0 -107.5 -53.5t-56.5 -131.5q-3 -19 -3 -37z" />
<glyph unicode="A" horiz-adv-x="706" d="M15 3.5q-2 3.5 0 8.5l366 720q3 6 6.5 8t10.5 2h44q7 0 11.5 -3.5t4.5 -8.5l161 -720v-3q0 -7 -8 -7h-35q-12 0 -13 10l-49 216q-1 4 -2.5 5t-5.5 1h-315q-7 0 -12 -8l-111 -218q-2 -6 -12 -6h-34q-5 0 -7 3.5zM494 280q10 0 8 12l-86 376q-1 9 -5 9t-9 -12l-191 -372 q-6 -13 1 -13h282z" />
<glyph unicode="B" horiz-adv-x="687" d="M75.5 3q-2.5 3 -1.5 7l102 720q1 7 3.5 9.5t8.5 2.5h209q116 0 179 -42t63 -122q0 -74 -40 -124t-115 -73q-6 -1 -6 -4t5 -5q58 -12 91 -49t33 -96q0 -118 -85 -172.5t-216 -54.5h-223q-5 0 -7.5 3zM361 399q97 0 158 44t61 128q0 63 -49.5 93.5t-141.5 30.5h-151 q-11 0 -12 -10l-38 -276v-3q0 -7 7 -7h166zM298 47q109 0 179.5 37.5t70.5 138.5q0 66 -51 97t-140 31h-165q-13 0 -14 -10l-40 -285v-2q0 -7 9 -7h151z" />
<glyph unicode="C" horiz-adv-x="698" d="M556.5 725q53.5 -27 85.5 -72.5t32 -98.5q0 -5 -1.5 -8t-6.5 -3l-42 -3q-7 0 -8 11q-7 69 -55 110.5t-121 41.5q-102 0 -169.5 -64t-98 -161.5t-30.5 -202.5q0 -235 207 -235q78 0 134.5 37.5t96.5 115.5q3 5 11 2l36 -13q6 -2 3 -10q-38 -82 -115 -132t-170 -50 q-126 0 -194 75.5t-68 213.5q0 116 38 224.5t118.5 178.5t202.5 70q61 0 114.5 -27z" />
<glyph unicode="D" horiz-adv-x="707" d="M76.5 3.5q-3.5 3.5 -2.5 9.5l102 721q1 8 12 8h121q179 0 262.5 -69t83.5 -210q0 -227 -112 -345t-340 -118h-118q-5 0 -8.5 3.5zM203 47q206 0 299 104t93 313q0 86 -32 136t-96 72t-167 22h-63q-11 0 -12 -12l-85 -621l-1 -5q0 -9 11 -9h53z" />
<glyph unicode="E" horiz-adv-x="616" d="M178.5 740.5q1.5 1.5 7.5 1.5h425q7 0 5 -9l-4 -30q-1 -9 -11 -9h-364q-10 0 -11 -8l-39 -281q-1 -6 6 -6h286q8 0 6 -9l-5 -32q-1 -4 -3 -5.5t-7 -1.5h-282q-5 0 -7 -2t-3 -8l-39 -285q-1 -5 0.5 -6.5t5.5 -1.5h379q10 0 9 -9l-4 -32q-1 -5 -2.5 -6t-5.5 -1h-437 q-6 0 -8.5 2.5t-1.5 9.5l102 721q1 6 2.5 7.5z" />
<glyph unicode="F" horiz-adv-x="587" d="M179 740.5q2 1.5 8 1.5h412q9 0 7 -9l-4 -30q-1 -5 -3 -7t-7 -2h-354q-6 0 -8.5 -2t-3.5 -8l-40 -289v-3q0 -6 7 -6h292q7 0 7 -7l-3 -31q0 -9 -10 -9h-293q-5 0 -6.5 -2t-3.5 -9l-44 -321q-2 -7 -11 -7h-40q-6 0 -7 2.5t0 9.5l102 720q1 7 3 8.5z" />
<glyph unicode="G" horiz-adv-x="732" d="M149.5 65.5q-66.5 75.5 -66.5 212.5q0 127 42 235.5t123 173.5t193 65q62 0 116 -27t85.5 -72t31.5 -97q0 -6 -1 -7.5t-5 -2.5l-45 -7h-2q-5 0 -5 11q-1 42 -24 77t-63 55.5t-90 20.5q-97 0 -163.5 -59.5t-99.5 -157t-33 -211.5q0 -116 50 -176t148 -60q72 0 127 33 t87.5 83t40.5 99l11 73v3q0 4 -2 5t-7 1h-183q-5 0 -6.5 1.5t-0.5 5.5l3 29q1 5 6 5h240q9 0 7 -8l-51 -359q-1 -6 -3.5 -8t-8.5 -2h-18q-8 0 -10.5 2t-1.5 8l12 104q0 5 -2 5t-7 -6q-35 -54 -96.5 -88.5t-140.5 -34.5q-121 0 -187.5 75.5z" />
<glyph unicode="H" horiz-adv-x="727" d="M188 362q-6 0 -8 -8l-48 -345q-2 -5 -4 -7t-8 -2h-36q-11 0 -10 12l102 721q1 6 2.5 7.5t7.5 1.5h38q6 0 8 -2.5t0 -8.5l-43 -312v-5q0 -3 1.5 -3.5t5.5 -0.5h375q9 0 11 10l44 314q1 5 2.5 6.5t5.5 1.5h40q11 0 8 -12l-101 -720q-1 -6 -3 -8t-7 -2h-36q-12 0 -11 11 l48 345q1 4 0 5t-5 1h-379z" />
<glyph unicode="I" horiz-adv-x="278" d="M224 742q11 0 8 -12l-100 -718q-2 -8 -4 -10t-10 -2h-32q-13 0 -12 12l102 721q1 6 2.5 7.5t7.5 1.5h38z" />
<glyph unicode="J" horiz-adv-x="403" d="M232.5 30q-37.5 -40 -109.5 -40q-51 0 -105 24q-9 6 -7 11l16 37q2 3 4 3q3 0 9 -3q38 -19 82 -19q48 0 71 27t33 92l80 571q1 5 2.5 7t5.5 2h41q9 0 7 -12l-81 -583q-11 -77 -48.5 -117z" />
<glyph unicode="K" horiz-adv-x="680" d="M590 0h-49q-8 0 -10 7l-195 396q-1 4 -4 4q-1 0 -3.5 -2t-4.5 -4l-148 -143q-5 -4 -8 -8t-4 -9l-32 -232q-1 -5 -3.5 -7t-8.5 -2h-35q-13 0 -11 11l102 723q1 5 2.5 6.5t6.5 1.5h40q4 0 6.5 -3t1.5 -7l-56 -401q-1 -3 0 -3.5t2.5 1l3.5 3.5l426 404q6 6 17 6h47 q5 0 5.5 -3t-3.5 -7l-293 -278l-2.5 -2.5t-0.5 -5.5l213 -435q6 -11 -2 -11z" />
<glyph unicode="L" horiz-adv-x="591" d="M179 740q2 2 8 2h39q5 0 6 -2.5t0 -9.5l-93 -674q-1 -5 0 -6.5t6 -1.5h359q11 0 9 -9l-4 -32q-1 -4 -2.5 -5.5t-5.5 -1.5h-417q-11 0 -10 12l102 720q1 6 3 8z" />
<glyph unicode="M" horiz-adv-x="885" d="M74 2q-1 2 0 10l102 721q1 6 2.5 7.5t7.5 1.5h44q7 0 10 -7l167 -651q2 -8 5 -8q4 0 10 11l352 648q4 7 12 7h46q5 0 7 -2.5t1 -8.5l-101 -721q-1 -6 -3 -8t-7 -2h-36q-12 0 -11 11l84 602q1 4 0 3.5t-2 -2.5l-328 -604q-3 -6 -6.5 -8t-10.5 -2h-37q-6 0 -9 2.5t-4 9.5 l-153 598q-1 4 -2.5 4t-2.5 -4l-84 -601q-1 -5 -3 -7t-8 -2h-35q-6 0 -7 2z" />
<glyph unicode="N" horiz-adv-x="755" d="M702 742q5 0 7 -2.5t1 -8.5l-101 -722q-1 -5 -2.5 -7t-6.5 -2h-23q-7 0 -11 1.5t-7 6.5l-333 615q-3 6 -7 6t-6 -9l-86 -611q-1 -5 -3 -7t-8 -2h-32q-11 0 -10 12l102 721q1 6 2.5 7.5t7.5 1.5h27q11 0 15 -9l329 -611q4 -7 9 -7q6 0 7 11l86 608q1 5 2.5 6.5t5.5 1.5h35 z" />
<glyph unicode="O" horiz-adv-x="759" d="M150.5 63.5q-67.5 73.5 -67.5 211.5q0 47 7 95q26 184 120 283t236 99q124 0 191.5 -75t67.5 -216q0 -47 -7 -95q-25 -181 -118.5 -278.5t-236.5 -97.5q-125 0 -192.5 73.5zM640 371q7 52 7 99q0 233 -202 233q-122 0 -197 -84.5t-99 -252.5q-7 -48 -7 -94 q0 -233 205 -233q246 0 293 332z" />
<glyph unicode="P" horiz-adv-x="678" d="M185 323q-9 0 -11 -10l-42 -304q-2 -5 -4 -7t-6 -2h-39q-5 0 -7.5 3t-1.5 7l102 721q1 7 2.5 9t7.5 2h228q113 0 178 -42.5t65 -132.5q0 -118 -79 -181t-213 -63h-180zM549.5 666q-48.5 29 -141.5 29h-170q-10 0 -12 -10l-42 -302v-5q0 -4 1.5 -5.5t5.5 -1.5h176 q108 0 169.5 51t61.5 147q0 68 -48.5 97z" />
<glyph unicode="Q" horiz-adv-x="760" d="M209 654q93 98 236 98q125 0 192.5 -74.5t67.5 -214.5q0 -48 -7 -97q-18 -128 -67 -210.5t-128 -128.5q-9 -5 -9 -12q1 -14 18 -33t45.5 -34.5t60.5 -19.5q9 -1 8 -10l-5 -33q-1 -4 -6 -5.5t-16 -1.5q-37 0 -82.5 28.5t-77.5 90.5q-3 5 -15 2q-39 -9 -81 -9 q-123 0 -191.5 73.5t-68.5 213.5q0 47 7 95q26 184 119 282zM142 268q0 -229 203 -229q122 0 196.5 82.5t98.5 249.5q7 50 7 98q0 116 -51 175t-152 59q-122 0 -197 -86t-98 -253q-7 -49 -7 -96z" />
<glyph unicode="R" horiz-adv-x="683" d="M572 6q0 -6 -11 -6h-38q-10 0 -12 11l-94 331q-2 5 -5 7t-13 2h-209q-6 0 -8.5 -2.5t-3.5 -9.5l-46 -328q-2 -7 -3.5 -9t-8.5 -2h-35q-13 0 -11 11l102 722q1 6 2.5 7.5t7.5 1.5h262q101 0 155.5 -39.5t54.5 -115.5q0 -84 -47.5 -144t-129.5 -80q-11 -4 -9 -8l98 -341z M537.5 441.5q59.5 43.5 59.5 139.5q0 58 -38.5 86t-116.5 28h-202q-11 0 -14 -9l-39 -279v-3q0 -6 6 -6h173q112 0 171.5 43.5z" />
<glyph unicode="S" horiz-adv-x="623" d="M482.5 681.5q-42.5 21.5 -101.5 21.5q-57 0 -103 -21t-72.5 -59t-26.5 -88q0 -74 101 -112l133 -50q72 -28 105 -67t33 -93q0 -71 -35.5 -121t-98 -76t-142.5 -26q-86 0 -143.5 31t-92.5 95q-2 4 -2 7q0 7 9 13l18 11q5 4 10 4q6 0 10 -7q37 -57 78 -81t116 -24 q99 0 157.5 41.5t58.5 124.5q0 36 -24 62.5t-86 50.5l-143 57q-63 25 -91 65t-28 88q0 67 35 118t95 78.5t134 27.5q69 0 119.5 -25.5t88.5 -73.5q4 -5 4.5 -8t-3.5 -6l-31 -23l-2 -1q-2 0 -5.5 3.5l-5.5 5.5q-26 36 -68.5 57.5z" />
<glyph unicode="T" horiz-adv-x="628" d="M112 735q1 5 2.5 6t5.5 1h522q8 0 6 -9l-5 -30q-1 -9 -10 -9h-209q-7 0 -9.5 -2t-3.5 -8l-94 -674q-1 -7 -3 -8.5t-7 -1.5h-39q-6 0 -8 2.5t-1 9.5l95 670v3q0 5 -2.5 7t-8.5 2h-228q-8 0 -7 9z" />
<glyph unicode="U" horiz-adv-x="704" d="M511 49.5q-70 -59.5 -196 -59.5q-113 0 -167.5 48.5t-54.5 147.5q0 25 5 65l68 481q1 6 2.5 8t6.5 2h38q12 0 9 -12l-70 -501q-3 -24 -3 -44q0 -146 171 -146q203 0 230 195l70 499q1 6 2.5 7.5t6.5 1.5h32q8 0 8 -11l-70 -498q-18 -124 -88 -183.5z" />
<glyph unicode="V" horiz-adv-x="694" d="M711 739.5q1 -2.5 -1 -8.5l-363 -720q-4 -7 -7.5 -9t-10.5 -2h-40q-9 0 -13.5 2.5t-5.5 9.5l-153 720v3q0 7 9 7h34q6 0 8.5 -2t3.5 -8l140 -655q3 -9 5 -9q4 0 7 7l332 660q4 7 12 7h37q5 0 6 -2.5z" />
<glyph unicode="W" horiz-adv-x="1027" d="M1041 730l-309 -719q-3 -7 -6.5 -9t-11.5 -2h-38q-16 0 -18 12l-88 626q-1 6 -6 0l-268 -627q-3 -7 -6.5 -9t-11.5 -2h-39q-8 0 -12 2.5t-5 9.5l-102 719v3q0 8 9 8h34q6 0 8.5 -2t3.5 -8l91 -643q2 -9 4 -9q4 0 7 9l275 646q1 4 4 5.5t10 1.5h33q7 0 9 -2t3 -8l91 -645 q0 -8 4 -8q2 0 7 11l275 645q2 7 13 7h32q10 0 8 -12z" />
<glyph unicode="X" horiz-adv-x="668" d="M580 2q-1 -2 -6 -2h-45q-7 0 -9 6l-169 315q-4 7 -8 7t-8 -5l-260 -319q-4 -4 -11 -4h-46q-6 0 -6 3t5 11l290 356q7 9 7 14q0 4 -3 8l-182 342q-3 8 3 8h48q5 0 7 -1t3 -5l158 -299q3 -5 6 -5t8 5l246 301q3 4 10 4h49q8 0 3 -9l-283 -347q-4 -4 -4 -6.5t2 -6.5 l192 -362q4 -7 3 -9z" />
<glyph unicode="Y" horiz-adv-x="647" d="M666.5 738q1.5 -4 -2.5 -9l-296 -403q-6 -10 -7 -23l-42 -290q-1 -7 -4.5 -10t-12.5 -3h-31q-6 0 -8 3t-1 10l40 283l1 10q0 5 -3 11l-185 413q-2 3 -2 7q0 5 9 5h35q7 0 10.5 -2.5t5.5 -8.5l155 -349q4 -10 10 -10t13 10l254 352q4 5 7 6.5t11 1.5h37q5 0 6.5 -4z" />
<glyph unicode="Z" horiz-adv-x="607" d="M17 9l3 17q1 10 9 19l504 643q5 6 -3 6h-396q-9 0 -7 10l4 32q0 3 1.5 4.5t4.5 1.5h475q8 0 7 -8l-3 -19q-1 -7 -7 -14l-508 -646q-6 -7 1 -7h412q7 0 7 -7l-5 -34q-1 -4 -2.5 -5.5t-5.5 -1.5h-481q-11 0 -10 9z" />
<glyph unicode="[" horiz-adv-x="272" d="M46.5 -162q-3.5 3 -2.5 7l124 891q1 4 2.5 5t6.5 1h139q8 0 7 -7l-3 -29q-1 -5 -8 -5h-88q-4 0 -7 -3t-3 -8l-116 -808q0 -5 1 -5.5t5 -0.5h88q9 0 9 -9l-4 -25q-1 -5 -2.5 -6t-5.5 -1h-134q-5 0 -8.5 3z" />
<glyph unicode="\" horiz-adv-x="331" d="M221 -46l-139 778q-1 6 0 8t6 2h32q4 0 6.5 -2.5t1.5 -5.5l142 -786q0 -2 -1 -3t-5 -1h-32q-10 0 -11 10z" />
<glyph unicode="]" horiz-adv-x="272" d="M-44 -158l4 29q1 5 7 5h88q5 0 8 3t3 8l115 808q0 5 -0.5 5.5t-5.5 0.5h-88q-4 0 -6.5 2.5t-2.5 6.5l4 25q1 5 2.5 6t5.5 1h135q5 0 8 -3t2 -7l-124 -891q-1 -4 -2.5 -5t-6.5 -1h-138q-9 0 -8 7z" />
<glyph unicode="^" horiz-adv-x="476" d="M269 454q-1 4 -4 4q-4 0 -6 -6l-167 -308q-2 -4 -4.5 -5t-5.5 -1h-35q-4 0 -5.5 3.5t0.5 8.5l194 355q18 35 39 35q20 0 29 -37l96 -359q1 -5 -0.5 -6.5t-5.5 -1.5h-34q-5 0 -8.5 2.5t-3.5 6.5z" />
<glyph unicode="_" horiz-adv-x="505" d="M386 -97q-1 -5 -3 -6.5t-8 -1.5l-349 -1q-10 0 -8 10l3 30q2 7 6 7l355 1q4 0 6.5 -2.5t1.5 -6.5z" />
<glyph unicode="`" horiz-adv-x="275" d="M98 751l216 -95q7 -2 5 -12l-10 -16q-1 -5 -3.5 -5.5t-7.5 1.5l-217 75q-12 4 -7 15l16 35q1 4 8 2z" />
<glyph unicode="a" horiz-adv-x="540" d="M179 -10q-72 0 -112.5 33.5t-40.5 90.5q0 95 79 140.5t197 55.5l100 8q8 1 14 5t7 11l4 30q2 16 2 24q0 51 -33.5 80t-91.5 29q-50 0 -93 -22.5t-83 -68.5q-6 -6 -11 -2l-29 16q-3 2 -3 5q0 2 3 8q39 49 95 78t125 29q81 0 125.5 -38t44.5 -106q0 -10 -2 -30l-50 -356 q-1 -6 -3 -8t-8 -2h-25q-12 0 -10 11l7 58q0 6 -2 6q-3 0 -8 -7q-91 -78 -198 -78zM412 265v4q0 6 -2 8t-9 1l-85 -7q-237 -18 -237 -151q0 -40 30 -63t83 -23q36 0 72 13t66 35q30 21 48.5 44.5t21.5 45.5z" />
<glyph unicode="b" horiz-adv-x="594" d="M64 0q-14 0 -11 15l101 718q1 5 3 7t6 2h33q9 0 7 -13l-35 -251l-1 -6q0 -3 2 -3q1 0 10 7q3 2 26 18.5t65 31t87 14.5q93 0 139 -57t46 -153q0 -83 -30 -161.5t-91 -128.5t-149 -50q-65 0 -102 26t-52 53q-1 3 -5 3q-5 0 -7 -9l-10 -50q-1 -8 -4 -10.5t-12 -2.5h-16z M125 176q-1 -5 -1 -16q0 -35 20 -64t53 -46t70 -17q70 0 120.5 43t76 110t25.5 140q0 81 -37 126t-108 45q-51 0 -99 -24t-85 -61z" />
<glyph unicode="c" horiz-adv-x="538" d="M516 427q6 -9 -1 -12l-32 -13l-2 -1q-3 0 -8 9q-32 47 -64 67t-73 20q-71 0 -124 -41t-81.5 -106t-28.5 -136q0 -84 43.5 -132.5t120.5 -48.5q51 0 94.5 25t82.5 76q4 4 6 4t5 -3l25 -15q3 -2 4.5 -5t-0.5 -7q-43 -57 -100 -87.5t-123 -30.5q-97 0 -153.5 61t-56.5 162 q0 81 34 156.5t98.5 123t150.5 47.5q127 0 183 -113z" />
<glyph unicode="d" horiz-adv-x="594" d="M433 0q-13 0 -11 13l8 49l1 4q0 4 -3 4q-1 0 -10 -7q-77 -73 -171 -73q-89 0 -143 54.5t-54 156.5q0 82 33 160.5t97 128.5t153 50q48 0 79 -15t58 -40q5 -5 10 -5q7 0 8 15l34 237q1 6 2.5 8t7.5 2h31q10 0 8 -11l-101 -719q-1 -7 -3.5 -9.5t-9.5 -2.5h-24zM479 424 q-31 36 -66 54.5t-77 18.5q-72 0 -125 -42.5t-81 -109.5t-28 -139q0 -85 44 -129t113 -44q45 0 85.5 22t67 54.5t31.5 62.5z" />
<glyph unicode="e" horiz-adv-x="578" d="M107.5 50.5q-57.5 60.5 -57.5 161.5q0 84 34.5 159.5t99.5 122t152 46.5q94 0 146.5 -55.5t52.5 -155.5q0 -31 -4 -59q-2 -18 -19 -18h-400q-7 0 -9.5 -8.5t-2.5 -36.5q0 -78 46.5 -125.5t119.5 -47.5q115 0 185 92q3 4 5.5 4t6.5 -3l25 -16q3 -2 3.5 -5t-1.5 -7 q-44 -55 -100 -82t-127 -27q-98 0 -155.5 60.5zM465 292q12 0 17.5 9.5t5.5 38.5q0 71 -42.5 114t-112.5 43q-61 0 -109 -30t-77.5 -77t-35.5 -98h354z" />
<glyph unicode="f" horiz-adv-x="367" d="M377 528q2 -2 1 -6l-4 -27q0 -3 -1.5 -4.5t-5.5 -1.5h-129q-7 0 -9 -9l-66 -470q-1 -6 -2.5 -8t-6.5 -2h-32q-5 0 -7.5 3.5t-1.5 8.5l66 471q2 6 -4 6h-111q-6 0 -6 8l4 27q0 3 1.5 4.5t4.5 1.5h109q4 0 7 2.5t3 6.5l12 79q9 63 40.5 93.5t91.5 30.5h74q10 0 8 -9l-4 -25 q-1 -4 -2.5 -5.5t-6.5 -1.5h-77q-35 0 -51.5 -19.5t-22.5 -59.5l-12 -86q-1 -4 0 -5t5 -1h130q3 0 5 -2z" />
<glyph unicode="g" horiz-adv-x="586" d="M46.5 -140q-57.5 35 -57.5 96q0 42 28 77.5t77 58.5q7 3 8.5 5.5t-3.5 5.5q-30 21 -30 47q0 25 22.5 43.5t55.5 30.5q6 3 7.5 7t-2.5 6q-65 36 -65 107q0 60 30.5 104t82 67t113.5 23q100 0 148 -46q4 -4 8 -4q2 0 12 6q55 38 92 38q11 0 15.5 -3.5t3.5 -10.5l-2 -18 q-2 -9 -5.5 -12t-12.5 -4q-30 -1 -56 -14q-16 -7 -22 -12.5t-4 -11.5q11 -29 11 -55q0 -60 -31 -101t-82.5 -61t-113.5 -20q-48 0 -100.5 -10t-52.5 -41q0 -15 22.5 -22.5t75.5 -10.5l121 -7q142 -7 142 -120q0 -89 -77 -131t-192 -42q-109 0 -166.5 35zM403.5 285.5 q50.5 35.5 50.5 111.5q0 48 -35.5 74t-103.5 26q-75 0 -127.5 -39t-52.5 -111q0 -47 36.5 -72t104.5 -25q77 0 127.5 35.5zM367.5 -105q63.5 29 63.5 101q0 37 -22.5 54.5t-75.5 19.5l-169 11q-56 -13 -90 -43.5t-34 -74.5q0 -97 173 -97q91 0 154.5 29z" />
<glyph unicode="h" horiz-adv-x="578" d="M62 0q-5 0 -8 3t-2 8l102 722q1 6 2.5 7.5t6.5 1.5h29q10 0 9 -10l-38 -265q-1 -11 6 -7q73 45 113.5 62.5t89.5 17.5q70 0 107.5 -33t37.5 -90q0 -8 -2 -26l-54 -381q-1 -6 -3 -8t-7 -2h-30q-5 0 -8 3t-2 8l52 366q2 18 2 28q0 91 -102 91q-48 0 -90 -20t-115 -71 l-56 -396q-1 -5 -3 -7t-7 -2h-30z" />
<glyph unicode="i" horiz-adv-x="226" d="M197 655q-1 -8 -3.5 -11.5t-10.5 -3.5h-35q-12 0 -10 16l10 73q1 13 14 13h35q5 0 8 -4t2 -11zM102 12q-1 -8 -3 -10t-10 -2h-25q-13 0 -12 12l72 509q1 6 2.5 7.5t6.5 1.5h32q11 0 9 -12z" />
<glyph unicode="j" horiz-adv-x="226" d="M197 655q-1 -8 -3.5 -11.5t-10.5 -3.5h-35q-12 0 -10 16l10 73q1 13 14 13h35q5 0 8 -4t2 -11zM56 -141.5q-29 -28.5 -96 -28.5q-44 0 -55.5 2t-10.5 9l4 26q0 3 1.5 4.5t4.5 1.5l57 2q39 1 58 20t26 65l79 561q1 5 3 7t7 2h31q11 0 9 -12l-80 -565q-9 -66 -38 -94.5z " />
<glyph unicode="k" horiz-adv-x="544" d="M477 4q0 -4 -8 -4h-39q-8 0 -13 9l-135 285q-2 2 -4 1.5t-5 -3.5l-141 -125q-9 -9 -10 -18l-20 -137q-1 -8 -3 -10t-10 -2h-25q-13 0 -12 12l102 721q1 6 2.5 7.5t6.5 1.5h32q11 0 8 -12l-68 -490q-1 -3 -1 -7q0 -2 1 -2t8 6l316 284q6 6 9.5 7.5t8.5 1.5h39q9 0 9 -6 q0 -5 -6 -11l-190 -170q-4 -3 -5.5 -6t-0.5 -7l151 -318q3 -4 3 -8z" />
<glyph unicode="l" horiz-adv-x="226" d="M102 12q-1 -8 -3 -10t-10 -2h-25q-13 0 -12 12l102 721q1 6 2.5 7.5t7.5 1.5h31q11 0 8 -12z" />
<glyph unicode="m" horiz-adv-x="899" d="M54 3q-3 3 -2 8l72 510q1 5 2.5 7t5.5 2h31q9 0 8 -10l-8 -55q-1 -9 5 -5q67 44 107 62t87 18q59 0 92 -26t38 -62q0 -2 2 -2t6.5 3.5t7.5 5.5q68 45 108 63t86 18q66 0 101 -33t35 -89q0 -8 -2 -28l-54 -380q-1 -6 -3 -8t-7 -2h-30q-5 0 -8 3t-2 8l52 365q2 11 2 31 q0 44 -22.5 66.5t-70.5 22.5q-47 0 -88 -21.5t-87 -56.5q-12 -8 -17 -14t-6 -16l-53 -378q-1 -10 -10 -10h-30q-5 0 -8 3.5t-2 7.5l52 366q2 20 2 29q0 90 -93 90q-46 0 -85 -20t-110 -71l-56 -396q-1 -5 -3 -7t-7 -2h-30q-5 0 -8 3z" />
<glyph unicode="n" horiz-adv-x="578" d="M54 3q-3 3 -2 8l72 510q1 5 2.5 7t5.5 2h31q10 0 8 -9l-9 -61q-1 -6 0.5 -7t6.5 3q55 42 103.5 63t99.5 21q70 0 107.5 -33t37.5 -90q0 -8 -2 -26l-54 -381q-1 -10 -10 -10h-31q-4 0 -7 3t-2 8l52 365q2 20 2 29q0 91 -102 91q-48 0 -90 -20t-115 -71l-56 -396 q-1 -5 -3 -7t-8 -2h-29q-5 0 -8 3z" />
<glyph unicode="o" horiz-adv-x="598" d="M107 50.5q-57 60.5 -57 161.5q0 93 38.5 168t104 117.5t144.5 42.5q97 0 153.5 -62.5t56.5 -165.5q0 -92 -38 -165.5t-103 -115t-144 -41.5q-98 0 -155 60.5zM383.5 69.5q52.5 35.5 82.5 100t30 147.5t-43 131.5t-118 48.5q-65 0 -118 -36.5t-84 -101.5t-31 -146 q0 -83 43.5 -131t120.5 -48q65 0 117.5 35.5z" />
<glyph unicode="p" horiz-adv-x="592" d="M30.5 -161.5q-2.5 3.5 -1.5 7.5l95 672q1 8 3.5 10t9.5 2h24q6 0 9 -3.5t2 -8.5l-8 -50v-2q0 -4 2 -4q4 0 10 6q2 2 23.5 22t61.5 35t85 15q88 0 141.5 -54t53.5 -155q0 -83 -32.5 -161.5t-95.5 -129t-151 -50.5q-47 0 -82 15t-57 37q-5 4 -9 4q-7 0 -9 -14l-26 -188 q-1 -6 -2.5 -7.5t-6.5 -1.5h-33q-4 0 -6.5 3.5zM381.5 75.5q52.5 42.5 80 109.5t27.5 139q0 85 -43.5 129t-111.5 44q-46 0 -86.5 -21t-66 -52t-29.5 -61l-38 -257q32 -36 67 -54.5t77 -18.5q71 0 123.5 42.5z" />
<glyph unicode="q" horiz-adv-x="594" d="M398 -152l26 186q1 4 1 9q0 3 -1 3q-2 0 -12 -7q-32 -21 -74 -35t-87 -14q-94 0 -146.5 59t-52.5 161q0 81 29.5 156.5t90.5 124.5t151 49q50 0 81.5 -12.5t45 -25t28.5 -32.5q4 -4 6 -4q4 0 7 10l11 42q1 7 5 9.5t13 2.5h13q12 0 8 -15l-93 -671q-1 -9 -11 -9h-31 q-9 0 -8 13zM353 53.5q46 20.5 81 55.5l36 245q1 5 1 15q0 34 -18 63.5t-50 47t-74 17.5q-70 0 -121 -41t-77.5 -106t-26.5 -136q0 -85 43 -133t115 -48q45 0 91 20.5z" />
<glyph unicode="r" horiz-adv-x="362" d="M54 3q-3 3 -2 8l72 510q1 5 2.5 7t5.5 2h30q10 0 9 -10l-10 -64v-2q0 -4 2.5 -4t6.5 4q46 46 86.5 66t81.5 20q37 0 35 -11l-5 -34q0 -5 -3 -5l-34 1q-32 0 -73 -20t-72 -50.5t-35 -61.5l-49 -350q-1 -5 -3 -7t-7 -2h-30q-5 0 -8 3z" />
<glyph unicode="s" horiz-adv-x="504" d="M80 21.5q-54 31.5 -72 81.5q-4 8 2 11l27 15q1 1 4 1q4 0 7 -5q20 -44 61 -68t101 -24q36 0 76 11t68.5 36.5t28.5 64.5q0 57 -101 88l-99 29q-113 35 -113 112q0 51 30 88.5t79 57.5t105 20q64 0 111 -24.5t70 -70.5q1 -1 1 -4t-5 -6l-24 -14q-1 -1 -3 -1q-5 0 -8 5 q-19 35 -55.5 53.5t-89.5 18.5q-36 0 -73 -12t-62 -37t-25 -61q0 -23 18 -42t64 -34l127 -40q51 -16 77 -47t26 -71q0 -52 -33.5 -88.5t-85 -55.5t-105.5 -19q-75 0 -129 31.5z" />
<glyph unicode="t" horiz-adv-x="365" d="M130.5 19.5q-22.5 19.5 -22.5 63.5q0 12 2 38l50 361q1 4 0 5.5t-5 1.5h-91q-6 0 -6 8l4 28q1 5 6 5h92q3 0 6 2.5t3 6.5l32 162q1 9 11 9h22q9 0 8 -13l-23 -160q-1 -4 0 -5.5t5 -1.5h136q9 0 7 -8l-4 -28q0 -3 -1.5 -4t-5.5 -1h-136q-8 0 -10 -9l-49 -353 q-3 -19 -3 -33q0 -31 12.5 -42t40.5 -11h76q9 0 9 -9l-4 -21q-1 -6 -6 -8q-24 -3 -81 -3q-52 0 -74.5 19.5z" />
<glyph unicode="u" horiz-adv-x="573" d="M101.5 25q-40.5 35 -40.5 93q0 14 1 22l54 380q1 6 3 8t7 2h30q5 0 8 -3t2 -8l-51 -360q-2 -18 -2 -25q0 -100 101 -100q48 0 96.5 26t105.5 77l55 384q1 5 3 7t7 2h30q5 0 8 -3t2 -8l-72 -510q-1 -6 -2.5 -7.5t-6.5 -1.5h-29q-10 0 -9 9l9 60v3q0 6 -8 1 q-65 -47 -110 -65t-86 -18q-65 0 -105.5 35z" />
<glyph unicode="v" horiz-adv-x="534" d="M538 526.5q3 -3.5 1 -7.5l-278 -508q-4 -6 -8 -8.5t-11 -2.5h-19q-8 0 -13.5 3.5t-6.5 8.5l-135 508v3q0 7 9 7h31q10 0 12 -10l116 -440q2 -9 6 -9t10 12l238 440q3 4 5 5.5t7 1.5h28q5 0 8 -3.5z" />
<glyph unicode="w" horiz-adv-x="786" d="M785.5 526.5q2.5 -3.5 1.5 -7.5l-221 -509q-4 -10 -17 -10h-32q-8 0 -13 3t-5 9l-76 422q-1 7 -4 7t-6 -10l-187 -421q-2 -6 -5.5 -8t-10.5 -2h-35q-16 0 -18 12l-85 508v3q0 7 8 7h32q11 0 11 -10l74 -440q1 -8 4 -8q5 0 9 12l198 440q1 4 3.5 5t6.5 1h28q5 0 8.5 -3 t3.5 -7l80 -440q1 -8 4 -8q4 0 8 12l192 439q4 7 13 7h23q5 0 7.5 -3.5z" />
<glyph unicode="x" horiz-adv-x="522" d="M453 2.5q0 -2.5 -6 -2.5h-42q-4 0 -8 2.5t-5 4.5l-130 217q-2 5 -6 5q-2 0 -9 -7l-198 -217q-2 -5 -14 -5h-31q-10 0 -10 6t6 12l225 242q10 10 5 18l-146 243q-3 3 -2 6t6 3h39q9 0 12 -7l127 -208q1 -4 5 -4t10 7l181 207q3 4 6 4.5t8 0.5h33q6 0 7.5 -3.5t-1.5 -7.5 l-213 -237q-11 -11 -5 -18l151 -251q5 -8 5 -10.5z" />
<glyph unicode="y" horiz-adv-x="513" d="M18.5 -165q-19.5 0 -27 2t-6.5 8l3 20q1 7 8 10t24 3h57q27 0 53.5 23.5t43.5 57t17 60.5q0 6 -2 16l-123 481l-1 5q0 9 10 9h34q10 0 11 -7l109 -432q2 -9 6 -9q6 0 11 11l226 428q3 9 12 9h30q8 0 3 -9l-311 -590q-27 -52 -66.5 -74t-94.5 -22h-26.5z" />
<glyph unicode="z" horiz-adv-x="463" d="M-1 9l3 22q1 9 13 22l374 427q4 4 3.5 7t-5.5 3h-292q-4 0 -5.5 2t-0.5 7l4 24q1 7 9 7h350q5 0 5 -6l-5 -26q-1 -13 -12 -22l-373 -426q-8 -9 1 -9h320q8 0 6 -7l-4 -25q-1 -6 -2.5 -7.5t-6.5 -1.5h-375q-9 0 -7 9z" />
<glyph unicode="{" horiz-adv-x="276" d="M94 -143q-26 22 -26 58q0 11 1 16l33 233q1 4 1 13q0 37 -24.5 64t-70.5 27q-3 0 -5 2t-1 6l3 29q1 5 3 5q55 1 89 32t41 79l33 229q5 42 37 67t86 25h25q9 0 8 -7l-4 -29q-1 -5 -7 -5h-22q-35 0 -52.5 -13.5t-20.5 -41.5l-32 -230q-9 -57 -39.5 -88.5t-71.5 -35.5 q-7 -1 -9 -3.5t4 -3.5q36 -3 58.5 -26.5t22.5 -68.5q0 -8 -2 -28l-32 -232q-1 -5 -1 -14q0 -21 13 -30.5t45 -9.5h20q8 0 8 -9l-3 -25q-1 -5 -2.5 -6t-6.5 -1h-22q-51 0 -77 22z" />
<glyph unicode="|" horiz-adv-x="266" d="M61 -165q-4 0 -7 2.5t-3 5.5l140 997q0 3 1.5 5t5.5 2h29q10 0 8 -12l-138 -993q-1 -4 -2.5 -5.5t-5.5 -1.5h-28z" />
<glyph unicode="}" horiz-adv-x="276" d="M-44 -158l4 29q1 5 7 5h22q35 0 52 13.5t21 41.5l32 230q9 57 39.5 88.5t70.5 35.5q7 1 9.5 3.5t-3.5 3.5q-37 3 -59.5 27t-22.5 70q0 8 2 26l33 232q1 5 1 14q0 21 -13 30.5t-45 9.5h-20q-4 0 -6.5 2.5t-1.5 6.5l3 25q1 5 2.5 6t5.5 1h23q51 0 77 -21.5t26 -56.5 q0 -6 -2 -18l-32 -233q-1 -4 -1 -13q0 -37 24 -64t70 -27q3 0 5 -2t1 -6l-4 -28q-1 -6 -3 -6q-54 -1 -87.5 -32t-40.5 -79l-33 -229q-5 -42 -37 -67t-87 -25h-24q-9 0 -8 7z" />
<glyph unicode="~" horiz-adv-x="548" d="M451 343q-30 -12 -69 -12q-28 0 -49 6t-48 18q-26 11 -43 16.5t-39 5.5q-64 0 -107 -43q-2 -1 -5 -1q-4 0 -5 7l-7 22q-3 7 1 12q32 22 58.5 33.5t61.5 11.5q25 0 46 -6t50 -18q27 -11 46 -16.5t42 -5.5q34 0 55.5 10.5t39.5 28.5l6 2q4 0 6 -8l8 -23q1 -1 1 -4 q0 -4 -4 -9q-15 -15 -45 -27z" />
<glyph unicode="&#xa1;" horiz-adv-x="235" d="M177 445.5q-1 -1.5 -5 -1.5h-56q-8 0 -7 11l9 65q1 6 3 8t8 2h46q16 0 14 -13l-10 -66q-1 -4 -2 -5.5zM84 -165h-51q-2 0 -4.5 2.5t-1.5 6.5l86 524q1 5 2.5 6t6.5 1h17q13 0 11 -11l-60 -523q0 -6 -6 -6z" />
<glyph unicode="&#xa2;" horiz-adv-x="558" d="M493 526l-32 -13l-2 -1q-3 0 -8 9q-32 47 -64 67t-73 20q-71 0 -124 -41t-81.5 -106t-28.5 -136q0 -84 43.5 -132.5t120.5 -48.5q51 0 94.5 25t82.5 76q4 4 6 4t5 -3l25 -15q3 -2 4.5 -5t-0.5 -7q-70 -94 -174 -114l-14 -92q-1 -8 -4 -10.5t-10 -2.5h-19q-7 0 -10.5 4 t-1.5 10l12 87h-2q-97 0 -153.5 61t-56.5 162q0 81 34 156.5t98.5 123t150.5 47.5h6l12 82q1 5 3 7t7 2h27q9 0 9 -10l-13 -86q88 -19 132 -108q6 -9 -1 -12z" />
<glyph unicode="&#xa3;" horiz-adv-x="601" d="M-22 3q-3 3 -2 7l4 31q0 3 1.5 4.5t5.5 1.5h34q42 -1 76.5 43t46.5 128q7 48 7 136q0 2 -1.5 2.5t-3.5 0.5h-92q-2 0 -4 2.5t-1 5.5l4 29q0 5 4 5h83q3 0 6 2.5t3 5.5l-8 72q-2 22 -2 32q0 72 32.5 127t85.5 84.5t113 29.5q41 0 78 -14t61.5 -37t30.5 -48q2 -3 1 -4.5 t-3 -2t-3 -0.5l-32 -13l-4 -1q-5 0 -7 7q-27 63 -120 63q-67 0 -116 -37.5t-58 -101.5q-4 -25 -4 -61q0 -44 7 -98q4 -4 7 -4h167q3 0 5 -2t1 -5l-4 -30q-1 -5 -6 -5h-156q-11 0 -11 -10q1 -11 1 -35q0 -38 -6 -83q-10 -69 -32.5 -112t-44.5 -65q-1 -1 -3 -2.5t-1 -2t3 -0.5 h203q55 0 92.5 18.5t60.5 60.5q5 4 11 2l28 -10q8 -5 5 -11q-61 -108 -200 -108h-336q-4 0 -7 3z" />
<glyph unicode="&#xa4;" horiz-adv-x="518" d="M156 232q-2 1 -5 1q-4 0 -9 -5l-47 -42q-6 -4 -9 -4t-10 7l-11 14q-5 5 -5 10q0 4 4 8l48 41q7 8 4 17q-18 34 -18 73q0 66 46 123q6 6 3 11l-36 41q-4 8 -4 10q0 4 5 9l17 14q4 4 8 4q5 0 8 -6l37 -42q2 -2 3 -2q3 0 8 3q46 29 102 29q57 0 93 -33l4 -1q4 0 11 5l53 46 q7 5 12 -2l18 -20q4 -7 0 -12l-54 -48q-7 -5 -4 -12q19 -33 19 -76q0 -32 -11.5 -63t-32.5 -56q-4 -4 -5 -7t2 -6l40 -45q6 -8 1 -13l-24 -20q-5 -5 -11 2l-38 46q-7 6 -12 -1q-51 -31 -105 -31q-57 0 -95 33zM326.5 268.5q33.5 20.5 54 54.5t20.5 71q0 43 -30 73.5 t-76 30.5q-38 0 -71.5 -20.5t-54 -54t-20.5 -69.5q0 -44 30 -75t76 -31q38 0 71.5 20.5z" />
<glyph unicode="&#xa5;" horiz-adv-x="585" d="M633.5 737.5q2.5 -4.5 -1.5 -8.5l-288 -390h141q4 0 6.5 -2.5t1.5 -5.5l-3 -26q-1 -5 -3.5 -6.5t-8.5 -1.5h-149l-14 -100h150q3 0 6 -2.5t2 -5.5l-4 -26q-1 -5 -3 -6.5t-8 -1.5h-149l-20 -142q-2 -8 -5 -10.5t-11 -2.5h-29q-7 0 -10.5 4t-2.5 9l20 141h-148q-5 0 -8 3 t-2 7l4 25q1 7 5 7h155l14 100h-148q-11 0 -9 9l3 26q0 4 1.5 5.5t4.5 1.5h140l-177 392q-1 2 -1 6q0 6 10 6h37q7 0 10.5 -2.5t5.5 -8.5l154 -349q5 -9 7 -9q3 0 10 10l257 351q5 6 8 7t11 1h30q6 0 8.5 -4.5z" />
<glyph unicode="&#xa6;" horiz-adv-x="266" d="M145 442q-4 0 -6.5 2.5t-1.5 5.5l54 390q0 3 1.5 5t5.5 2h29q10 0 8 -12l-54 -386q-1 -4 -2 -5.5t-5 -1.5h-29zM61 -165q-4 0 -7 2.5t-3 5.5l55 390q0 7 6 7h30q11 0 9 -12l-54 -386q-1 -4 -2.5 -5.5t-5.5 -1.5h-28z" />
<glyph unicode="&#xa7;" horiz-adv-x="480" d="M388.5 143q20.5 -28 20.5 -62q0 -42 -26.5 -76t-73 -54t-103.5 -20q-65 0 -117.5 31t-72.5 82q-4 6 -2 8l31 16q1 1 4 1q5 0 6 -6q20 -40 60.5 -63.5t94.5 -23.5q59 0 100 24.5t46 66.5q1 4 1 12q0 27 -22.5 50.5t-76.5 45.5l-91 37q-101 42 -101 122q0 52 36 90.5 t94 60.5q-50 26 -70.5 54.5t-20.5 61.5q0 8 2 22q5 36 31.5 65.5t69.5 46.5t95 17q58 0 102 -27t65 -68q6 -6 0 -8l-26 -15q-2 -1 -5 -1q-7 0 -7 5q-21 32 -53 50.5t-72 18.5q-63 0 -103 -23.5t-46 -62.5l-1 -11q0 -24 18.5 -45.5t65.5 -41.5l84 -37q63 -28 91.5 -62.5 t28.5 -78.5q0 -57 -32 -91.5t-85 -57.5q40 -25 60.5 -53zM321.5 236.5q27.5 12.5 47 35.5t23.5 49q2 16 2 23q0 28 -18 49.5t-63 40.5l-59 25q-48 -5 -89 -36.5t-45 -69.5q-1 -6 -1 -16q0 -24 18 -43t64 -39l65 -29q28 -2 55.5 10.5z" />
<glyph unicode="&#xa8;" horiz-adv-x="197" d="M122 653q-2 -8 -4 -10t-10 -2h-32q-7 0 -9.5 3t-1.5 9l11 80q1 6 2.5 7.5t6.5 1.5h39q10 0 9 -12zM241 653q-2 -8 -4 -10t-10 -2h-32q-7 0 -9.5 3t-1.5 9l11 80q1 6 2.5 7.5t6.5 1.5h39q12 0 9 -12z" />
<glyph unicode="&#xa9;" horiz-adv-x="830" d="M207 33q-76 43 -119 118t-43 168q0 30 4 55q15 102 78 189t157 138t197 51q95 0 171 -43.5t119.5 -119.5t43.5 -168q0 -17 -4 -53q-15 -103 -78.5 -190t-157.5 -137.5t-197 -50.5q-95 0 -171 43zM552.5 80q82.5 42 139 118.5t70.5 175.5q4 34 4 51q0 83 -38 146.5 t-103.5 98.5t-145.5 35q-91 0 -173.5 -42.5t-138 -119.5t-69.5 -175q-4 -25 -4 -54q0 -83 37.5 -145.5t103 -96.5t146.5 -34q89 0 171.5 42zM606 494q2 -3 1 -5l-1 -2l-34 -15h-1q-5 0 -7 7q-36 68 -101 68q-64 0 -111.5 -48.5t-58.5 -126.5q-2 -22 -2 -32q0 -63 32 -100.5 t87 -37.5q39 0 74 21.5t61 58.5q3 3 10 -2l21 -12q4 -2 4 -11q-35 -46 -80 -72t-96 -26q-75 0 -119.5 47.5t-44.5 127.5q0 20 3 41q9 62 40 111t77.5 76.5t100.5 27.5q92 0 145 -96z" />
<glyph unicode="&#xaa;" horiz-adv-x="404" d="M340.5 724q29.5 -25 29.5 -70q0 -6 -2 -20l-23 -163q-3 -16 -3 -27q0 -9 3 -27q5 -6 -5 -6h-28q-9 0 -9 8l-1 36q0 3 -1 3q-2 0 -7 -6q-31 -25 -58 -36t-58 -11q-48 0 -74.5 21t-26.5 58q0 54 44 84t131 38l59 6q13 2 14 10l3 18q1 5 1 13q0 60 -78 60q-32 0 -55 -11.5 t-46 -40.5q-2 -2 -9 1l-26 11q0 1 -1 3.5t0 5.5q23 32 59.5 49.5t82.5 17.5q55 0 84.5 -25zM136.5 455q18.5 -15 53.5 -15q46 0 83 33q35 25 38 49l6 48v4q0 3 -1.5 4t-6.5 0l-47 -4q-130 -10 -141 -79q-3 -25 15.5 -40z" />
<glyph unicode="&#xab;" horiz-adv-x="427" d="M179 81q2 -3 0.5 -3.5t-5.5 -0.5h-16q-3 0 -6 2t-3 4l-111 167q-5 11 -1 15l162 178q3 3 5 3h3h18q4 0 6.5 -3t-0.5 -7l-135 -174q-6 -8 -3 -13zM349 81q2 -3 0 -3.5t-6 -0.5h-16q-3 0 -5.5 2t-2.5 4l-111 167q-5 11 -1 15l162 178q2 3 4 3h3h18q4 0 7 -3t0 -7l-136 -174 q-6 -8 -3 -13z" />
<glyph unicode="&#xac;" horiz-adv-x="545" d="M492 377v-3l-22 -157q-1 -5 -2 -6.5t-6 -1.5h-28q-4 0 -6.5 2.5t-1.5 5.5l17 134l-353 -1q-9 0 -9 9l5 29q1 6 5 6l395 1q8 0 8 -8z" />
<glyph unicode="&#xad;" horiz-adv-x="381" d="M273 251q-1 -5 -3 -6.5t-8 -1.5l-224 -1q-9 0 -9 9l5 30q1 7 5 7l231 1q4 0 6.5 -2.5t1.5 -5.5z" />
<glyph unicode="&#xae;" horiz-adv-x="545" d="M168.5 302q-47.5 27 -74.5 74t-27 105q0 23 2 35q9 64 48.5 118t98 86t123.5 32q59 0 107 -27.5t75 -75.5t27 -106q0 -22 -2 -33q-9 -64 -49 -118t-98.5 -85.5t-122.5 -31.5q-60 0 -107.5 27zM385.5 337q49.5 25 81.5 71.5t40 107.5q3 18 3 35q0 75 -46.5 119.5 t-124.5 44.5q-60 0 -109.5 -25.5t-81.5 -72t-40 -107.5q-3 -19 -3 -37q0 -74 46.5 -117.5t125.5 -43.5q59 0 108.5 25zM372 393h-27q-2 0 -3 1.5t0 3.5l-26 106v1.5t-6 0.5h-54q-4 0 -6 -5l-15 -105v-2t-2 -1h-25q-3 0 -4 1.5t0 3.5l32 229v2t1 1h101q33 0 51 -13.5 t18 -38.5l-1 -9q-4 -25 -19 -38.5t-36 -21.5q-2 0 -3.5 -1t-0.5 -2l28 -109q0 -4 -3 -4zM355 543.5q15 8.5 18 26.5q2 15 -7.5 23t-39.5 8h-57q-1 0 -2.5 0.5t-2.5 -5.5l-9 -59q0 -2 2 -2h61q22 0 37 8.5z" />
<glyph unicode="&#xaf;" horiz-adv-x="282" d="M331 688q-1 -5 -3 -6.5t-8 -1.5h-242q-10 0 -8 10l3 27q1 6 6 6h250q3 0 5 -2.5t1 -5.5z" />
<glyph unicode="&#xb0;" horiz-adv-x="464" d="M424.5 638.5q-23.5 -39.5 -63 -62t-86.5 -22.5q-60 0 -97 35.5t-37 93.5q0 49 23 89t62.5 63t86.5 23q60 0 97.5 -36.5t37.5 -94.5q0 -49 -23.5 -88.5zM376 791q-24 24 -66 24q-54 0 -89.5 -37.5t-35.5 -94.5q0 -41 23.5 -65t66.5 -24q53 0 89 38t36 95q0 40 -24 64z" />
<glyph unicode="&#xb1;" horiz-adv-x="545" d="M502 464.5q2 -2.5 2 -5.5l-4 -29q-1 -5 -3.5 -6.5t-8.5 -1.5h-172l-24 -176q-1 -6 -7 -6h-27q-11 0 -9 13l23 168h-172q-9 0 -9 10l5 28q0 7 6 7h176l24 175q1 5 2.5 6t5.5 1h29q4 0 6.5 -2t1.5 -5l-24 -174h174q3 0 5 -2.5zM454 121.5q2 -2.5 2 -5.5l-4 -28 q-1 -5 -3 -6.5t-8 -1.5l-389 -1q-9 0 -8 9l3 29q1 6 6 6l395 1q4 0 6 -2.5z" />
<glyph unicode="&#xb2;" horiz-adv-x="452" d="M189 577q56 48 87 89t31 83q0 37 -27 57t-64 20q-31 0 -65.5 -15.5t-58.5 -46.5q-4 -4 -7 -1l-19 16q-4 2 2 8q29 35 71 52.5t83 17.5q52 0 86.5 -26.5t34.5 -79.5q0 -36 -16 -67.5t-42.5 -59t-73.5 -69.5l-150 -132q-4 -2 -3.5 -4.5t4.5 -2.5h234q7 0 5 -6l-2 -20 q-1 -1 -2 -3.5t-4 -2.5h-275q-9 0 -7 9l1 16q1 7 3.5 11t10.5 11z" />
<glyph unicode="&#xb3;" horiz-adv-x="467" d="M94 799q36 30 70.5 44t73.5 14q62 0 98 -28.5t36 -73.5q0 -41 -27.5 -74t-73.5 -48q-3 -1 -3 -2.5t4 -2.5q36 -10 59.5 -36.5t23.5 -65.5q0 -41 -22.5 -74.5t-65.5 -53.5t-102 -20q-53 0 -82 16t-57 47q-3 4 -1 6l20 15q2 3 5 0q38 -53 120 -53q64 0 106.5 31.5 t42.5 83.5q0 43 -35 66.5t-85 23.5h-56q-3 0 -5 1.5t-1 3.5l3 21q0 4 5 4h46q38 0 71.5 14.5t53.5 39t20 54.5q0 33 -26.5 53.5t-71.5 20.5q-39 0 -66 -13t-58 -37q-4 -2 -6 -2t-4 4l-10 12q-4 4 0 9z" />
<glyph unicode="&#xb4;" horiz-adv-x="275" d="M326 711l1 -4q0 -5 -8 -8l-238 -76l-4 -1q-6 0 -8 8l-4 17q-2 8 3 10l243 94h2q5 0 7 -5z" />
<glyph unicode="&#xb6;" horiz-adv-x="540" d="M467 705q-2 0 -4.5 -2t-2.5 -5l-110 -779v-2t-4 -2h-28q-3 0 -5 2.5t-1 4.5l109 780q0 3 -4 3h-35q-2 0 -4.5 -2t-2.5 -5l-110 -779q0 -4 -4 -4h-29q-7 0 -6 7l53 380q0 2 -1 3q-61 0 -104 24.5t-65 65.5t-22 91q0 11 2 31q8 58 41.5 109.5t90 83.5t131.5 32h168 q7 0 5 -6l-4 -28q0 -2 -0.5 -2.5t-2.5 -0.5h-51z" />
<glyph unicode="&#xb7;" horiz-adv-x="179" d="M144 342q-1 -7 -3.5 -9t-10.5 -2h-63q-12 0 -11 12l9 65q1 5 2.5 6.5t5.5 1.5h73q8 0 8 -10z" />
<glyph unicode="&#xb8;" horiz-adv-x="202" d="M105.5 -183q-31.5 -22 -79.5 -22q-44 0 -74 22q-2 0 -3.5 2.5t-1.5 4.5l14 21q1 3 6 -2q18 -16 53 -16q63 0 69 44q2 23 -14.5 33t-55.5 12q-7 0 -7 6l48 83h37l-31 -61q-1 -2 0 -2q38 -3 54.5 -20t16.5 -42q0 -41 -31.5 -63z" />
<glyph unicode="&#xb9;" horiz-adv-x="367" d="M216 406l-3 -21q0 -1 -1 -3t-4 -2h-207q-5 0 -4 5l3 23q1 3 4 3h87q3 0 5 4l54 386q0 5 -4 2l-89 -33q-7 -1 -6 4l2 17q1 7 6 9l93 44q7 3 15 3h20q6 0 5 -7l-60 -425q-2 -4 3 -4h76q5 0 5 -5z" />
<glyph unicode="&#xba;" horiz-adv-x="417" d="M373.5 713q35.5 -38 35.5 -104q0 -22 -2 -34q-11 -76 -57.5 -122t-118.5 -46q-65 0 -100 37.5t-35 101.5q0 22 2 34q11 77 59 124t117 47q64 0 99.5 -38zM186 676q-34 -37 -42 -98q-3 -18 -3 -34q0 -48 23 -74.5t67 -26.5q54 0 87.5 37.5t43.5 102.5q2 20 2 30 q0 46 -23 73t-68 27q-53 0 -87 -37z" />
<glyph unicode="&#xbb;" horiz-adv-x="426" d="M162 265l-87 174q-3 7 5 7h17q4 0 8 -5l112 -178q4 -9 -1 -15l-160 -168q-1 -3 -8 -3h-15q-12 0 -9 7l134 168q7 7 4 13zM331 265l-86 174q-3 7 4 7h18q4 0 8 -5l112 -178q3 -3 3 -7t-4 -8l-160 -168q-3 -3 -8 -3h-16q-12 0 -8 7l133 168q7 7 4 13z" />
<glyph unicode="&#xbc;" horiz-adv-x="867" d="M205 302l-3 -21q0 -1 -1 -3t-4 -2h-207q-5 0 -4 5l3 23q1 3 4 3h87q3 0 5 4l54 386q0 5 -4 2l-89 -33q-7 -1 -6 4l2 17q1 7 6 9l93 44q7 3 15 3h20q6 0 5 -7l-60 -425q-2 -4 3 -4h76q5 0 5 -5zM162 3q-4 -4 -7 -5.5t-10 -1.5h-18q-9 0 -9 7q0 5 4 9l591 734q3 4 7.5 4 h5.5h23q5 0 7 -2.5t-1 -7.5zM707 467h26q6 0 6 -7l-42 -293q0 -2 1 -3t3 -1h63q7 0 7 -5l-3 -20q-2 -5 -7 -5h-64q-4 0 -6 -6l-16 -121q0 -3 -1.5 -4.5t-5.5 -1.5h-25q-5 0 -4 7l17 121q0 5 -4 5h-213q-4 0 -5 1.5t0 5.5l3 22q0 4 2 7.5t6 8.5l252 286q3 3 10 3zM654 163 q4 0 5 6l34 239q0 3 -1 3q-3 0 -7 -6l-207 -235q-7 -7 0 -7h176z" />
<glyph unicode="&#xbd;" horiz-adv-x="929" d="M205 302l-3 -21q0 -1 -1 -3t-4 -2h-207q-5 0 -4 5l3 23q1 3 4 3h87q3 0 5 4l54 386q0 5 -4 2l-89 -33q-7 -1 -6 4l2 17q1 7 6 9l93 44q7 3 15 3h20q6 0 5 -7l-60 -425q-2 -4 3 -4h76q5 0 5 -5zM176 3q-4 -4 -7 -5.5t-10 -1.5h-18q-9 0 -9 7q0 5 4 9l591 734q3 4 7.5 4 h5.5h23q5 0 7 -2.5t-1 -7.5zM671 193q56 48 87 89t31 83q0 37 -27 57t-64 20q-31 0 -65.5 -15.5t-58.5 -46.5q-4 -4 -7 -1l-19 16q-4 2 2 8q29 35 71 52.5t83 17.5q52 0 86.5 -26.5t34.5 -79.5q0 -36 -16 -67.5t-42.5 -59t-73.5 -69.5l-150 -132q-4 -2 -3.5 -4.5t4.5 -2.5 h234q7 0 5 -6l-2 -20q-1 -1 -2 -3.5t-4 -2.5h-275q-9 0 -7 9l1 16q1 7 3.5 11t10.5 11z" />
<glyph unicode="&#xbe;" horiz-adv-x="893" d="M82 694q36 30 70.5 44t73.5 14q62 0 98 -28.5t36 -73.5q0 -41 -27.5 -74t-73.5 -48q-3 -1 -3 -2.5t4 -2.5q36 -10 59.5 -36.5t23.5 -65.5q0 -41 -22.5 -74.5t-65.5 -53.5t-102 -20q-53 0 -82 16t-57 47q-3 4 -1 6l20 15q2 3 5 0q38 -53 120 -53q64 0 106.5 31.5 t42.5 83.5q0 43 -35 66.5t-85 23.5h-56q-3 0 -5 1.5t-1 3.5l3 21q0 4 5 4h46q38 0 71.5 14.5t53.5 39t20 54.5q0 33 -26.5 53.5t-71.5 20.5q-39 0 -66 -13t-58 -37q-4 -2 -6 -2t-4 4l-10 12q-4 4 0 9zM262 3q-4 -4 -7 -5.5t-10 -1.5h-18q-9 0 -9 7q0 5 4 9l591 734 q3 4 7.5 4h5.5h23q5 0 7 -2.5t-1 -7.5zM733 467h26q6 0 6 -7l-42 -293q0 -2 1 -3t3 -1h63q7 0 7 -5l-3 -20q-2 -5 -7 -5h-64q-4 0 -6 -6l-16 -121q0 -3 -1.5 -4.5t-5.5 -1.5h-25q-5 0 -4 7l17 121q0 5 -4 5h-213q-4 0 -5 1.5t0 5.5l3 22q0 4 2 7.5t6 8.5l252 286q3 3 10 3z M680 163q4 0 5 6l34 239q0 3 -1 3q-3 0 -7 -6l-207 -235q-7 -7 0 -7h176z" />
<glyph unicode="&#xbf;" horiz-adv-x="508" d="M264 519q1 7 3.5 9t10.5 2h46q6 0 9 -3.5t2 -8.5l-9 -66q-1 -8 -8 -8h-56q-8 0 -8 10zM427 -45q1 -3 0 -7q-40 -57 -105.5 -90t-137.5 -33q-91 0 -142 42t-51 114q0 8 2 28q5 37 22.5 66t40 50t60.5 50q41 32 66 55.5t45 57.5t26 79q2 6 8 6h32q5 0 7.5 -3.5t1.5 -9.5 q-7 -50 -28 -87.5t-47 -62.5t-68 -57q-51 -40 -77.5 -71.5t-33.5 -76.5q-1 -7 -1 -20q0 -53 37 -82.5t102 -29.5q57 0 114 30t79 71q2 2 4 2t6 -2l34 -14q3 -2 4 -5z" />
<glyph unicode="&#xc0;" horiz-adv-x="706" d="M15 3.5q-2 3.5 0 8.5l366 720q3 6 6.5 8t10.5 2h44q7 0 11.5 -3.5t4.5 -8.5l161 -720v-3q0 -7 -8 -7h-35q-12 0 -13 10l-49 216q-1 4 -2.5 5t-5.5 1h-315q-7 0 -12 -8l-111 -218q-2 -6 -12 -6h-34q-5 0 -7 3.5zM494 280q10 0 8 12l-86 376q-1 9 -5 9t-9 -12l-191 -372 q-6 -13 1 -13h282zM327 963l216 -95q7 -2 5 -12l-10 -16q-1 -5 -3.5 -5.5t-7.5 1.5l-217 75q-12 4 -7 15l16 35q1 4 8 2z" />
<glyph unicode="&#xc1;" horiz-adv-x="706" d="M15 3.5q-2 3.5 0 8.5l366 720q3 6 6.5 8t10.5 2h44q7 0 11.5 -3.5t4.5 -8.5l161 -720v-3q0 -7 -8 -7h-35q-12 0 -13 10l-49 216q-1 4 -2.5 5t-5.5 1h-315q-7 0 -12 -8l-111 -218q-2 -6 -12 -6h-34q-5 0 -7 3.5zM494 280q10 0 8 12l-86 376q-1 9 -5 9t-9 -12l-191 -372 q-6 -13 1 -13h282zM571 923l1 -4q0 -5 -8 -8l-238 -76l-4 -1q-6 0 -8 8l-4 17q-2 8 3 10l243 94h2q5 0 7 -5z" />
<glyph unicode="&#xc2;" horiz-adv-x="706" d="M15 3.5q-2 3.5 0 8.5l366 720q3 6 6.5 8t10.5 2h44q7 0 11.5 -3.5t4.5 -8.5l161 -720v-3q0 -7 -8 -7h-35q-12 0 -13 10l-49 216q-1 4 -2.5 5t-5.5 1h-315q-7 0 -12 -8l-111 -218q-2 -6 -12 -6h-34q-5 0 -7 3.5zM494 280q10 0 8 12l-86 376q-1 9 -5 9t-9 -12l-191 -372 q-6 -13 1 -13h282zM455 909q-7 5 -8 5q-2 0 -5.5 -3t-6.5 -5l-69 -48q-5 -3 -8.5 -4t-7.5 -1h-41q-6 0 -6 5q0 3 4 7l111 82q11 8 22 8h23q6 0 9.5 -4.5t5.5 -5.5l88 -83q5 -5 5 -7t-6 -2h-45q-6 0 -15 7z" />
<glyph unicode="&#xc3;" horiz-adv-x="706" d="M15 3.5q-2 3.5 0 8.5l366 720q3 6 6.5 8t10.5 2h44q7 0 11.5 -3.5t4.5 -8.5l161 -720v-3q0 -7 -8 -7h-35q-12 0 -13 10l-49 216q-1 4 -2.5 5t-5.5 1h-315q-7 0 -12 -8l-111 -218q-2 -6 -12 -6h-34q-5 0 -7 3.5zM494 280q10 0 8 12l-86 376q-1 9 -5 9t-9 -12l-191 -372 q-6 -13 1 -13h282zM540 886q-16 -5 -39 -5q-19 0 -31.5 3t-33.5 10q-28 11 -48 11q-17 0 -28.5 -4.5t-20 -9.5t-11.5 -7l-6 -1q-5 0 -6 8l-6 18q0 1 -1 4.5t2 6.5q22 12 37.5 18t35.5 6q27 0 62 -13q36 -12 57 -12q17 0 28 4t26 14l6 2q6 0 8 -8l6 -21l1 -4q0 -2 -5 -7 q-17 -8 -33 -13z" />
<glyph unicode="&#xc4;" horiz-adv-x="706" d="M15 3.5q-2 3.5 0 8.5l366 720q3 6 6.5 8t10.5 2h44q7 0 11.5 -3.5t4.5 -8.5l161 -720v-3q0 -7 -8 -7h-35q-12 0 -13 10l-49 216q-1 4 -2.5 5t-5.5 1h-315q-7 0 -12 -8l-111 -218q-2 -6 -12 -6h-34q-5 0 -7 3.5zM494 280q10 0 8 12l-86 376q-1 9 -5 9t-9 -12l-191 -372 q-6 -13 1 -13h282zM406 865q-2 -8 -4 -10t-10 -2h-32q-7 0 -9.5 3t-1.5 9l11 80q1 6 2.5 7.5t6.5 1.5h39q10 0 9 -12zM525 865q-2 -8 -4 -10t-10 -2h-32q-7 0 -9.5 3t-1.5 9l11 80q1 6 2.5 7.5t6.5 1.5h39q12 0 9 -12z" />
<glyph unicode="&#xc5;" horiz-adv-x="706" d="M15 3.5q-2 3.5 0 8.5l366 720q3 6 6.5 8t10.5 2h44q7 0 11.5 -3.5t4.5 -8.5l161 -720v-3q0 -7 -8 -7h-35q-12 0 -13 10l-49 216q-1 4 -2.5 5t-5.5 1h-315q-7 0 -12 -8l-111 -218q-2 -6 -12 -6h-34q-5 0 -7 3.5zM494 280q10 0 8 12l-86 376q-1 9 -5 9t-9 -12l-191 -372 q-6 -13 1 -13h282zM498 796.5q-34 -32.5 -80 -32.5q-40 0 -64.5 25t-24.5 64q0 45 34 78t79 33q39 0 64.5 -25t25.5 -63q0 -47 -34 -79.5zM474 909q-13 13 -35 13q-25 0 -45 -17.5t-24 -43.5q-2 -22 12.5 -39t36.5 -17q27 0 47.5 22t20.5 49q0 20 -13 33z" />
<glyph unicode="&#xc6;" horiz-adv-x="974" d="M891 39l-4 -32q-1 -5 -2.5 -6t-5.5 -1h-408q-11 0 -10 12l31 216q0 4 -5 4h-250q-8 0 -14 -8l-155 -218q-5 -6 -13 -6h-33q-5 0 -7.5 4t1.5 8l511 720q4 6 8 8t11 2h421q4 0 6 -2.5t1 -6.5l-4 -32q-2 -5 -3.5 -6t-6.5 -1h-335q-6 0 -8.5 -2t-3.5 -9l-40 -278v-2 q0 -3 2 -3.5t6 -0.5h263q4 0 6.5 -2.5t1.5 -6.5l-5 -33q0 -4 -1 -5t-6 -1h-263q-12 0 -13 -11l-39 -284q-1 -6 0 -7t6 -1h351q11 0 9 -9zM496.5 283.5q3.5 3.5 3.5 7.5l53 379v4q0 5 -3 5t-12 -12l-274 -379q-1 -2 -3 -4.5t-0.5 -3t3.5 -0.5h225q4 0 7.5 3.5z" />
<glyph unicode="&#xc7;" horiz-adv-x="698" d="M556.5 725q53.5 -27 85.5 -72.5t32 -98.5q0 -5 -1.5 -8t-6.5 -3l-42 -3q-7 0 -8 11q-7 69 -55 110.5t-121 41.5q-102 0 -169.5 -64t-98 -161.5t-30.5 -202.5q0 -235 207 -235q78 0 134.5 37.5t96.5 115.5q3 5 11 2l36 -13q6 -2 3 -10q-37 -79 -111 -129t-164 -53l-23 -46 q-1 -2 0 -2q38 -3 54.5 -20t16.5 -42q0 -41 -31.5 -63t-79.5 -22q-44 0 -74 22q-2 0 -3.5 2.5t-1.5 4.5l14 21q1 3 6 -2q18 -16 53 -16q63 0 69 44q2 23 -14.5 33t-55.5 12q-7 0 -7 6l40 69q-114 8 -174.5 82.5t-60.5 205.5q0 116 38 224.5t118.5 178.5t202.5 70 q61 0 114.5 -27z" />
<glyph unicode="&#xc8;" horiz-adv-x="616" d="M178.5 740.5q1.5 1.5 7.5 1.5h425q7 0 5 -9l-4 -30q-1 -9 -11 -9h-364q-10 0 -11 -8l-39 -281q-1 -6 6 -6h286q8 0 6 -9l-5 -32q-1 -4 -3 -5.5t-7 -1.5h-282q-5 0 -7 -2t-3 -8l-39 -285q-1 -5 0.5 -6.5t5.5 -1.5h379q10 0 9 -9l-4 -32q-1 -5 -2.5 -6t-5.5 -1h-437 q-6 0 -8.5 2.5t-1.5 9.5l102 721q1 6 2.5 7.5zM318 963l216 -95q7 -2 5 -12l-10 -16q-1 -5 -3.5 -5.5t-7.5 1.5l-217 75q-12 4 -7 15l16 35q1 4 8 2z" />
<glyph unicode="&#xc9;" horiz-adv-x="616" d="M178.5 740.5q1.5 1.5 7.5 1.5h425q7 0 5 -9l-4 -30q-1 -9 -11 -9h-364q-10 0 -11 -8l-39 -281q-1 -6 6 -6h286q8 0 6 -9l-5 -32q-1 -4 -3 -5.5t-7 -1.5h-282q-5 0 -7 -2t-3 -8l-39 -285q-1 -5 0.5 -6.5t5.5 -1.5h379q10 0 9 -9l-4 -32q-1 -5 -2.5 -6t-5.5 -1h-437 q-6 0 -8.5 2.5t-1.5 9.5l102 721q1 6 2.5 7.5zM562 923l1 -4q0 -5 -8 -8l-238 -76l-4 -1q-6 0 -8 8l-4 17q-2 8 3 10l243 94h2q5 0 7 -5z" />
<glyph unicode="&#xca;" horiz-adv-x="616" d="M178.5 740.5q1.5 1.5 7.5 1.5h425q7 0 5 -9l-4 -30q-1 -9 -11 -9h-364q-10 0 -11 -8l-39 -281q-1 -6 6 -6h286q8 0 6 -9l-5 -32q-1 -4 -3 -5.5t-7 -1.5h-282q-5 0 -7 -2t-3 -8l-39 -285q-1 -5 0.5 -6.5t5.5 -1.5h379q10 0 9 -9l-4 -32q-1 -5 -2.5 -6t-5.5 -1h-437 q-6 0 -8.5 2.5t-1.5 9.5l102 721q1 6 2.5 7.5zM446 909q-7 5 -8 5q-2 0 -5.5 -3t-6.5 -5l-69 -48q-5 -3 -8.5 -4t-7.5 -1h-41q-6 0 -6 5q0 3 4 7l111 82q11 8 22 8h23q6 0 9.5 -4.5t5.5 -5.5l88 -83q5 -5 5 -7t-6 -2h-45q-6 0 -15 7z" />
<glyph unicode="&#xcb;" horiz-adv-x="616" d="M178.5 740.5q1.5 1.5 7.5 1.5h425q7 0 5 -9l-4 -30q-1 -9 -11 -9h-364q-10 0 -11 -8l-39 -281q-1 -6 6 -6h286q8 0 6 -9l-5 -32q-1 -4 -3 -5.5t-7 -1.5h-282q-5 0 -7 -2t-3 -8l-39 -285q-1 -5 0.5 -6.5t5.5 -1.5h379q10 0 9 -9l-4 -32q-1 -5 -2.5 -6t-5.5 -1h-437 q-6 0 -8.5 2.5t-1.5 9.5l102 721q1 6 2.5 7.5zM397 865q-2 -8 -4 -10t-10 -2h-32q-7 0 -9.5 3t-1.5 9l11 80q1 6 2.5 7.5t6.5 1.5h39q10 0 9 -12zM516 865q-2 -8 -4 -10t-10 -2h-32q-7 0 -9.5 3t-1.5 9l11 80q1 6 2.5 7.5t6.5 1.5h39q12 0 9 -12z" />
<glyph unicode="&#xcc;" horiz-adv-x="278" d="M224 742q11 0 8 -12l-100 -718q-2 -8 -4 -10t-10 -2h-32q-13 0 -12 12l102 721q1 6 2.5 7.5t7.5 1.5h38zM116 963l216 -95q7 -2 5 -12l-10 -16q-1 -5 -3.5 -5.5t-7.5 1.5l-217 75q-12 4 -7 15l16 35q1 4 8 2z" />
<glyph unicode="&#xcd;" horiz-adv-x="278" d="M224 742q11 0 8 -12l-100 -718q-2 -8 -4 -10t-10 -2h-32q-13 0 -12 12l102 721q1 6 2.5 7.5t7.5 1.5h38zM360 923l1 -4q0 -5 -8 -8l-238 -76l-4 -1q-6 0 -8 8l-4 17q-2 8 3 10l243 94h2q5 0 7 -5z" />
<glyph unicode="&#xce;" horiz-adv-x="278" d="M224 742q11 0 8 -12l-100 -718q-2 -8 -4 -10t-10 -2h-32q-13 0 -12 12l102 721q1 6 2.5 7.5t7.5 1.5h38zM244 909q-7 5 -8 5q-2 0 -5.5 -3t-6.5 -5l-69 -48q-5 -3 -8.5 -4t-7.5 -1h-41q-6 0 -6 5q0 3 4 7l111 82q11 8 22 8h23q6 0 9.5 -4.5t5.5 -5.5l88 -83q5 -5 5 -7 t-6 -2h-45q-6 0 -15 7z" />
<glyph unicode="&#xcf;" horiz-adv-x="278" d="M224 742q11 0 8 -12l-100 -718q-2 -8 -4 -10t-10 -2h-32q-13 0 -12 12l102 721q1 6 2.5 7.5t7.5 1.5h38zM195 865q-2 -8 -4 -10t-10 -2h-32q-7 0 -9.5 3t-1.5 9l11 80q1 6 2.5 7.5t6.5 1.5h39q10 0 9 -12zM314 865q-2 -8 -4 -10t-10 -2h-32q-7 0 -9.5 3t-1.5 9l11 80 q1 6 2.5 7.5t6.5 1.5h39q12 0 9 -12z" />
<glyph unicode="&#xd0;" horiz-adv-x="672" d="M535.5 673q83.5 -69 83.5 -210q0 -227 -112 -345t-340 -118h-118q-5 0 -8.5 3.5t-2.5 9.5l48 336h-28q-12 0 -10 13l4 27q0 4 1.5 6t5.5 2h33l48 337q1 8 12 8h121q179 0 262.5 -69zM466 151q93 104 93 313q0 86 -32 136t-96 72t-167 22h-63q-11 0 -12 -12l-39 -285h207 q10 0 8 -10l-4 -27q-1 -7 -4 -9t-11 -2h-203l-39 -288l-1 -5q0 -9 11 -9h53q206 0 299 104z" />
<glyph unicode="&#xd1;" horiz-adv-x="755" d="M702 742q5 0 7 -2.5t1 -8.5l-101 -722q-1 -5 -2.5 -7t-6.5 -2h-23q-7 0 -11 1.5t-7 6.5l-333 615q-3 6 -7 6t-6 -9l-86 -611q-1 -5 -3 -7t-8 -2h-32q-11 0 -10 12l102 721q1 6 2.5 7.5t7.5 1.5h27q11 0 15 -9l329 -611q4 -7 9 -7q6 0 7 11l86 608q1 5 2.5 6.5t5.5 1.5h35 zM580 886q-16 -5 -39 -5q-19 0 -31.5 3t-33.5 10q-28 11 -48 11q-17 0 -28.5 -4.5t-20 -9.5t-11.5 -7l-6 -1q-5 0 -6 8l-6 18q0 1 -1 4.5t2 6.5q22 12 37.5 18t35.5 6q27 0 62 -13q36 -12 57 -12q17 0 28 4t26 14l6 2q6 0 8 -8l6 -21l1 -4q0 -2 -5 -7q-17 -8 -33 -13z" />
<glyph unicode="&#xd2;" horiz-adv-x="759" d="M150.5 63.5q-67.5 73.5 -67.5 211.5q0 47 7 95q26 184 120 283t236 99q124 0 191.5 -75t67.5 -216q0 -47 -7 -95q-25 -181 -118.5 -278.5t-236.5 -97.5q-125 0 -192.5 73.5zM640 371q7 52 7 99q0 233 -202 233q-122 0 -197 -84.5t-99 -252.5q-7 -48 -7 -94 q0 -233 205 -233q246 0 293 332zM356 963l216 -95q7 -2 5 -12l-10 -16q-1 -5 -3.5 -5.5t-7.5 1.5l-217 75q-12 4 -7 15l16 35q1 4 8 2z" />
<glyph unicode="&#xd3;" horiz-adv-x="759" d="M150.5 63.5q-67.5 73.5 -67.5 211.5q0 47 7 95q26 184 120 283t236 99q124 0 191.5 -75t67.5 -216q0 -47 -7 -95q-25 -181 -118.5 -278.5t-236.5 -97.5q-125 0 -192.5 73.5zM640 371q7 52 7 99q0 233 -202 233q-122 0 -197 -84.5t-99 -252.5q-7 -48 -7 -94 q0 -233 205 -233q246 0 293 332zM600 923l1 -4q0 -5 -8 -8l-238 -76l-4 -1q-6 0 -8 8l-4 17q-2 8 3 10l243 94h2q5 0 7 -5z" />
<glyph unicode="&#xd4;" horiz-adv-x="759" d="M150.5 63.5q-67.5 73.5 -67.5 211.5q0 47 7 95q26 184 120 283t236 99q124 0 191.5 -75t67.5 -216q0 -47 -7 -95q-25 -181 -118.5 -278.5t-236.5 -97.5q-125 0 -192.5 73.5zM640 371q7 52 7 99q0 233 -202 233q-122 0 -197 -84.5t-99 -252.5q-7 -48 -7 -94 q0 -233 205 -233q246 0 293 332zM484 909q-7 5 -8 5q-2 0 -5.5 -3t-6.5 -5l-69 -48q-5 -3 -8.5 -4t-7.5 -1h-41q-6 0 -6 5q0 3 4 7l111 82q11 8 22 8h23q6 0 9.5 -4.5t5.5 -5.5l88 -83q5 -5 5 -7t-6 -2h-45q-6 0 -15 7z" />
<glyph unicode="&#xd5;" horiz-adv-x="759" d="M150.5 63.5q-67.5 73.5 -67.5 211.5q0 47 7 95q26 184 120 283t236 99q124 0 191.5 -75t67.5 -216q0 -47 -7 -95q-25 -181 -118.5 -278.5t-236.5 -97.5q-125 0 -192.5 73.5zM640 371q7 52 7 99q0 233 -202 233q-122 0 -197 -84.5t-99 -252.5q-7 -48 -7 -94 q0 -233 205 -233q246 0 293 332zM569 886q-16 -5 -39 -5q-19 0 -31.5 3t-33.5 10q-28 11 -48 11q-17 0 -28.5 -4.5t-20 -9.5t-11.5 -7l-6 -1q-5 0 -6 8l-6 18q0 1 -1 4.5t2 6.5q22 12 37.5 18t35.5 6q27 0 62 -13q36 -12 57 -12q17 0 28 4t26 14l6 2q6 0 8 -8l6 -21l1 -4 q0 -2 -5 -7q-17 -8 -33 -13z" />
<glyph unicode="&#xd6;" horiz-adv-x="759" d="M150.5 63.5q-67.5 73.5 -67.5 211.5q0 47 7 95q26 184 120 283t236 99q124 0 191.5 -75t67.5 -216q0 -47 -7 -95q-25 -181 -118.5 -278.5t-236.5 -97.5q-125 0 -192.5 73.5zM640 371q7 52 7 99q0 233 -202 233q-122 0 -197 -84.5t-99 -252.5q-7 -48 -7 -94 q0 -233 205 -233q246 0 293 332zM435 865q-2 -8 -4 -10t-10 -2h-32q-7 0 -9.5 3t-1.5 9l11 80q1 6 2.5 7.5t6.5 1.5h39q10 0 9 -12zM554 865q-2 -8 -4 -10t-10 -2h-32q-7 0 -9.5 3t-1.5 9l11 80q1 6 2.5 7.5t6.5 1.5h39q12 0 9 -12z" />
<glyph unicode="&#xd7;" horiz-adv-x="522" d="M490 531l-183 -161l135 -156q7 -7 1 -10l-22 -20q-3 -3 -6 -3t-9 6l-133 154l-180 -159q-3 -2 -5 -1t-5 3l-17 20q-3 5 -3 7q0 4 4 8l177 156l-134 155q-3 5 -3 7.5t3 5.5l23 20q5 4 9 -2l136 -157l180 159q4 2 6 2q3 0 6 -5l18 -20q5 -7 2 -9z" />
<glyph unicode="&#xd8;" horiz-adv-x="713" d="M754 711l-100 -97q28 -60 28 -151q0 -48 -7 -97q-25 -181 -118.5 -278.5t-236.5 -97.5q-69 0 -121.5 23t-84.5 68l-84 -85q-5 -5 -9 -5q-5 0 -11 6l-17 17q-5 7 -6 10t3 7l98 95q-28 64 -28 151q0 47 7 93q26 184 119.5 283t236.5 99q68 0 120.5 -24t84.5 -69l88 88 q3 4 7 4t7 -4l23 -24q7 -6 1 -12zM121 276q0 -59 14 -106l454 451q-49 81 -168 81q-244 0 -293 -336q-7 -56 -7 -90zM621 468q0 57 -14 102l-453 -449q50 -81 170 -81q121 0 193.5 82t95.5 249q8 56 8 97z" />
<glyph unicode="&#xd9;" horiz-adv-x="704" d="M511 49.5q-70 -59.5 -196 -59.5q-113 0 -167.5 48.5t-54.5 147.5q0 25 5 65l68 481q1 6 2.5 8t6.5 2h38q12 0 9 -12l-70 -501q-3 -24 -3 -44q0 -146 171 -146q203 0 230 195l70 499q1 6 2.5 7.5t6.5 1.5h32q8 0 8 -11l-70 -498q-18 -124 -88 -183.5zM331 963l216 -95 q7 -2 5 -12l-10 -16q-1 -5 -3.5 -5.5t-7.5 1.5l-217 75q-12 4 -7 15l16 35q1 4 8 2z" />
<glyph unicode="&#xda;" horiz-adv-x="704" d="M511 49.5q-70 -59.5 -196 -59.5q-113 0 -167.5 48.5t-54.5 147.5q0 25 5 65l68 481q1 6 2.5 8t6.5 2h38q12 0 9 -12l-70 -501q-3 -24 -3 -44q0 -146 171 -146q203 0 230 195l70 499q1 6 2.5 7.5t6.5 1.5h32q8 0 8 -11l-70 -498q-18 -124 -88 -183.5zM575 923l1 -4 q0 -5 -8 -8l-238 -76l-4 -1q-6 0 -8 8l-4 17q-2 8 3 10l243 94h2q5 0 7 -5z" />
<glyph unicode="&#xdb;" horiz-adv-x="704" d="M511 49.5q-70 -59.5 -196 -59.5q-113 0 -167.5 48.5t-54.5 147.5q0 25 5 65l68 481q1 6 2.5 8t6.5 2h38q12 0 9 -12l-70 -501q-3 -24 -3 -44q0 -146 171 -146q203 0 230 195l70 499q1 6 2.5 7.5t6.5 1.5h32q8 0 8 -11l-70 -498q-18 -124 -88 -183.5zM459 909q-7 5 -8 5 q-2 0 -5.5 -3t-6.5 -5l-69 -48q-5 -3 -8.5 -4t-7.5 -1h-41q-6 0 -6 5q0 3 4 7l111 82q11 8 22 8h23q6 0 9.5 -4.5t5.5 -5.5l88 -83q5 -5 5 -7t-6 -2h-45q-6 0 -15 7z" />
<glyph unicode="&#xdc;" horiz-adv-x="704" d="M511 49.5q-70 -59.5 -196 -59.5q-113 0 -167.5 48.5t-54.5 147.5q0 25 5 65l68 481q1 6 2.5 8t6.5 2h38q12 0 9 -12l-70 -501q-3 -24 -3 -44q0 -146 171 -146q203 0 230 195l70 499q1 6 2.5 7.5t6.5 1.5h32q8 0 8 -11l-70 -498q-18 -124 -88 -183.5zM410 865 q-2 -8 -4 -10t-10 -2h-32q-7 0 -9.5 3t-1.5 9l11 80q1 6 2.5 7.5t6.5 1.5h39q10 0 9 -12zM529 865q-2 -8 -4 -10t-10 -2h-32q-7 0 -9.5 3t-1.5 9l11 80q1 6 2.5 7.5t6.5 1.5h39q12 0 9 -12z" />
<glyph unicode="&#xdd;" horiz-adv-x="647" d="M666.5 738q1.5 -4 -2.5 -9l-296 -403q-6 -10 -7 -23l-42 -290q-1 -7 -4.5 -10t-12.5 -3h-31q-6 0 -8 3t-1 10l40 283l1 10q0 5 -3 11l-185 413q-2 3 -2 7q0 5 9 5h35q7 0 10.5 -2.5t5.5 -8.5l155 -349q4 -10 10 -10t13 10l254 352q4 5 7 6.5t11 1.5h37q5 0 6.5 -4z M538 923l1 -4q0 -5 -8 -8l-238 -76l-4 -1q-6 0 -8 8l-4 17q-2 8 3 10l243 94h2q5 0 7 -5z" />
<glyph unicode="&#xde;" horiz-adv-x="677" d="M542.5 229.5q-76.5 -49.5 -196.5 -49.5h-181q-9 0 -11 -11l-22 -160q-2 -5 -4 -7t-6 -2h-39q-4 0 -7 3t-2 7l102 723q1 6 2.5 7.5t7.5 1.5h38q11 0 8 -12l-19 -145q-1 -4 4 -4h175q113 0 178.5 -41t65.5 -122q0 -21 -2 -32q-15 -107 -91.5 -156.5zM578 416q0 63 -48.5 90 t-142.5 27h-170q-12 0 -13 -10l-41 -287v-4q0 -3 1.5 -4t4.5 -1h179q97 0 156.5 40t71.5 125q2 16 2 24z" />
<glyph unicode="&#xdf;" horiz-adv-x="588" d="M485 709.5q34 -32.5 34 -81.5q0 -46 -18 -74t-40.5 -41.5t-74.5 -39.5q-40 -20 -57 -30t-25.5 -22t-8.5 -32q0 -17 13 -26t52 -23q46 -15 78 -30t57.5 -46t25.5 -80q0 -9 -2 -27q-12 -79 -71.5 -123t-139.5 -44q-36 0 -72 9t-57 24q-6 2 -7.5 4.5t0.5 6.5l22 28 q2 2 4.5 0.5t4.5 -3.5q24 -13 46 -19.5t53 -6.5q69 0 113.5 33.5t53.5 91.5q1 7 1 19q0 34 -17 55.5t-41.5 34t-67.5 27.5q-31 9 -50 17.5t-33 25.5t-14 45q0 43 25 69.5t89 58.5q6 3 36.5 17t48.5 35.5t22 49.5q1 4 1 13q0 35 -26.5 54.5t-74.5 19.5q-70 0 -117.5 -42.5 t-59.5 -122.5l-74 -524q0 -6 -1.5 -8t-6.5 -2h-33q-4 0 -6.5 3t-1.5 7l65 468v4q0 3 -1.5 4t-4.5 1h-59q-7 0 -7 8l4 27q0 6 6 6h61q7 0 9 11q13 94 77 148.5t159 54.5q74 0 108 -32.5z" />
<glyph unicode="&#xe0;" horiz-adv-x="540" d="M179 -10q-72 0 -112.5 33.5t-40.5 90.5q0 95 79 140.5t197 55.5l100 8q8 1 14 5t7 11l4 30q2 16 2 24q0 51 -33.5 80t-91.5 29q-50 0 -93 -22.5t-83 -68.5q-6 -6 -11 -2l-29 16q-3 2 -3 5q0 2 3 8q39 49 95 78t125 29q81 0 125.5 -38t44.5 -106q0 -10 -2 -30l-50 -356 q-1 -6 -3 -8t-8 -2h-25q-12 0 -10 11l7 58q0 6 -2 6q-3 0 -8 -7q-91 -78 -198 -78zM412 265v4q0 6 -2 8t-9 1l-85 -7q-237 -18 -237 -151q0 -40 30 -63t83 -23q36 0 72 13t66 35q30 21 48.5 44.5t21.5 45.5zM212 751l216 -95q7 -2 5 -12l-10 -16q-1 -5 -3.5 -5.5t-7.5 1.5 l-217 75q-12 4 -7 15l16 35q1 4 8 2z" />
<glyph unicode="&#xe1;" horiz-adv-x="540" d="M179 -10q-72 0 -112.5 33.5t-40.5 90.5q0 95 79 140.5t197 55.5l100 8q8 1 14 5t7 11l4 30q2 16 2 24q0 51 -33.5 80t-91.5 29q-50 0 -93 -22.5t-83 -68.5q-6 -6 -11 -2l-29 16q-3 2 -3 5q0 2 3 8q39 49 95 78t125 29q81 0 125.5 -38t44.5 -106q0 -10 -2 -30l-50 -356 q-1 -6 -3 -8t-8 -2h-25q-12 0 -10 11l7 58q0 6 -2 6q-3 0 -8 -7q-91 -78 -198 -78zM412 265v4q0 6 -2 8t-9 1l-85 -7q-237 -18 -237 -151q0 -40 30 -63t83 -23q36 0 72 13t66 35q30 21 48.5 44.5t21.5 45.5zM456 711l1 -4q0 -5 -8 -8l-238 -76l-4 -1q-6 0 -8 8l-4 17 q-2 8 3 10l243 94h2q5 0 7 -5z" />
<glyph unicode="&#xe2;" horiz-adv-x="540" d="M179 -10q-72 0 -112.5 33.5t-40.5 90.5q0 95 79 140.5t197 55.5l100 8q8 1 14 5t7 11l4 30q2 16 2 24q0 51 -33.5 80t-91.5 29q-50 0 -93 -22.5t-83 -68.5q-6 -6 -11 -2l-29 16q-3 2 -3 5q0 2 3 8q39 49 95 78t125 29q81 0 125.5 -38t44.5 -106q0 -10 -2 -30l-50 -356 q-1 -6 -3 -8t-8 -2h-25q-12 0 -10 11l7 58q0 6 -2 6q-3 0 -8 -7q-91 -78 -198 -78zM412 265v4q0 6 -2 8t-9 1l-85 -7q-237 -18 -237 -151q0 -40 30 -63t83 -23q36 0 72 13t66 35q30 21 48.5 44.5t21.5 45.5zM340 697q-7 5 -8 5q-2 0 -5.5 -3t-6.5 -5l-69 -48q-5 -3 -8.5 -4 t-7.5 -1h-41q-6 0 -6 5q0 3 4 7l111 82q11 8 22 8h23q6 0 9.5 -4.5t5.5 -5.5l88 -83q5 -5 5 -7t-6 -2h-45q-6 0 -15 7z" />
<glyph unicode="&#xe3;" horiz-adv-x="540" d="M179 -10q-72 0 -112.5 33.5t-40.5 90.5q0 95 79 140.5t197 55.5l100 8q8 1 14 5t7 11l4 30q2 16 2 24q0 51 -33.5 80t-91.5 29q-50 0 -93 -22.5t-83 -68.5q-6 -6 -11 -2l-29 16q-3 2 -3 5q0 2 3 8q39 49 95 78t125 29q81 0 125.5 -38t44.5 -106q0 -10 -2 -30l-50 -356 q-1 -6 -3 -8t-8 -2h-25q-12 0 -10 11l7 58q0 6 -2 6q-3 0 -8 -7q-91 -78 -198 -78zM412 265v4q0 6 -2 8t-9 1l-85 -7q-237 -18 -237 -151q0 -40 30 -63t83 -23q36 0 72 13t66 35q30 21 48.5 44.5t21.5 45.5zM425 674q-16 -5 -39 -5q-19 0 -31.5 3t-33.5 10q-28 11 -48 11 q-17 0 -28.5 -4.5t-20 -9.5t-11.5 -7l-6 -1q-5 0 -6 8l-6 18q0 1 -1 4.5t2 6.5q22 12 37.5 18t35.5 6q27 0 62 -13q36 -12 57 -12q17 0 28 4t26 14l6 2q6 0 8 -8l6 -21l1 -4q0 -2 -5 -7q-17 -8 -33 -13z" />
<glyph unicode="&#xe4;" horiz-adv-x="540" d="M179 -10q-72 0 -112.5 33.5t-40.5 90.5q0 95 79 140.5t197 55.5l100 8q8 1 14 5t7 11l4 30q2 16 2 24q0 51 -33.5 80t-91.5 29q-50 0 -93 -22.5t-83 -68.5q-6 -6 -11 -2l-29 16q-3 2 -3 5q0 2 3 8q39 49 95 78t125 29q81 0 125.5 -38t44.5 -106q0 -10 -2 -30l-50 -356 q-1 -6 -3 -8t-8 -2h-25q-12 0 -10 11l7 58q0 6 -2 6q-3 0 -8 -7q-91 -78 -198 -78zM412 265v4q0 6 -2 8t-9 1l-85 -7q-237 -18 -237 -151q0 -40 30 -63t83 -23q36 0 72 13t66 35q30 21 48.5 44.5t21.5 45.5zM291 653q-2 -8 -4 -10t-10 -2h-32q-7 0 -9.5 3t-1.5 9l11 80 q1 6 2.5 7.5t6.5 1.5h39q10 0 9 -12zM410 653q-2 -8 -4 -10t-10 -2h-32q-7 0 -9.5 3t-1.5 9l11 80q1 6 2.5 7.5t6.5 1.5h39q12 0 9 -12z" />
<glyph unicode="&#xe5;" horiz-adv-x="540" d="M179 -10q-72 0 -112.5 33.5t-40.5 90.5q0 95 79 140.5t197 55.5l100 8q8 1 14 5t7 11l4 30q2 16 2 24q0 51 -33.5 80t-91.5 29q-50 0 -93 -22.5t-83 -68.5q-6 -6 -11 -2l-29 16q-3 2 -3 5q0 2 3 8q39 49 95 78t125 29q81 0 125.5 -38t44.5 -106q0 -10 -2 -30l-50 -356 q-1 -6 -3 -8t-8 -2h-25q-12 0 -10 11l7 58q0 6 -2 6q-3 0 -8 -7q-91 -78 -198 -78zM412 265v4q0 6 -2 8t-9 1l-85 -7q-237 -18 -237 -151q0 -40 30 -63t83 -23q36 0 72 13t66 35q30 21 48.5 44.5t21.5 45.5zM397 632.5q-34 -32.5 -80 -32.5q-40 0 -64.5 25t-24.5 64 q0 45 34 78t79 33q39 0 64.5 -25t25.5 -63q0 -47 -34 -79.5zM373 745q-13 13 -35 13q-25 0 -45 -17.5t-24 -43.5q-2 -22 12.5 -39t36.5 -17q27 0 47.5 22t20.5 49q0 20 -13 33z" />
<glyph unicode="&#xe6;" horiz-adv-x="928" d="M457.5 246.5q-4.5 -5.5 -6.5 -22.5q-2 -16 -2 -23q0 -42 21.5 -80.5t59.5 -62.5t86 -24q67 0 108 25.5t77 67.5q4 3 6 3t3.5 -1t2.5 -2l24 -16q7 -3 2 -12q-34 -49 -96 -79t-133 -30q-79 0 -120.5 34t-68.5 84q-4 3 -6 -5q-33 -33 -62 -55.5t-74.5 -40t-103.5 -17.5 q-71 0 -110.5 33t-39.5 90q0 85 66.5 135.5t200.5 60.5l108 9q8 1 14.5 5t7.5 11l4 30q2 16 2 24q0 52 -33.5 80.5t-96.5 28.5q-91 0 -172 -92q-4 -3 -6 -3t-6 2l-27 16q-3 2 -3 5q0 4 3 8q38 51 96.5 79t124.5 28q146 0 160 -114q38 57 93.5 85.5t124.5 28.5 q93 0 146.5 -55.5t53.5 -157.5q0 -30 -4 -57q-2 -9 -6 -13t-14 -5h-387q-13 0 -17.5 -5.5zM581.5 471.5q-47.5 -25.5 -79 -72.5t-39.5 -107l352 1q11 0 14.5 4t5.5 14q2 20 2 28q0 68 -42.5 113t-112.5 45q-53 0 -100.5 -25.5zM412 269q0 5 -3 6.5t-10 0.5l-91 -6 q-229 -19 -229 -151q0 -39 26 -62t75 -23q54 0 102.5 19.5t80.5 52.5t37 71l11 86z" />
<glyph unicode="&#xe7;" horiz-adv-x="538" d="M515 415l-32 -13l-2 -1q-3 0 -8 9q-32 47 -64 67t-73 20q-71 0 -124 -41t-81.5 -106t-28.5 -136q0 -84 43.5 -132.5t120.5 -48.5q51 0 94.5 25t82.5 76q4 4 6 4t5 -3l25 -15q3 -2 4.5 -5t-0.5 -7q-41 -55 -95 -85t-117 -33l-23 -46q-1 -2 0 -2q38 -3 54.5 -20t16.5 -42 q0 -41 -31.5 -63t-79.5 -22q-44 0 -74 22q-2 0 -3.5 2.5t-1.5 4.5l14 21q1 3 6 -2q18 -16 53 -16q63 0 69 44q2 23 -14.5 33t-55.5 12q-7 0 -7 6l40 69q-86 8 -135 68t-49 154q0 81 34 156.5t98.5 123t150.5 47.5q127 0 183 -113q6 -9 -1 -12z" />
<glyph unicode="&#xe8;" horiz-adv-x="578" d="M107.5 50.5q-57.5 60.5 -57.5 161.5q0 84 34.5 159.5t99.5 122t152 46.5q94 0 146.5 -55.5t52.5 -155.5q0 -31 -4 -59q-2 -18 -19 -18h-400q-7 0 -9.5 -8.5t-2.5 -36.5q0 -78 46.5 -125.5t119.5 -47.5q115 0 185 92q3 4 5.5 4t6.5 -3l25 -16q3 -2 3.5 -5t-1.5 -7 q-44 -55 -100 -82t-127 -27q-98 0 -155.5 60.5zM465 292q12 0 17.5 9.5t5.5 38.5q0 71 -42.5 114t-112.5 43q-61 0 -109 -30t-77.5 -77t-35.5 -98h354zM241 751l216 -95q7 -2 5 -12l-10 -16q-1 -5 -3.5 -5.5t-7.5 1.5l-217 75q-12 4 -7 15l16 35q1 4 8 2z" />
<glyph unicode="&#xe9;" horiz-adv-x="578" d="M107.5 50.5q-57.5 60.5 -57.5 161.5q0 84 34.5 159.5t99.5 122t152 46.5q94 0 146.5 -55.5t52.5 -155.5q0 -31 -4 -59q-2 -18 -19 -18h-400q-7 0 -9.5 -8.5t-2.5 -36.5q0 -78 46.5 -125.5t119.5 -47.5q115 0 185 92q3 4 5.5 4t6.5 -3l25 -16q3 -2 3.5 -5t-1.5 -7 q-44 -55 -100 -82t-127 -27q-98 0 -155.5 60.5zM465 292q12 0 17.5 9.5t5.5 38.5q0 71 -42.5 114t-112.5 43q-61 0 -109 -30t-77.5 -77t-35.5 -98h354zM485 711l1 -4q0 -5 -8 -8l-238 -76l-4 -1q-6 0 -8 8l-4 17q-2 8 3 10l243 94h2q5 0 7 -5z" />
<glyph unicode="&#xea;" horiz-adv-x="578" d="M107.5 50.5q-57.5 60.5 -57.5 161.5q0 84 34.5 159.5t99.5 122t152 46.5q94 0 146.5 -55.5t52.5 -155.5q0 -31 -4 -59q-2 -18 -19 -18h-400q-7 0 -9.5 -8.5t-2.5 -36.5q0 -78 46.5 -125.5t119.5 -47.5q115 0 185 92q3 4 5.5 4t6.5 -3l25 -16q3 -2 3.5 -5t-1.5 -7 q-44 -55 -100 -82t-127 -27q-98 0 -155.5 60.5zM465 292q12 0 17.5 9.5t5.5 38.5q0 71 -42.5 114t-112.5 43q-61 0 -109 -30t-77.5 -77t-35.5 -98h354zM369 697q-7 5 -8 5q-2 0 -5.5 -3t-6.5 -5l-69 -48q-5 -3 -8.5 -4t-7.5 -1h-41q-6 0 -6 5q0 3 4 7l111 82q11 8 22 8h23 q6 0 9.5 -4.5t5.5 -5.5l88 -83q5 -5 5 -7t-6 -2h-45q-6 0 -15 7z" />
<glyph unicode="&#xeb;" horiz-adv-x="578" d="M107.5 50.5q-57.5 60.5 -57.5 161.5q0 84 34.5 159.5t99.5 122t152 46.5q94 0 146.5 -55.5t52.5 -155.5q0 -31 -4 -59q-2 -18 -19 -18h-400q-7 0 -9.5 -8.5t-2.5 -36.5q0 -78 46.5 -125.5t119.5 -47.5q115 0 185 92q3 4 5.5 4t6.5 -3l25 -16q3 -2 3.5 -5t-1.5 -7 q-44 -55 -100 -82t-127 -27q-98 0 -155.5 60.5zM465 292q12 0 17.5 9.5t5.5 38.5q0 71 -42.5 114t-112.5 43q-61 0 -109 -30t-77.5 -77t-35.5 -98h354zM320 653q-2 -8 -4 -10t-10 -2h-32q-7 0 -9.5 3t-1.5 9l11 80q1 6 2.5 7.5t6.5 1.5h39q10 0 9 -12zM439 653q-2 -8 -4 -10 t-10 -2h-32q-7 0 -9.5 3t-1.5 9l11 80q1 6 2.5 7.5t6.5 1.5h39q12 0 9 -12z" />
<glyph unicode="&#xec;" horiz-adv-x="226" d="M102 12q-1 -8 -3 -10t-10 -2h-25q-13 0 -12 12l72 509q1 6 2.5 7.5t6.5 1.5h31q12 0 10 -12zM57 751l216 -95q7 -2 5 -12l-10 -16q-1 -5 -3.5 -5.5t-7.5 1.5l-217 75q-12 4 -7 15l16 35q1 4 8 2z" />
<glyph unicode="&#xed;" horiz-adv-x="226" d="M102 12q-1 -8 -3 -10t-10 -2h-25q-13 0 -12 12l72 509q1 6 2.5 7.5t6.5 1.5h31q12 0 10 -12zM301 711l1 -4q0 -5 -8 -8l-238 -76l-4 -1q-6 0 -8 8l-4 17q-2 8 3 10l243 94h2q5 0 7 -5z" />
<glyph unicode="&#xee;" horiz-adv-x="226" d="M102 12q-1 -8 -3 -10t-10 -2h-25q-13 0 -12 12l72 509q1 6 2.5 7.5t6.5 1.5h31q12 0 10 -12zM185 697q-7 5 -8 5q-2 0 -5.5 -3t-6.5 -5l-69 -48q-5 -3 -8.5 -4t-7.5 -1h-41q-6 0 -6 5q0 3 4 7l111 82q11 8 22 8h23q6 0 9.5 -4.5t5.5 -5.5l88 -83q5 -5 5 -7t-6 -2h-45 q-6 0 -15 7z" />
<glyph unicode="&#xef;" horiz-adv-x="226" d="M102 12q-1 -8 -3 -10t-10 -2h-25q-13 0 -12 12l72 509q1 6 2.5 7.5t6.5 1.5h31q12 0 10 -12zM136 653q-2 -8 -4 -10t-10 -2h-32q-7 0 -9.5 3t-1.5 9l11 80q1 6 2.5 7.5t6.5 1.5h39q10 0 9 -12zM255 653q-2 -8 -4 -10t-10 -2h-32q-7 0 -9.5 3t-1.5 9l11 80q1 6 2.5 7.5 t6.5 1.5h39q12 0 9 -12z" />
<glyph unicode="&#xf0;" horiz-adv-x="598" d="M494 117q-38 -60 -98 -93.5t-135 -33.5q-98 0 -155 60t-57 159q0 22 3 46q11 76 49.5 136.5t97 94.5t125.5 34q97 0 156 -64q-34 114 -136 190l-177 -94l-4 -1q-5 0 -9 7l-7 15q-4 8 1 11l163 85q-42 25 -102 52q-5 1 -6 4.5t3 7.5l25 15q5 3 9 3q3 0 8 -3 q56 -21 109 -56l110 59q3 1 6.5 0t3.5 -3l9 -23q0 -1 1.5 -3.5t-1.5 -5.5l-96 -48q83 -63 121 -144t38 -182q0 -43 -6 -88q-11 -77 -49 -137zM370 63.5q48 29.5 80.5 80.5t40.5 113q3 20 3 37q0 80 -44.5 131.5t-117.5 51.5q-55 0 -104 -30t-82 -81.5t-42 -113.5 q-3 -19 -3 -37q0 -79 45.5 -130t119.5 -51q56 0 104 29.5z" />
<glyph unicode="&#xf1;" horiz-adv-x="578" d="M54 3q-3 3 -2 8l72 510q1 5 2.5 7t5.5 2h31q10 0 8 -9l-9 -61q-1 -6 0.5 -7t6.5 3q55 42 103.5 63t99.5 21q70 0 107.5 -33t37.5 -90q0 -8 -2 -26l-54 -381q-1 -10 -10 -10h-31q-4 0 -7 3t-2 8l52 365q2 20 2 29q0 91 -102 91q-48 0 -90 -20t-115 -71l-56 -396 q-1 -5 -3 -7t-8 -2h-29q-5 0 -8 3zM460 674q-16 -5 -39 -5q-19 0 -31.5 3t-33.5 10q-28 11 -48 11q-17 0 -28.5 -4.5t-20 -9.5t-11.5 -7l-6 -1q-5 0 -6 8l-6 18q0 1 -1 4.5t2 6.5q22 12 37.5 18t35.5 6q27 0 62 -13q36 -12 57 -12q17 0 28 4t26 14l6 2q6 0 8 -8l6 -21l1 -4 q0 -2 -5 -7q-17 -8 -33 -13z" />
<glyph unicode="&#xf2;" horiz-adv-x="598" d="M107 50.5q-57 60.5 -57 161.5q0 93 38.5 168t104 117.5t144.5 42.5q97 0 153.5 -62.5t56.5 -165.5q0 -92 -38 -165.5t-103 -115t-144 -41.5q-98 0 -155 60.5zM383.5 69.5q52.5 35.5 82.5 100t30 147.5t-43 131.5t-118 48.5q-65 0 -118 -36.5t-84 -101.5t-31 -146 q0 -83 43.5 -131t120.5 -48q65 0 117.5 35.5zM245 751l216 -95q7 -2 5 -12l-10 -16q-1 -5 -3.5 -5.5t-7.5 1.5l-217 75q-12 4 -7 15l16 35q1 4 8 2z" />
<glyph unicode="&#xf3;" horiz-adv-x="598" d="M107 50.5q-57 60.5 -57 161.5q0 93 38.5 168t104 117.5t144.5 42.5q97 0 153.5 -62.5t56.5 -165.5q0 -92 -38 -165.5t-103 -115t-144 -41.5q-98 0 -155 60.5zM383.5 69.5q52.5 35.5 82.5 100t30 147.5t-43 131.5t-118 48.5q-65 0 -118 -36.5t-84 -101.5t-31 -146 q0 -83 43.5 -131t120.5 -48q65 0 117.5 35.5zM489 711l1 -4q0 -5 -8 -8l-238 -76l-4 -1q-6 0 -8 8l-4 17q-2 8 3 10l243 94h2q5 0 7 -5z" />
<glyph unicode="&#xf4;" horiz-adv-x="598" d="M107 50.5q-57 60.5 -57 161.5q0 93 38.5 168t104 117.5t144.5 42.5q97 0 153.5 -62.5t56.5 -165.5q0 -92 -38 -165.5t-103 -115t-144 -41.5q-98 0 -155 60.5zM383.5 69.5q52.5 35.5 82.5 100t30 147.5t-43 131.5t-118 48.5q-65 0 -118 -36.5t-84 -101.5t-31 -146 q0 -83 43.5 -131t120.5 -48q65 0 117.5 35.5zM373 697q-7 5 -8 5q-2 0 -5.5 -3t-6.5 -5l-69 -48q-5 -3 -8.5 -4t-7.5 -1h-41q-6 0 -6 5q0 3 4 7l111 82q11 8 22 8h23q6 0 9.5 -4.5t5.5 -5.5l88 -83q5 -5 5 -7t-6 -2h-45q-6 0 -15 7z" />
<glyph unicode="&#xf5;" horiz-adv-x="598" d="M107 50.5q-57 60.5 -57 161.5q0 93 38.5 168t104 117.5t144.5 42.5q97 0 153.5 -62.5t56.5 -165.5q0 -92 -38 -165.5t-103 -115t-144 -41.5q-98 0 -155 60.5zM383.5 69.5q52.5 35.5 82.5 100t30 147.5t-43 131.5t-118 48.5q-65 0 -118 -36.5t-84 -101.5t-31 -146 q0 -83 43.5 -131t120.5 -48q65 0 117.5 35.5zM458 674q-16 -5 -39 -5q-19 0 -31.5 3t-33.5 10q-28 11 -48 11q-17 0 -28.5 -4.5t-20 -9.5t-11.5 -7l-6 -1q-5 0 -6 8l-6 18q0 1 -1 4.5t2 6.5q22 12 37.5 18t35.5 6q27 0 62 -13q36 -12 57 -12q17 0 28 4t26 14l6 2q6 0 8 -8 l6 -21l1 -4q0 -2 -5 -7q-17 -8 -33 -13z" />
<glyph unicode="&#xf6;" horiz-adv-x="598" d="M107 50.5q-57 60.5 -57 161.5q0 93 38.5 168t104 117.5t144.5 42.5q97 0 153.5 -62.5t56.5 -165.5q0 -92 -38 -165.5t-103 -115t-144 -41.5q-98 0 -155 60.5zM383.5 69.5q52.5 35.5 82.5 100t30 147.5t-43 131.5t-118 48.5q-65 0 -118 -36.5t-84 -101.5t-31 -146 q0 -83 43.5 -131t120.5 -48q65 0 117.5 35.5zM324 653q-2 -8 -4 -10t-10 -2h-32q-7 0 -9.5 3t-1.5 9l11 80q1 6 2.5 7.5t6.5 1.5h39q10 0 9 -12zM443 653q-2 -8 -4 -10t-10 -2h-32q-7 0 -9.5 3t-1.5 9l11 80q1 6 2.5 7.5t6.5 1.5h39q12 0 9 -12z" />
<glyph unicode="&#xf7;" horiz-adv-x="545" d="M351 503q-2 -6 -4.5 -8t-9.5 -2h-64q-12 0 -11 12l10 65q1 8 7 8h74q8 0 7 -10zM489 359q0 -5 -2 -6.5t-8 -1.5l-389 -1q-9 0 -9 9l5 29q1 6 5 6l395 1q8 0 8 -8zM305 178q-2 -7 -4.5 -9t-10.5 -2h-63q-12 0 -10 12l8 65q2 8 8 8h74q8 0 7 -10z" />
<glyph unicode="&#xf8;" horiz-adv-x="577" d="M590.5 500.5q0.5 -3.5 -4.5 -6.5l-74 -64q24 -51 24 -118q0 -92 -38 -165.5t-103 -115t-144 -41.5q-107 0 -165 72l-68 -59q-4 -3 -8 -3q-5 0 -10 6l-9 12q-5 7 -5 10q0 6 6 10l71 61q-24 48 -24 113q0 93 38.5 168t104 117.5t144.5 42.5q53 0 94.5 -19t68.5 -55l68 59 q4 4 8 4q5 0 9 -6l12 -15q4 -4 4.5 -7.5zM104 134l349 301q-43 62 -129 62q-65 0 -118 -36.5t-84 -101.5t-31 -146q0 -46 13 -79zM473 396l-349 -301q21 -30 54.5 -45.5t76.5 -15.5q65 0 117.5 35.5t82.5 100t30 147.5q0 45 -12 79z" />
<glyph unicode="&#xf9;" horiz-adv-x="573" d="M101.5 25q-40.5 35 -40.5 93q0 14 1 22l54 380q1 6 3 8t7 2h30q5 0 8 -3t2 -8l-51 -360q-2 -18 -2 -25q0 -100 101 -100q48 0 96.5 26t105.5 77l55 384q1 5 3 7t7 2h30q5 0 8 -3t2 -8l-72 -510q-1 -6 -2.5 -7.5t-6.5 -1.5h-29q-10 0 -9 9l9 60v3q0 6 -8 1 q-65 -47 -110 -65t-86 -18q-65 0 -105.5 35zM214 751l216 -95q7 -2 5 -12l-10 -16q-1 -5 -3.5 -5.5t-7.5 1.5l-217 75q-12 4 -7 15l16 35q1 4 8 2z" />
<glyph unicode="&#xfa;" horiz-adv-x="573" d="M101.5 25q-40.5 35 -40.5 93q0 14 1 22l54 380q1 6 3 8t7 2h30q5 0 8 -3t2 -8l-51 -360q-2 -18 -2 -25q0 -100 101 -100q48 0 96.5 26t105.5 77l55 384q1 5 3 7t7 2h30q5 0 8 -3t2 -8l-72 -510q-1 -6 -2.5 -7.5t-6.5 -1.5h-29q-10 0 -9 9l9 60v3q0 6 -8 1 q-65 -47 -110 -65t-86 -18q-65 0 -105.5 35zM458 711l1 -4q0 -5 -8 -8l-238 -76l-4 -1q-6 0 -8 8l-4 17q-2 8 3 10l243 94h2q5 0 7 -5z" />
<glyph unicode="&#xfb;" horiz-adv-x="573" d="M101.5 25q-40.5 35 -40.5 93q0 14 1 22l54 380q1 6 3 8t7 2h30q5 0 8 -3t2 -8l-51 -360q-2 -18 -2 -25q0 -100 101 -100q48 0 96.5 26t105.5 77l55 384q1 5 3 7t7 2h30q5 0 8 -3t2 -8l-72 -510q-1 -6 -2.5 -7.5t-6.5 -1.5h-29q-10 0 -9 9l9 60v3q0 6 -8 1 q-65 -47 -110 -65t-86 -18q-65 0 -105.5 35zM342 697q-7 5 -8 5q-2 0 -5.5 -3t-6.5 -5l-69 -48q-5 -3 -8.5 -4t-7.5 -1h-41q-6 0 -6 5q0 3 4 7l111 82q11 8 22 8h23q6 0 9.5 -4.5t5.5 -5.5l88 -83q5 -5 5 -7t-6 -2h-45q-6 0 -15 7z" />
<glyph unicode="&#xfc;" horiz-adv-x="573" d="M101.5 25q-40.5 35 -40.5 93q0 14 1 22l54 380q1 6 3 8t7 2h30q5 0 8 -3t2 -8l-51 -360q-2 -18 -2 -25q0 -100 101 -100q48 0 96.5 26t105.5 77l55 384q1 5 3 7t7 2h30q5 0 8 -3t2 -8l-72 -510q-1 -6 -2.5 -7.5t-6.5 -1.5h-29q-10 0 -9 9l9 60v3q0 6 -8 1 q-65 -47 -110 -65t-86 -18q-65 0 -105.5 35zM293 653q-2 -8 -4 -10t-10 -2h-32q-7 0 -9.5 3t-1.5 9l11 80q1 6 2.5 7.5t6.5 1.5h39q10 0 9 -12zM412 653q-2 -8 -4 -10t-10 -2h-32q-7 0 -9.5 3t-1.5 9l11 80q1 6 2.5 7.5t6.5 1.5h39q12 0 9 -12z" />
<glyph unicode="&#xfd;" horiz-adv-x="513" d="M18.5 -165q-19.5 0 -27 2t-6.5 8l3 20q1 7 8 10t24 3h57q27 0 53.5 23.5t43.5 57t17 60.5q0 6 -2 16l-123 481l-1 5q0 9 10 9h34q10 0 11 -7l109 -432q2 -9 6 -9q6 0 11 11l226 428q3 9 12 9h30q8 0 3 -9l-311 -590q-27 -52 -66.5 -74t-94.5 -22h-26.5zM447 711l1 -4 q0 -5 -8 -8l-238 -76l-4 -1q-6 0 -8 8l-4 17q-2 8 3 10l243 94h2q5 0 7 -5z" />
<glyph unicode="&#xfe;" horiz-adv-x="590" d="M201 729l-37 -261v-3q0 -5 2 -5q3 0 9 8q3 3 25 22.5t61.5 34.5t84.5 15q88 0 141.5 -54t53.5 -155q0 -31 -4 -59q-12 -85 -50 -148.5t-96 -98.5t-129 -35q-47 0 -82.5 15t-55.5 37q-5 4 -10 4q-7 0 -9 -14l-26 -188q-1 -6 -2.5 -7.5t-6.5 -1.5h-32q-4 0 -7 3t-2 8 l124 884q2 8 4.5 10t9.5 2h24q12 0 10 -13zM181 51.5q35 -18.5 77 -18.5q56 0 104 29t80.5 83.5t42.5 128.5q4 24 4 51q0 85 -43.5 128.5t-111.5 43.5q-46 0 -86.5 -21t-66 -52t-29.5 -61l-38 -257q32 -36 67 -54.5z" />
<glyph unicode="&#xff;" horiz-adv-x="513" d="M18.5 -165q-19.5 0 -27 2t-6.5 8l3 20q1 7 8 10t24 3h57q27 0 53.5 23.5t43.5 57t17 60.5q0 6 -2 16l-123 481l-1 5q0 9 10 9h34q10 0 11 -7l109 -432q2 -9 6 -9q6 0 11 11l226 428q3 9 12 9h30q8 0 3 -9l-311 -590q-27 -52 -66.5 -74t-94.5 -22h-26.5zM282 653 q-2 -8 -4 -10t-10 -2h-32q-7 0 -9.5 3t-1.5 9l11 80q1 6 2.5 7.5t6.5 1.5h39q10 0 9 -12zM401 653q-2 -8 -4 -10t-10 -2h-32q-7 0 -9.5 3t-1.5 9l11 80q1 6 2.5 7.5t6.5 1.5h39q12 0 9 -12z" />
<glyph unicode="&#x131;" horiz-adv-x="226" d="M102 12q-1 -8 -3 -10t-10 -2h-25q-13 0 -12 12l72 509q1 6 2.5 7.5t6.5 1.5h31q12 0 10 -12z" />
<glyph unicode="&#x152;" horiz-adv-x="1123" d="M1040 39l-4 -32q-1 -5 -2.5 -6t-5.5 -1h-423q-10 0 -9 10l14 120q-46 -69 -113.5 -104.5t-152.5 -35.5q-126 0 -193.5 73t-67.5 213q0 46 7 94q26 184 120 283t238 99q85 0 143.5 -36.5t84.5 -107.5l21 126q1 5 3 6.5t7 1.5h408q4 0 6.5 -2.5t1.5 -6.5l-5 -32 q-1 -5 -2.5 -6t-6.5 -1h-354q-6 0 -9 -2.5t-4 -8.5l-39 -278v-3q0 -2 2 -2.5t6 -0.5h271q4 0 6.5 -2.5t1.5 -6.5l-5 -33q0 -4 -1 -5t-6 -1h-271q-12 0 -13 -11l-39 -284q-1 -6 0 -7t6 -1h370q11 0 9 -9zM541 121q72 82 96 250q8 58 8 100q0 232 -200 232q-122 0 -197 -84.5 t-99 -252.5q-7 -48 -7 -95q0 -232 205 -232q122 0 194 82z" />
<glyph unicode="&#x153;" horiz-adv-x="1014" d="M107 50q-57 60 -57 162q0 29 4 53q11 81 50.5 143.5t100 97t132.5 34.5q73 0 123 -35.5t70 -99.5q3 -4 5 -4q5 0 9 9q38 61 97.5 95.5t127.5 34.5q98 0 150.5 -56.5t52.5 -157.5q0 -31 -4 -59q-3 -14 -19 -15h-392q-16 0 -18 -20t-2 -29q0 -47 21.5 -85.5t59.5 -60.5 t85 -22q115 0 184 92q4 3 6 3t6 -3l25 -16q2 -2 3 -5t-1 -7q-44 -55 -100 -82t-127 -27t-121.5 33.5t-71.5 93.5q-3 7 -7 7t-12 -14q-39 -57 -97.5 -88.5t-127.5 -31.5q-98 0 -155 60zM416.5 98q61.5 63 75.5 169q4 34 4 48q0 83 -43.5 132t-117.5 49q-58 0 -107 -29.5 t-81 -82.5t-41 -122q-4 -34 -4 -48q0 -83 44 -131t120 -48q89 0 150.5 63zM667.5 469.5q-47.5 -26.5 -78.5 -73t-38 -104.5l352 1q10 0 14.5 3.5t5.5 12.5q2 20 2 29q0 69 -42 113.5t-113 44.5q-55 0 -102.5 -26.5z" />
<glyph unicode="&#x178;" horiz-adv-x="647" d="M666.5 738q1.5 -4 -2.5 -9l-296 -403q-6 -10 -7 -23l-42 -290q-1 -7 -4.5 -10t-12.5 -3h-31q-6 0 -8 3t-1 10l40 283l1 10q0 5 -3 11l-185 413q-2 3 -2 7q0 5 9 5h35q7 0 10.5 -2.5t5.5 -8.5l155 -349q4 -10 10 -10t13 10l254 352q4 5 7 6.5t11 1.5h37q5 0 6.5 -4z M373 865q-2 -8 -4 -10t-10 -2h-32q-7 0 -9.5 3t-1.5 9l11 80q1 6 2.5 7.5t6.5 1.5h39q10 0 9 -12zM492 865q-2 -8 -4 -10t-10 -2h-32q-7 0 -9.5 3t-1.5 9l11 80q1 6 2.5 7.5t6.5 1.5h39q12 0 9 -12z" />
<glyph unicode="&#x2c6;" horiz-adv-x="289" d="M216 697q-7 5 -8 5q-2 0 -5.5 -3t-6.5 -5l-69 -48q-5 -3 -8.5 -4t-7.5 -1h-41q-6 0 -6 5q0 3 4 7l111 82q11 8 22 8h23q6 0 9.5 -4.5t5.5 -5.5l88 -83q5 -5 5 -7t-6 -2h-45q-6 0 -15 7z" />
<glyph unicode="&#x2dc;" horiz-adv-x="293" d="M304 674q-16 -5 -39 -5q-19 0 -31.5 3t-33.5 10q-28 11 -48 11q-17 0 -28.5 -4.5t-20 -9.5t-11.5 -7l-6 -1q-5 0 -6 8l-6 18q0 1 -1 4.5t2 6.5q22 12 37.5 18t35.5 6q27 0 62 -13q36 -12 57 -12q17 0 28 4t26 14l6 2q6 0 8 -8l6 -21l1 -4q0 -2 -5 -7q-17 -8 -33 -13z" />
<glyph unicode="&#x300;" d="M-177 751l216 -95q7 -2 5 -12l-10 -16q-1 -5 -3.5 -5.5t-7.5 1.5l-217 75q-12 4 -7 15l16 35q1 4 8 2z" />
<glyph unicode="&#x301;" d="M51 711l1 -4q0 -5 -8 -8l-238 -76l-4 -1q-6 0 -8 8l-4 17q-2 8 3 10l243 94h2q5 0 7 -5z" />
<glyph unicode="&#x302;" d="M-73 697q-7 5 -8 5q-2 0 -5.5 -3t-6.5 -5l-69 -48q-5 -3 -8.5 -4t-7.5 -1h-41q-6 0 -6 5q0 3 4 7l111 82q11 8 22 8h23q6 0 9.5 -4.5t5.5 -5.5l88 -83q5 -5 5 -7t-6 -2h-45q-6 0 -15 7z" />
<glyph unicode="&#x303;" d="M11 674q-16 -5 -39 -5q-19 0 -31.5 3t-33.5 10q-28 11 -48 11q-17 0 -28.5 -4.5t-20 -9.5t-11.5 -7l-6 -1q-5 0 -6 8l-6 18q0 1 -1 4.5t2 6.5q22 12 37.5 18t35.5 6q27 0 62 -13q36 -12 57 -12q17 0 28 4t26 14l6 2q6 0 8 -8l6 -21l1 -4q0 -2 -5 -7q-17 -8 -33 -13z" />
<glyph unicode="&#x304;" d="M49 688q-1 -5 -3 -6.5t-8 -1.5h-242q-10 0 -8 10l3 27q1 6 6 6h250q3 0 5 -2.5t1 -5.5z" />
<glyph unicode="&#x308;" d="M-75 653q-2 -8 -4 -10t-10 -2h-32q-7 0 -9.5 3t-1.5 9l11 80q1 6 2.5 7.5t6.5 1.5h39q10 0 9 -12zM44 653q-2 -8 -4 -10t-10 -2h-32q-7 0 -9.5 3t-1.5 9l11 80q1 6 2.5 7.5t6.5 1.5h39q12 0 9 -12z" />
<glyph unicode="&#x30a;" d="M18 631.5q-34 -32.5 -80 -32.5q-40 0 -64.5 25t-24.5 64q0 45 34 78t79 33q39 0 64.5 -25t25.5 -63q0 -47 -34 -79.5zM-6 744q-13 13 -35 13q-25 0 -45 -17.5t-24 -43.5q-2 -22 12.5 -39t36.5 -17q27 0 47.5 22t20.5 49q0 20 -13 33z" />
<glyph unicode="&#x327;" d="M-96.5 -183q-31.5 -22 -79.5 -22q-44 0 -74 22q-2 0 -3.5 2.5t-1.5 4.5l14 21q1 3 6 -2q18 -16 53 -16q63 0 69 44q2 23 -14.5 33t-55.5 12q-7 0 -7 6l48 83h37l-31 -61q-1 -2 0 -2q38 -3 54.5 -20t16.5 -42q0 -41 -31.5 -63z" />
<glyph unicode="&#x2000;" horiz-adv-x="482" />
<glyph unicode="&#x2001;" horiz-adv-x="964" />
<glyph unicode="&#x2002;" horiz-adv-x="482" />
<glyph unicode="&#x2003;" horiz-adv-x="964" />
<glyph unicode="&#x2004;" horiz-adv-x="321" />
<glyph unicode="&#x2005;" horiz-adv-x="241" />
<glyph unicode="&#x2006;" horiz-adv-x="160" />
<glyph unicode="&#x2007;" horiz-adv-x="160" />
<glyph unicode="&#x2008;" horiz-adv-x="120" />
<glyph unicode="&#x2009;" horiz-adv-x="192" />
<glyph unicode="&#x200a;" horiz-adv-x="53" />
<glyph unicode="&#x2010;" horiz-adv-x="381" d="M310 251q-1 -5 -3 -6.5t-8 -1.5l-224 -1q-9 0 -9 9l5 30q1 7 5 7l231 1q4 0 6.5 -2.5t1.5 -5.5z" />
<glyph unicode="&#x2011;" horiz-adv-x="381" d="M310 251q-1 -5 -3 -6.5t-8 -1.5l-224 -1q-9 0 -9 9l5 30q1 7 5 7l231 1q4 0 6.5 -2.5t1.5 -5.5z" />
<glyph unicode="&#x2012;" horiz-adv-x="381" d="M310 251q-1 -5 -3 -6.5t-8 -1.5l-224 -1q-9 0 -9 9l5 30q1 7 5 7l231 1q4 0 6.5 -2.5t1.5 -5.5z" />
<glyph unicode="&#x2013;" horiz-adv-x="545" d="M473 244q0 -8 -11 -8h-388q-9 0 -9 9l4 30q2 7 6 7l395 1q4 0 6.5 -2.5t1.5 -5.5z" />
<glyph unicode="&#x2014;" horiz-adv-x="866" d="M795 244q0 -8 -12 -8h-709q-9 0 -9 9l4 30q2 7 6 7l717 1q3 0 5.5 -2.5t1.5 -5.5z" />
<glyph unicode="&#x2018;" horiz-adv-x="213" d="M268 736l-59 -94q-3 -6 -3 -10q0 -6 7 -6h17q4 0 5.5 -1.5t1.5 -5.5l-10 -73q-1 -3 -3.5 -5.5t-5.5 -2.5h-78q-5 0 -4 5l8 66q1 4 4 7l86 119q1 7 14 7h17q5 0 3 -6z" />
<glyph unicode="&#x2019;" horiz-adv-x="213" d="M88 544l59 94q3 6 3 10q0 6 -7 6h-17q-4 0 -5.5 1.5t-1.5 5.5l10 73q1 3 3.5 5.5t5.5 2.5h78q5 0 4 -5l-8 -66q-1 -4 -4 -7l-86 -119q-1 -7 -14 -7h-17q-5 0 -3 6z" />
<glyph unicode="&#x201a;" horiz-adv-x="213" d="M-4.5 -114.5q-0.5 2.5 1.5 4.5l59 94q2 6 2 9q0 7 -7 7h-17q-5 0 -6.5 1.5t-0.5 5.5l10 73q1 3 3.5 5.5t5.5 2.5h78q3 0 4 -1.5t1 -4.5l-9 -66q-1 -2 -2 -3.5t-2 -2.5l-85 -119q-5 -8 -14 -8h-17q-4 0 -4.5 2.5z" />
<glyph unicode="&#x201c;" horiz-adv-x="366" d="M114 539q-1 1 -1 4l10 66q0 4 3 7l85 119q5 7 15 7h17q7 0 3 -7l-59 -93q-2 -4 -2 -10t6 -6h17q5 -1 6.5 -2t0.5 -5l-11 -73q0 -8 -9 -8h-77q-3 0 -4 1zM235 539q-1 1 -1 4l10 66q0 4 3 7l85 119q5 7 14 7h17q8 0 4 -7l-59 -93q-3 -6 -3 -10q0 -6 7 -6h17q5 -1 6.5 -2 t0.5 -5l-11 -73q0 -8 -9 -8h-77q-3 0 -4 1z" />
<glyph unicode="&#x201d;" horiz-adv-x="366" d="M88 544l59 94q3 6 3 10q0 6 -7 6h-17q-4 0 -5.5 1.5t-1.5 5.5l10 73q1 3 3.5 5.5t5.5 2.5h78q5 0 4 -5l-8 -66q-1 -4 -4 -7l-86 -119q-1 -7 -14 -7h-17q-5 0 -3 6zM241 544l59 94q3 6 3 10q0 6 -7 6h-17q-5 0 -6.5 1.5t-0.5 5.5l10 73q1 3 3.5 5.5t5.5 2.5h78q5 0 4 -5 l-8 -66q-1 -3 -2 -4.5t-2 -2.5l-86 -119q-3 -7 -14 -7h-17q-7 0 -3 6z" />
<glyph unicode="&#x201e;" horiz-adv-x="329" d="M111.5 -114.5q-0.5 2.5 1.5 4.5l59 94q2 6 2 9q0 7 -7 7h-17q-5 0 -6.5 1.5t-0.5 5.5l10 73q1 3 3.5 5.5t5.5 2.5h78q3 0 4 -1.5t1 -4.5l-9 -66q-1 -2 -2 -3.5t-2 -2.5l-85 -119q-5 -8 -14 -8h-17q-4 0 -4.5 2.5zM-41.5 -114.5q-0.5 2.5 1.5 4.5l59 94q2 6 2 9q0 7 -7 7 h-17q-5 0 -6.5 1.5t-0.5 5.5l10 73q1 3 3.5 5.5t5.5 2.5h78q3 0 4 -1.5t1 -4.5l-9 -66q-1 -2 -2 -3.5t-2 -2.5l-85 -119q-5 -8 -14 -8h-17q-4 0 -4.5 2.5z" />
<glyph unicode="&#x2022;" horiz-adv-x="298" d="M106.5 319.5q-19.5 19.5 -19.5 48.5q0 34 26 60t60 26q30 0 49.5 -19.5t19.5 -49.5q0 -34 -25.5 -59.5t-60.5 -25.5q-30 0 -49.5 19.5z" />
<glyph unicode="&#x2026;" horiz-adv-x="682" d="M532 11q-1 -7 -4 -9t-11 -2h-45q-14 0 -12 12l10 66q1 6 2.5 7.5t5.5 1.5h56q4 0 6 -3t1 -7zM57 11q-1 -7 -4 -9t-11 -2h-45q-14 0 -12 12l10 66q1 6 2.5 7.5t5.5 1.5h56q4 0 6 -3t1 -7zM295 11q-1 -7 -4 -9t-11 -2h-45q-14 0 -12 12l10 66q1 6 2.5 7.5t5.5 1.5h56 q4 0 6 -3t1 -7z" />
<glyph unicode="&#x202f;" horiz-adv-x="192" />
<glyph unicode="&#x2039;" horiz-adv-x="256" d="M179 81q2 -3 0.5 -3.5t-5.5 -0.5h-16q-3 0 -6 2t-3 4l-111 167q-5 11 -1 15l162 178q3 3 5 3h3h18q4 0 6.5 -3t-0.5 -7l-135 -174q-6 -8 -3 -13z" />
<glyph unicode="&#x203a;" horiz-adv-x="257" d="M163 265l-87 174q-3 7 5 7h17q4 0 8 -5l112 -178q2 -4 2 -7t-3 -8l-160 -168q-1 -3 -8 -3h-15q-12 0 -9 7l134 168q7 7 4 13z" />
<glyph unicode="&#x2044;" horiz-adv-x="245" d="M-137 3q-4 -4 -7 -5.5t-10 -1.5h-18q-9 0 -9 7q0 5 4 9l591 734q3 4 7.5 4h5.5h23q5 0 7 -2.5t-1 -7.5z" />
<glyph unicode="&#x205f;" horiz-adv-x="241" />
<glyph unicode="&#x20ac;" horiz-adv-x="574" d="M586 688l-27 -27q-3 -3 -6.5 -2.5t-5.5 4.5q-51 39 -111 39q-98 0 -166 -58t-102 -170l219 1q3 0 6 -2.5t2 -5.5l-4 -26q-1 -5 -3 -6.5t-8 -1.5l-223 -1q-7 -31 -12 -66q-3 -17 -4 -30t-2 -22h226q3 0 5.5 -2t1.5 -6l-4 -26q0 -4 -2.5 -5.5t-8.5 -1.5l-219 -1 q2 -231 208 -231q70 0 129 39q4 0 7 -4l18 -30q2 -1 3 -4t-1 -5q-75 -47 -164 -47q-124 0 -190.5 73t-68.5 209h-84q-9 0 -9 9l4 26q0 7 6 7h84q2 27 6 57q4 27 11 61h-79q-11 0 -9 10l3 25q1 7 6 7h90q39 133 124 205.5t203 72.5q43 0 81 -13.5t68 -38.5q9 -5 2 -12z" />
<glyph unicode="&#x2122;" horiz-adv-x="894" d="M72 737q0 3 1.5 4t3.5 1h326q6 0 4 -6l-3 -19q-1 -5 -6 -5h-131q-4 0 -5.5 -1t-2.5 -5l-59 -422q0 -6 -6 -6h-24q-4 0 -5.5 1.5t-0.5 6.5l59 418v3q0 5 -7 5h-142q-6 0 -4 5zM417.5 280q-0.5 2 -0.5 6l64 450q0 3 1 4.5t5 1.5h28q5 0 6 -5l104 -406q2 -6 4 -6q1 0 6 7 l220 405q3 5 7 5h29q6 0 5 -7l-63 -451q0 -3 -1.5 -4.5t-4.5 -1.5h-23q-7 0 -7 7l53 376q0 2 -0.5 2t-0.5 -1l-205 -378q-2 -4 -4.5 -5t-6.5 -1h-23q-4 0 -5.5 1.5t-2.5 6.5l-96 373q-1 5 -3 0l-53 -375q0 -4 -1 -5t-5 -1h-22q-4 0 -4.5 2z" />
<glyph unicode="&#x25fc;" horiz-adv-x="530" d="M0 530h530v-530h-530v530z" />
<glyph horiz-adv-x="384" d="M138 193q56 48 87 89t31 83q0 37 -27 57t-64 20q-31 0 -65.5 -15.5t-58.5 -46.5q-4 -4 -7 -1l-19 16q-4 2 2 8q29 35 71 52.5t83 17.5q52 0 86.5 -26.5t34.5 -79.5q0 -36 -16 -67.5t-42.5 -59t-73.5 -69.5l-150 -132q-4 -2 -3.5 -4.5t4.5 -2.5h234q7 0 5 -6l-2 -20 q-1 -1 -2 -3.5t-4 -2.5h-275q-9 0 -7 9l1 16q1 7 3.5 11t10.5 11z" />
<glyph horiz-adv-x="416" d="M252 467h26q6 0 6 -7l-42 -293q0 -2 1 -3t3 -1h63q7 0 7 -5l-3 -20q-2 -5 -7 -5h-64q-4 0 -6 -6l-16 -121q0 -3 -1.5 -4.5t-5.5 -1.5h-25q-5 0 -4 7l17 121q0 5 -4 5h-213q-4 0 -5 1.5t0 5.5l3 22q0 4 2 7.5t6 8.5l252 286q3 3 10 3zM199 163q4 0 5 6l34 239q0 3 -1 3 q-3 0 -7 -6l-207 -235q-7 -7 0 -7h176z" />
<glyph horiz-adv-x="299" d="M205 302l-3 -21q0 -1 -1 -3t-4 -2h-207q-5 0 -4 5l3 23q1 3 4 3h87q3 0 5 4l54 386q0 5 -4 2l-89 -33q-7 -1 -6 4l2 17q1 7 6 9l93 44q7 3 15 3h20q6 0 5 -7l-60 -425q-2 -4 3 -4h76q5 0 5 -5z" />
<glyph horiz-adv-x="384" d="M177 472q56 48 87 89t31 83q0 37 -27 57t-64 20q-31 0 -65.5 -15.5t-58.5 -46.5q-4 -4 -7 -1l-19 16q-4 2 2 8q29 35 71 52.5t83 17.5q52 0 86.5 -26.5t34.5 -79.5q0 -36 -16 -67.5t-42.5 -59t-73.5 -69.5l-150 -132q-4 -2 -3.5 -4.5t4.5 -2.5h234q7 0 5 -6l-2 -20 q-1 -1 -2 -3.5t-4 -2.5h-275q-9 0 -7 9l1 16q1 7 3.5 11t10.5 11z" />
<glyph horiz-adv-x="399" d="M82 694q36 30 70.5 44t73.5 14q62 0 98 -28.5t36 -73.5q0 -41 -27.5 -74t-73.5 -48q-3 -1 -3 -2.5t4 -2.5q36 -10 59.5 -36.5t23.5 -65.5q0 -41 -22.5 -74.5t-65.5 -53.5t-102 -20q-53 0 -82 16t-57 47q-3 4 -1 6l20 15q2 3 5 0q38 -53 120 -53q64 0 106.5 31.5 t42.5 83.5q0 43 -35 66.5t-85 23.5h-56q-3 0 -5 1.5t-1 3.5l3 21q0 4 5 4h46q38 0 71.5 14.5t53.5 39t20 54.5q0 33 -26.5 53.5t-71.5 20.5q-39 0 -66 -13t-58 -37q-4 -2 -6 -2t-4 4l-10 12q-4 4 0 9z" />
</font>
</defs>
</svg>
