<?xml version="1.0" standalone="no"?>
<!DOCTYPE svg PUBLIC "-//W3C//DTD SVG 1.1//EN" "http://www.w3.org/Graphics/SVG/1.1/DTD/svg11.dtd" >
<svg xmlns="http://www.w3.org/2000/svg" xmlns:xlink="http://www.w3.org/1999/xlink" version="1.1">
<metadata></metadata>
<defs>
<font id="libre_franklinextralight" horiz-adv-x="0" >
<font-face units-per-em="1000" ascent="800" descent="-200" />
<missing-glyph horiz-adv-x="219" />
<glyph unicode="&#xfb01;" horiz-adv-x="593" d="M342 523v-27q0 -7 -7 -7h-129q-7 0 -7 -8v-469q0 -12 -10 -12h-31q-5 0 -7 2.5t-2 8.5v471q0 7 -6 7h-110q-7 0 -7 7v27q0 7 7 7h109q7 0 7 8v79q0 63 28 94t88 31h74q8 0 8 -8v-25q0 -8 -9 -8h-77q-35 0 -48.5 -19.5t-13.5 -58.5v-86q0 -7 7 -7h130q6 0 6 -7zM510 656 q0 -16 -14 -16h-34q-12 0 -12 14v74q0 14 13 14h34q5 0 9 -3.5t4 -9.5v-73zM505 13q0 -8 -2.5 -10.5t-10.5 -2.5h-25q-7 0 -9.5 2t-2.5 9v508q0 7 2 9t8 2h30q6 0 8 -2t2 -9v-506z" />
<glyph unicode="&#xfb02;" horiz-adv-x="593" d="M342 523v-27q0 -7 -7 -7h-129q-7 0 -7 -8v-469q0 -12 -10 -12h-31q-5 0 -7 2.5t-2 8.5v471q0 7 -6 7h-110q-7 0 -7 7v27q0 7 7 7h109q7 0 7 8v79q0 63 28 94t88 31h74q8 0 8 -8v-25q0 -8 -9 -8h-77q-35 0 -48.5 -19.5t-13.5 -58.5v-86q0 -7 7 -7h130q6 0 6 -7zM505 13 q0 -8 -2.5 -10.5t-10.5 -2.5h-25q-7 0 -9.5 2t-2.5 9v720q0 7 2 9t8 2h30q6 0 8 -2t2 -9v-718z" />
<glyph />
<glyph />
<glyph unicode="&#xd;" horiz-adv-x="215" />
<glyph unicode=" "  horiz-adv-x="219" />
<glyph unicode="&#x09;" horiz-adv-x="219" />
<glyph unicode="&#xa0;" horiz-adv-x="219" />
<glyph unicode="!" horiz-adv-x="235" d="M136 165q0 -10 -11 -10h-17q-8 0 -10 9l-12 570q0 8 6 8h51q7 0 7 -7zM153 12q0 -7 -3 -9.5t-11 -2.5h-46q-7 0 -9 2.5t-2 8.5v66q0 9 7 9h56q8 0 8 -8v-66z" />
<glyph unicode="&#x22;" horiz-adv-x="380" d="M282 552q-1 -6 -3.5 -8.5t-8.5 -2.5h-19q-5 0 -6.5 2t-2.5 6l-21 186q0 7 7 7h68q7 0 7 -7zM138 552q-1 -6 -3.5 -8.5t-8.5 -2.5h-19q-5 0 -6.5 2t-2.5 6l-21 186q0 7 7 7h68q7 0 7 -7z" />
<glyph unicode="#" horiz-adv-x="603" d="M561 493v-25q0 -10 -12 -10h-104l-26 -168h101q8 0 8 -7v-25q0 -10 -12 -10h-104l-37 -239q-1 -11 -10 -9l-25 4q-7 1 -7 7l36 237h-162l-37 -239q-1 -11 -9 -9l-25 4q-8 1 -7 7l36 237h-113q-9 0 -9 8v26q0 8 5 8h124l26 168h-113q-9 0 -9 8v26q0 8 5 8h123l36 235 q2 9 8 7l26 -4q9 -2 8 -12l-35 -226h161l36 235q2 9 8 7l26 -4q5 -1 7 -3.5t1 -8.5l-35 -226h102q8 0 8 -7zM402 458h-162l-26 -168h162z" />
<glyph unicode="$" horiz-adv-x="581" d="M516 78.5q-26 -40.5 -73 -64t-106 -23.5q-9 -1 -9 -7v-66q0 -10 -8 -10h-27q-8 0 -8 7v69q0 7 -6 7q-85 0 -141 29.5t-96 90.5q-4 6 -4 9q0 4 5 7l20 15q3 3 8 3q6 0 9 -4q40 -52 84.5 -76.5t112.5 -24.5h3q5 0 5 7v280q0 16 -23 27q-76 33 -118 60.5t-60.5 60.5 t-18.5 81q0 81 58.5 134t152.5 61q3 0 5.5 2t2.5 6v54q0 8 6 8h28q5 0 7 -2.5t2 -8.5v-53q0 -7 8 -7q58 -6 103.5 -29t85.5 -64q4 -4 4 -8t-4 -7l-25 -22q-4 -2 -6 -2q-3 0 -9 7q-24 29 -63 49t-85 26h-2q-7 0 -7 -8v-290q0 -7 2 -9.5t9 -5.5l30 -12q87 -36 130.5 -86 t43.5 -120q0 -50 -26 -90.5zM284 694q0 4 -3 6t-7 1q-69 -6 -111 -45.5t-42 -98.5q0 -43 31 -75.5t112 -69.5l8 -2q12 0 12 14v270zM335 40q68 0 109 37t41 94q0 52 -32 86.5t-108 65.5q-6 2 -9 2q-8 0 -8 -10v-269q0 -7 7 -6z" />
<glyph unicode="%" horiz-adv-x="902" d="M348 697q45 -56 45 -156q0 -102 -45 -158t-119 -56q-75 0 -120.5 56t-45.5 158q0 100 45.5 156t120.5 56q74 0 119 -56zM232 4q-3 -5 -6 -6.5t-10 -1.5h-18q-9 0 -9 6q0 4 3 8l488 735q4 5 13 5h23q10 0 5 -9zM317.5 411.5q33.5 49.5 33.5 128.5t-33.5 129t-89.5 50 t-89.5 -50t-33.5 -129t33.5 -128.5t89.5 -49.5t89.5 49.5zM794 360q45 -56 45 -156q0 -102 -45 -158t-119 -56q-75 0 -120.5 56t-45.5 158q0 100 45.5 156t120.5 56q74 0 119 -56zM738 47.5q28 23.5 43.5 64.5t15.5 91q0 77 -34.5 127.5t-88.5 50.5q-36 0 -64 -23.5 t-43.5 -64t-15.5 -90.5t15.5 -91t43.5 -64.5t64 -23.5t64 23.5z" />
<glyph unicode="&#x26;" horiz-adv-x="749" d="M442 713.5q49 -39.5 49 -106.5q0 -125 -189 -206q-8 -3 -8 -7q0 -2 5 -9l181 -215q5 -5 6 -5q2 0 9 6q40 37 88 106t61 107q3 9 14 5l22 -8q4 -2 6 -5t1 -7q-14 -45 -61.5 -113t-99.5 -121q-4 -4 -4 -7q0 -4 6 -9q30 -29 84.5 -50.5t102.5 -21.5q7 0 9.5 -2.5t2.5 -8.5 v-21q0 -8 -3 -11.5t-13 -3.5q-51 0 -119 26.5t-107 59.5q-4 3 -7 3q-4 0 -8 -4q-98 -90 -219 -90q-96 0 -153.5 53t-57.5 140q0 61 34 110t113 98q10 6 10 11q0 4 -9 14q-68 69 -68 147q0 52 26 94t71.5 66.5t101.5 24.5q74 0 123 -39.5zM215.5 668q-38.5 -41 -38.5 -100 q0 -29 10.5 -54.5t36.5 -53.5l24 -26q4 -4 9 -4l8 2q93 44 132.5 85t39.5 91q0 49 -33.5 75t-83.5 26q-66 0 -104.5 -41zM236 366q-3 0 -13 -4q-59 -29 -93 -75.5t-34 -101.5q0 -65 46 -105t116 -40q48 0 95 20t82 53q8 8 8 13t-5 10l-188 221q-7 9 -14 9z" />
<glyph unicode="'" horiz-adv-x="236" d="M138 552q-1 -6 -3.5 -8.5t-8.5 -2.5h-19q-5 0 -6.5 2t-2.5 6l-21 186q0 7 7 7h68q7 0 7 -7z" />
<glyph unicode="(" horiz-adv-x="272" d="M251.5 739.5q1.5 -2.5 -0.5 -4.5q-53 -106 -85 -222t-32 -229q0 -111 26.5 -218.5t80.5 -222.5q2 -3 0.5 -5.5t-5.5 -2.5h-17q-5 0 -9 5q-66 114 -99.5 219t-33.5 226q0 119 38.5 235.5t104.5 215.5q5 6 13 6h13q4 0 5.5 -2.5z" />
<glyph unicode=")" horiz-adv-x="272" d="M39 742q9 0 13 -6q66 -99 104.5 -215.5t38.5 -235.5q0 -121 -33.5 -226t-99.5 -219q-4 -5 -9 -5h-17q-4 0 -5.5 2.5t0.5 5.5q54 115 80.5 222.5t26.5 218.5q0 113 -32 229t-85 222q-2 2 -0.5 4.5t5.5 2.5h13z" />
<glyph unicode="*" horiz-adv-x="339" d="M177 563q-1 1 -4 0l-74 -118q-4 -4 -10 0l-25 17q-4 3 0 9l82 106q2 5 -3 6l-111 32q-4 1 -2 8l9 25q1 6 8 3l105 -39q6 -3 6 4l-8 120q0 2 2 4t6 2h34q5 0 5 -6l-5 -120q0 -7 4 -5l109 46q5 3 7 -2l8 -25q2 -8 -3 -9l-109 -37q-6 -3 -2 -7l78 -99q5 -6 -2 -12l-23 -16 q-4 -3 -7 -2.5t-4 2.5z" />
<glyph unicode="+" horiz-adv-x="545" d="M477 388v-28q0 -9 -12 -9h-170v-175q0 -8 -7 -8h-28q-9 0 -9 12v170h-174q-5 0 -7 1.5t-2 6.5v28q0 8 6 8h176v174q0 5 1.5 7t6.5 2h28q8 0 8 -6v-176h175q8 0 8 -7z" />
<glyph unicode="," horiz-adv-x="193" d="M45.5 -133q-1.5 3 1.5 8l43 114q1 2 1 5q0 6 -9 6h-10q-9 0 -9 8v71q0 7 7 7h57q7 0 7 -6v-63q0 -6 -2 -12l-60 -134q-4 -7 -14 -7h-8q-3 0 -4.5 3z" />
<glyph unicode="-" horiz-adv-x="381" d="M313 252q0 -9 -12 -9l-224 -1q-5 0 -7 1.5t-2 6.5v30q0 8 6 8l231 1q8 0 8 -7v-30z" />
<glyph unicode="." horiz-adv-x="188" d="M130 12q0 -7 -3.5 -9.5t-11.5 -2.5h-46q-11 0 -11 11v66q0 10 8 10h56q8 0 8 -9v-66z" />
<glyph unicode="/" horiz-adv-x="331" d="M16 -50l251 785q1 7 9 7h32q10 0 6 -11l-247 -778q-4 -9 -13 -9h-32q-7 0 -6 6z" />
<glyph unicode="0" horiz-adv-x="678" d="M474.5 709q59.5 -43 93.5 -129t34 -211q0 -124 -34 -209t-93.5 -127.5t-135.5 -42.5t-135.5 42t-93.5 127t-34 208q0 125 34.5 211.5t94 130t135.5 43.5q75 0 134.5 -43zM488.5 120.5q54.5 81.5 54.5 248.5q0 169 -55 251.5t-149 82.5q-93 0 -148.5 -83t-55.5 -251 q0 -166 55.5 -248t149.5 -82t148.5 81.5z" />
<glyph unicode="1" horiz-adv-x="444" d="M398 43v-36q0 -7 -8 -7h-328q-7 0 -7 7v36q0 7 7 7h137q7 0 7 4v613q0 5 -1.5 6.5t-5.5 0.5l-136 -54l-3 -1q-6 0 -6 9v28q0 5 1.5 6.5t4.5 3.5l140 70q12 6 24 6h31q8 0 8 -10v-676q0 -6 6 -6h121q8 0 8 -7z" />
<glyph unicode="2" horiz-adv-x="577" d="M299 306q81 80 115.5 136t34.5 115q0 47 -24 80t-62.5 49.5t-79.5 16.5q-50 0 -100.5 -24t-82.5 -72q-3 -5 -9 -5q-3 0 -8 3l-21 16q-7 6 -7 9q0 2 5 9q40 56 102 84.5t128 28.5q57 0 106.5 -21.5t79.5 -66.5t30 -112q0 -45 -17 -85t-52.5 -84.5t-100.5 -109.5l-210 -210 q-4 -4 -4 -7q0 -5 10 -5h372q5 0 7 -2t2 -7v-33q0 -9 -9 -9h-436q-7 0 -10 3t-3 10v25q0 11 3.5 18.5t13.5 16.5z" />
<glyph unicode="3" horiz-adv-x="628" d="M82 656q49 50 101.5 73t116.5 23q70 0 124 -24.5t83 -66.5t29 -94q0 -57 -35 -101t-96 -65q-11 -3 -11 -6t11 -6q66 -18 110 -67.5t44 -121.5q0 -59 -31 -106.5t-93 -75.5t-149 -28q-72 0 -128.5 23t-106.5 75q-4 4 -4 5t5 6l26 23q7 7 12 0q44 -45 92 -64t110 -19 q98 0 154 44t56 114q0 53 -30.5 91.5t-79 57.5t-103.5 20h-90q-10 0 -10 7v32q0 4 3 6t7 2h73q57 0 104.5 20t75 55t27.5 78q0 38 -22.5 69.5t-63 49.5t-91.5 18q-105 0 -186 -78q-5 -5 -8 -5t-8 5l-18 18q-6 7 0 13z" />
<glyph unicode="4" horiz-adv-x="629" d="M414 742h39q10 0 10 -10v-464q0 -9 7 -9h100q11 0 11 -7v-31q0 -10 -11 -10h-99q-8 0 -8 -10v-191q0 -10 -11 -10h-37q-10 0 -10 10v194q0 7 -8 7h-335q-11 0 -11 10v36q0 10 10 24l337 455q5 6 16 6zM393 259q4 0 6.5 2t2.5 5v375q0 12 -4 12t-10 -8l-276 -373 q-3 -4 -3 -7q0 -6 10 -6h274z" />
<glyph unicode="5" horiz-adv-x="644" d="M536 742q7 0 9 -2t1 -8l-3 -33q0 -2 -0.5 -4.5t-2.5 -3t-7 -0.5h-352q-10 0 -10 -8l-20 -262v-2q0 -5 3 -8t7 0q49 27 86.5 40.5t90.5 13.5q66 0 120.5 -23.5t88 -73t33.5 -125.5q0 -78 -36 -135.5t-99 -87.5t-142 -30q-69 0 -131 24t-110 72q-4 6 -4 7q0 2 5 7l25 24 q1 1 4 1q4 0 7 -4q51 -44 92.5 -64t102.5 -20q106 0 167 56.5t61 148.5q0 87 -53 131.5t-133 44.5q-55 0 -98.5 -18t-94.5 -50l-8 -4q-1 0 -3 1.5t-4 3.5l-28 17q-3 2 -5.5 3.5t-2.5 2.5t1 3.5t1 7.5l27 348q0 7 2 8t13 1h400z" />
<glyph unicode="6" horiz-adv-x="649" d="M468.5 731q41.5 -21 73.5 -58q3 -4 3.5 -6.5t-3.5 -5.5l-32 -19q-1 -1 -4 -1q-5 0 -9 6q-25 28 -55.5 42t-72.5 14q-119 0 -177.5 -83t-58.5 -219q0 -13 1 -18.5t5 -5.5q2 0 10 4q57 28 101 42.5t101 14.5q75 0 128.5 -28t81 -77.5t27.5 -111.5q0 -68 -32.5 -120.5 t-88.5 -81.5t-123 -29q-83 0 -143 43.5t-92.5 127t-32.5 201.5q0 121 34.5 209t100 134.5t157.5 46.5q59 0 100.5 -21zM249.5 374.5q-56.5 -14.5 -91.5 -36.5q-14 -10 -18.5 -19t-4.5 -29q0 -54 23.5 -112.5t71.5 -98.5t117 -40q52 0 94 24t66 65.5t24 91.5q0 47 -21.5 85.5 t-62.5 61t-96 22.5q-45 0 -101.5 -14.5z" />
<glyph unicode="7" horiz-adv-x="590" d="M532 742q8 0 8 -7v-27q0 -13 -9 -27q-66 -97 -128.5 -226t-106.5 -249.5t-57 -190.5q-1 -15 -12 -15h-40q-13 0 -10 14q31 130 107.5 312.5t185.5 352.5q3 5 3 7q0 5 -9 5h-412q-6 0 -6 9l3 34q1 5 3.5 6.5t8.5 1.5h471z" />
<glyph unicode="8" horiz-adv-x="661" d="M452.5 726.5q52.5 -25.5 81 -71.5t28.5 -106q0 -49 -24 -87.5t-80 -80.5q-8 -5 -8 -8q0 -4 7 -6q66 -22 102 -68t36 -109q0 -60 -33 -105t-93.5 -70t-139.5 -25q-121 0 -190 52t-69 143q0 54 27.5 97.5t86.5 83.5q14 9 14 14t-14 11q-46 23 -70 61.5t-24 91.5 q0 59 31.5 106.5t86.5 74.5t124 27q68 0 120.5 -25.5zM238 683.5q-42 -20.5 -66.5 -57t-24.5 -80.5q0 -53 30 -86t89 -45l113 -25q20 -4 51 19.5t54 63t23 80.5q0 68 -48 109.5t-127 41.5q-52 0 -94 -20.5zM482 80q56 42 56 112q0 53 -28.5 85.5t-89.5 45.5l-147 34 q-21 5 -57 -17.5t-63.5 -63t-27.5 -88.5q0 -71 54 -110.5t152 -39.5q95 0 151 42z" />
<glyph unicode="9" horiz-adv-x="645" d="M176.5 11q-43.5 21 -77.5 59q-7 7 0 12l32 18q1 1 4 1q4 0 9 -5q24 -28 57 -42.5t81 -14.5q115 0 172.5 83.5t57.5 219.5q0 13 -1.5 18t-5.5 5q-3 0 -9 -3q-53 -28 -97 -43t-101 -15q-74 0 -127 28t-80.5 77.5t-27.5 111.5q0 68 32.5 120.5t88 81.5t122.5 29 q81 0 140.5 -43.5t91 -127t31.5 -201.5q0 -121 -34 -209t-98.5 -134.5t-154.5 -46.5q-62 0 -105.5 21zM398.5 369.5q54.5 16.5 89.5 41.5q14 9 18.5 18t4.5 29q0 53 -23 110.5t-70 96.5t-114 39q-52 0 -94 -24t-66 -65.5t-24 -91.5q0 -46 21.5 -85t61.5 -62t93 -23 q48 0 102.5 16.5z" />
<glyph unicode=":" horiz-adv-x="188" d="M130 427q0 -12 -15 -12h-46q-11 0 -11 11v66q0 10 8 10h56q8 0 8 -9v-66zM130 15q0 -7 -3.5 -9.5t-11.5 -2.5h-46q-11 0 -11 11v66q0 9 8 9h56q8 0 8 -8v-66z" />
<glyph unicode=";" horiz-adv-x="214" d="M58 426v66q0 9 8 9h56q8 0 8 -8v-66q0 -7 -3.5 -9.5t-11.5 -2.5h-46q-11 0 -11 11zM45.5 -133.5q-1.5 2.5 1.5 8.5l43 114q1 2 1 5q0 6 -9 6h-10q-9 0 -9 8v71q0 7 7 7h57q7 0 7 -6v-63q0 -6 -2 -12l-60 -134q-4 -7 -14 -7h-8q-3 0 -4.5 2.5z" />
<glyph unicode="&#x3c;" horiz-adv-x="528" d="M458 190q0 -9 -5 -12t-13 0l-372 148q-10 3 -10 11v40q0 8 10 11l372 150q6 2 9 2q10 0 10 -12v-30q0 -8 -15 -16l-315 -125l314 -125q8 -4 11.5 -7t3.5 -9v-26z" />
<glyph unicode="=" horiz-adv-x="545" d="M477 460q0 -9 -12 -9l-388 -1q-5 0 -7 1.5t-2 6.5v28q0 8 6 8l395 1q8 0 8 -7v-28zM477 239q0 -10 -12 -10l-388 -1q-9 0 -9 8v29q0 8 6 8l395 1q3 0 5.5 -2t2.5 -5v-28z" />
<glyph unicode="&#x3e;" horiz-adv-x="528" d="M73.5 225q3.5 3 11.5 7l314 125l-315 125q-15 8 -15 16v30q0 12 10 12l8 -2l373 -150q5 -2 7 -4t2 -7v-40q0 -8 -9 -11l-373 -148q-2 -1 -6 -1q-11 0 -11 13v26q0 6 3.5 9z" />
<glyph unicode="?" horiz-adv-x="516" d="M37 621q-1 3 1 5q32 58 93 92t134 34q98 0 156 -49.5t58 -131.5q0 -41 -14 -75.5t-34.5 -60.5t-55.5 -65q-35 -38 -56 -65t-35.5 -62t-14.5 -77q0 -3 -2 -6t-6 -3h-32q-9 0 -9 11q0 47 15.5 86.5t37 68.5t57.5 69q33 37 51 60.5t30.5 53t12.5 64.5q0 62 -43.5 98.5 t-115.5 36.5q-56 0 -108.5 -29t-69.5 -70q-3 -6 -9 -4l-36 15q-4 1 -5 4zM280 12q0 -7 -3 -9.5t-11 -2.5h-46q-11 0 -11 11v66q0 9 8 9h55q8 0 8 -8v-66z" />
<glyph unicode="@" horiz-adv-x="834" d="M436 -113q-117 0 -204 50t-133.5 135t-46.5 189q0 108 50.5 199.5t141.5 146t205 54.5q89 0 169 -35t130 -107.5t50 -178.5q0 -75 -25 -134t-68.5 -92t-97.5 -33q-38 0 -58.5 12.5t-27.5 43.5q-3 8 -5 8q-1 0 -6 -6q-53 -72 -143 -72q-36 0 -67 22t-49.5 62t-18.5 92 q0 64 24.5 117t68 84t96.5 31q40 0 70.5 -19t48.5 -51q1 -2 3 -1t3 4l10 36q1 5 7 5h33q8 0 6 -6l-38 -228q-3 -19 -3 -35q0 -28 11.5 -40t36.5 -12q37 0 68 25.5t49.5 72.5t18.5 108q0 94 -43.5 157.5t-111.5 93t-142 29.5q-103 0 -181 -48t-120 -129t-42 -179 q0 -89 39 -162.5t116.5 -117.5t188.5 -44q58 0 93.5 14t82.5 45q6 3 11 3q6 0 9 -4l13 -18q3 -5 3 -7q0 -6 -10 -13q-96 -67 -215 -67zM310 149.5q23 -34.5 64 -34.5q53 0 94.5 44t51.5 108q3 20 3 37q0 59 -29.5 91t-69.5 32q-61 0 -99 -52.5t-38 -129.5q0 -61 23 -95.5z " />
<glyph unicode="A" horiz-adv-x="706" d="M51 11l264 719q2 7 6 9.5t11 2.5h43q16 0 19 -11l261 -719l1 -4q0 -8 -9 -8h-35q-11 0 -14 9l-78 216q-3 7 -10 7h-316q-7 0 -10 -7l-80 -217q-1 -8 -12 -8h-33q-11 0 -8 11zM490 280q11 0 8 11l-138 376q-3 10 -7 10q-3 0 -8 -11l-140 -377q-1 -2 -1 -5q0 -4 7 -4h279z " />
<glyph unicode="B" horiz-adv-x="687" d="M110 9v722q0 11 10 11h211q127 0 196.5 -49t69.5 -142q0 -128 -131 -169q-4 -1 -4 -4.5t4 -4.5q71 -14 110 -58.5t39 -117.5q0 -98 -72.5 -147.5t-207.5 -49.5h-216q-9 0 -9 9zM343 399q81 0 138 33t57 112q0 76 -55 113.5t-155 37.5h-151q-10 0 -10 -9v-277q0 -10 8 -10 h168zM330 47q116 0 171 34.5t55 111.5q0 82 -58 120t-155 38h-164q-12 0 -12 -9v-284q0 -11 8 -11h155z" />
<glyph unicode="C" horiz-adv-x="698" d="M494.5 724.5q57.5 -27.5 95.5 -73t44 -97.5v-4q0 -3 -1.5 -4t-4.5 -1l-45 -4h-2q-4 0 -5 7q-17 70 -70.5 112.5t-127.5 42.5q-119 0 -181 -85t-62 -249q0 -160 63 -244.5t187 -84.5q77 0 127 36.5t80 114.5q1 4 7 3l40 -11q4 -2 3 -9q-26 -81 -96.5 -132.5t-164.5 -51.5 q-145 0 -225.5 99.5t-80.5 279.5q0 120 36 206t103.5 131.5t161.5 45.5q61 0 118.5 -27.5z" />
<glyph unicode="D" horiz-adv-x="707" d="M246 741q203 -1 295 -89.5t92 -275.5q0 -193 -98 -284.5t-303 -91.5h-112q-10 0 -10 11v722q0 9 10 9zM167 680v-623q0 -10 12 -10h47q127 0 202.5 32t110 103t34.5 190q0 123 -35 192t-107.5 98t-193.5 32h-62q-8 0 -8 -14z" />
<glyph unicode="E" horiz-adv-x="616" d="M112 740q2 2 8 2h423q7 0 7 -8v-31q0 -5 -2 -7t-7 -2h-364q-6 0 -8 -1.5t-2 -7.5v-278q0 -5 2 -6.5t8 -1.5h282q8 0 8 -8v-32q0 -5 -2 -6.5t-7 -1.5h-281q-6 0 -8 -1.5t-2 -7.5v-285q0 -6 2 -7.5t8 -1.5h379q5 0 7 -1.5t2 -6.5v-32q0 -8 -8 -8h-437q-6 0 -8 2t-2 9v720 q0 7 2 9z" />
<glyph unicode="F" horiz-adv-x="587" d="M112.5 740q2.5 2 7.5 2h413q7 0 7 -8v-31q0 -5 -2 -7t-7 -2h-354q-6 0 -8 -1.5t-2 -7.5v-291q0 -5 2 -6.5t8 -1.5h292q8 0 8 -8v-32q0 -4 -2 -5.5t-7 -1.5h-291q-5 0 -7.5 -2t-2.5 -8v-321q0 -8 -8 -8h-39q-6 0 -8 2t-2 9v720q0 7 2.5 9z" />
<glyph unicode="G" horiz-adv-x="732" d="M213 35q-67 45 -102.5 130t-35.5 203q0 121 36.5 207.5t104 131.5t159.5 45q62 0 119.5 -27t95 -71.5t43.5 -96.5q2 -8 -5 -9l-44 -8q-7 0 -8 7q-7 43 -35.5 79t-71.5 56.5t-94 20.5q-116 0 -178 -86t-62 -243q0 -164 61 -249.5t179 -85.5q71 0 121.5 33t75.5 82.5 t26 98.5v74q0 9 -11 9h-183q-8 0 -8 7v27q0 7 6 7h239q8 0 8 -8v-358q0 -6 -2 -8.5t-8 -2.5h-19q-7 0 -10 1.5t-4 8.5l-2 103q-1 5 -3.5 5t-5.5 -5q-31 -55 -87 -89t-135 -34q-93 0 -160 45z" />
<glyph unicode="H" horiz-adv-x="727" d="M174 362q-3 0 -5 -2.5t-2 -4.5v-345q0 -10 -11 -10h-36q-6 0 -8 2.5t-2 8.5v720q0 7 2.5 9t7.5 2h38q5 0 7 -2t2 -9v-311q0 -6 2 -8t8 -2h374q5 0 7 2t2 7v313q0 10 9 10h39q5 0 7 -2t2 -9v-720q0 -11 -10 -11h-36q-6 0 -8.5 2t-2.5 8v344q0 8 -8 8h-378z" />
<glyph unicode="I" horiz-adv-x="278" d="M158 742q5 0 7 -2t2 -9v-718q0 -8 -2.5 -10.5t-10.5 -2.5h-32q-7 0 -9.5 2t-2.5 9v720q0 7 2.5 9t7.5 2h38z" />
<glyph unicode="J" horiz-adv-x="403" d="M264.5 30.5q-32.5 -40.5 -104.5 -40.5q-35 0 -64.5 8t-44.5 16q-7 3 -5 11l9 37q2 8 9 5q25 -13 41.5 -18.5t47.5 -5.5q49 0 68 25.5t19 92.5v571q0 10 9 10h40q8 0 8 -11v-583q0 -77 -32.5 -117.5z" />
<glyph unicode="K" horiz-adv-x="680" d="M632 2.5q-1 -2.5 -5 -2.5h-49q-9 0 -12 6l-250 396q-3 4 -5.5 4t-6.5 -4l-129 -143q-4 -4 -6 -7.5t-2 -9.5v-232q0 -10 -11 -10h-35q-6 0 -8.5 2t-2.5 8v723q0 9 9 9h40q8 0 8 -9v-401q0 -9 8 -1l371 406q2 3 5 4t8 1h45q5 0 6 -3t-2 -6l-253 -278q-2 -2 -2 -3.5t2 -4.5 l276 -438q2 -4 1 -6.5z" />
<glyph unicode="L" horiz-adv-x="591" d="M112.5 740q2.5 2 7.5 2h38q5 0 7 -2t2 -9v-674q0 -6 2 -7.5t8 -1.5h359q5 0 7 -1.5t2 -6.5v-32q0 -8 -8 -8h-417q-6 0 -8 2.5t-2 8.5v720q0 7 2.5 9z" />
<glyph unicode="M" horiz-adv-x="885" d="M110 11v720q0 7 2 9t8 2h42q11 0 14 -9l257 -648q3 -9 7 -9t8 10l260 648q3 8 12 8h45q6 0 8 -2t2 -9v-720q0 -11 -10 -11h-36q-6 0 -8.5 2t-2.5 8v607q0 4 -1.5 3.5t-2.5 -3.5l-242 -606q-4 -11 -17 -11h-32q-15 0 -19 11l-238 601q-1 3 -2 3.5t-1 -3.5v-602 q0 -10 -11 -10h-32q-10 0 -10 11z" />
<glyph unicode="N" horiz-adv-x="755" d="M636 742q5 0 7 -2t2 -8v-721q0 -11 -10 -11h-22h-5q-9 0 -15 7l-418 614q-5 7 -8.5 6.5t-3.5 -6.5v-611q0 -10 -11 -10h-32q-10 0 -10 11v720q0 7 2 9t8 2h27q7 0 10 -1.5t6 -6.5l416 -611q5 -6 8 -6q6 0 6 8v607q0 10 9 10h34z" />
<glyph unicode="O" horiz-adv-x="759" d="M155 87.5q-80 97.5 -80 279.5q0 185 81 285t225 100q143 0 223 -99.5t80 -283.5q0 -183 -80 -281t-224 -98q-145 0 -225 97.5zM624 369q0 168 -61.5 251t-181.5 83q-121 0 -183.5 -83.5t-62.5 -250.5q0 -330 247 -330q242 0 242 330z" />
<glyph unicode="P" horiz-adv-x="678" d="M546.5 375q-70.5 -52 -190.5 -52h-180q-9 0 -9 -9v-304q0 -10 -9 -10h-39q-9 0 -9 9v722q0 7 2 9t8 2h229q124 0 196 -51t72 -158q0 -106 -70.5 -158zM503 658q-54 37 -156 37h-170q-10 0 -10 -9v-305q0 -10 8 -10h179q97 0 150 40t53 125t-54 122z" />
<glyph unicode="Q" horiz-adv-x="760" d="M155.5 653q80.5 99 224.5 99t224 -98.5t80 -284.5q0 -129 -38 -212t-112 -128q-5 -4 -5 -9q0 -14 20 -34.5t52 -37t66 -21.5q8 -1 8 -8v-27q0 -9 -4.5 -11.5t-16.5 -2.5q-41 0 -87.5 27.5t-91.5 89.5q-5 7 -15 4q-37 -9 -80 -9q-143 0 -224 97t-81 282t80.5 284zM380 39 q121 0 183 82t62 248q0 165 -62 249.5t-183 84.5t-183 -85t-62 -251q0 -328 245 -328z" />
<glyph unicode="R" horiz-adv-x="683" d="M606 10q0 -4 -2.5 -7t-6.5 -3h-39q-5 0 -8 2.5t-5 7.5l-139 331q-2 5 -6.5 7.5t-14.5 2.5h-206q-12 0 -12 -11v-328q0 -7 -2 -9.5t-9 -2.5h-35q-6 0 -8.5 2.5t-2.5 7.5v721q0 7 2 9t8 2h263q111 0 171.5 -47.5t60.5 -138.5q0 -82 -44 -128.5t-106 -63.5q-6 -1 -4 -8 l144 -341q1 -2 1 -5zM505 434q51 36 51 115q0 146 -175 146h-202q-12 0 -12 -8v-279q0 -10 8 -10h174q105 0 156 36z" />
<glyph unicode="S" horiz-adv-x="623" d="M318 703q-82 0 -130 -38.5t-48 -108.5q0 -90 118 -132l140 -50q87 -31 125 -77t38 -112q0 -92 -66.5 -143.5t-182.5 -51.5q-85 0 -147.5 30.5t-105.5 93.5q-3 5 -3 8q0 6 9 12l17 12q6 5 12 5q4 0 9 -5q44 -57 88.5 -82t119.5 -25q91 0 142 34t51 108q0 46 -26.5 77.5 t-101.5 59.5l-151 57q-76 28 -108.5 75t-32.5 103q0 93 64.5 146t171.5 53q132 0 221 -97q4 -4 4 -8q0 -3 -4 -7l-27 -23q-3 -3 -5 -3q-3 0 -9 8q-70 81 -182 81z" />
<glyph unicode="T" horiz-adv-x="628" d="M46 734q0 8 8 8h520q8 0 8 -8v-32q0 -5 -2 -6.5t-7 -1.5h-210q-6 0 -8 -1.5t-2 -7.5v-674q0 -6 -2 -8.5t-8 -2.5h-37q-6 0 -8.5 2t-2.5 9v674q0 6 -2 7.5t-8 1.5h-230q-5 0 -7 1.5t-2 6.5v32z" />
<glyph unicode="U" horiz-adv-x="704" d="M540.5 50.5q-62.5 -60.5 -188.5 -60.5q-129 0 -190.5 63.5t-61.5 195.5v481q0 12 9 12h38q6 0 8.5 -2t2.5 -9v-501q0 -191 197 -191q100 0 149.5 48t49.5 146v499q0 10 9 10h32q8 0 8 -10v-498q0 -123 -62.5 -183.5z" />
<glyph unicode="V" horiz-adv-x="694" d="M642.5 739q2.5 -3 0.5 -7l-261 -720q-2 -7 -6 -9.5t-11 -2.5h-40q-17 0 -20 11l-254 720l-1 3q0 8 10 8h34q6 0 9 -2t4 -7l231 -655q3 -10 8 -10q3 0 8 11l236 655q3 8 12 8h33q5 0 7.5 -3z" />
<glyph unicode="W" horiz-adv-x="1027" d="M973.5 739q2.5 -3 0.5 -8l-207 -719q-2 -7 -5.5 -9.5t-11.5 -2.5h-38q-16 0 -20 11l-176 629q-1 4 -2 4t-2 -4l-180 -628q-2 -7 -6 -9.5t-12 -2.5h-39q-15 0 -19 11l-202 719l-1 4q0 8 11 8h33q7 0 9.5 -2t4.5 -7l180 -645q3 -10 6 -10t6 11l183 645q4 8 15 8h32 q7 0 9 -2t4 -7l180 -645q3 -10 6 -10t6 11l184 645q1 8 13 8h31q5 0 7.5 -3z" />
<glyph unicode="X" horiz-adv-x="668" d="M618 5q0 -5 -9 -5h-45q-3 0 -5 1t-4 4l-213 315q-5 8 -9 8q-5 0 -12 -11l-211 -312q-2 -5 -10 -5h-42q-7 0 -7 4q0 3 3 9l239 356q4 5 4 10t-5 12l-230 341q-2 3 -1 6.5t5 3.5h48q9 0 11 -5l200 -299q4 -6 8 -6q5 0 9 7l200 298q3 5 10 5h48q7 0 3 -8l-231 -342 q-4 -5 -4 -10q0 -2 3 -7l243 -362q4 -5 4 -8z" />
<glyph unicode="Y" horiz-adv-x="647" d="M599 738.5q2 -3.5 -1 -8.5l-239 -403q-3 -5 -3.5 -10t-0.5 -13v-290q0 -8 -3.5 -11t-12.5 -3h-29q-12 0 -12 12v283q0 11 -6 21l-243 413q-2 3 -2 7q0 6 10 6h34q7 0 10.5 -2t7.5 -8l204 -348q7 -12 13 -12q4 0 11 10l203 350q4 7 7 8.5t10 1.5h34q6 0 8 -3.5z" />
<glyph unicode="Z" horiz-adv-x="607" d="M55 1.5q-2 1.5 -2 6.5v17q0 8 8 19l413 643q4 7 -4 7h-397q-8 0 -8 8v33q0 7 6 7h475q7 0 7 -7v-19q0 -5 -2.5 -9t-3.5 -5l-418 -646q-2 -4 -1 -6t4 -2h413q7 0 7 -6v-34q0 -8 -8 -8h-482q-5 0 -7 1.5z" />
<glyph unicode="[" horiz-adv-x="272" d="M111 742h139q7 0 7 -5v-30q0 -6 -7 -6h-88q-9 0 -9 -10v-808q0 -4 1 -5.5t5 -1.5h89q8 0 8 -8v-24q0 -5 -1.5 -7t-6.5 -2h-135q-10 0 -10 9l-1 891q0 7 9 7z" />
<glyph unicode="\" horiz-adv-x="331" d="M264 -47l-248 778q-1 2 -1 6q0 5 7 5h32q8 0 9 -7l251 -785q2 -6 -5 -6h-33q-9 0 -12 9z" />
<glyph unicode="]" horiz-adv-x="272" d="M169 -156q0 -9 -10 -9h-135q-5 0 -6.5 2t-1.5 7v24q0 8 8 8h89q4 0 5 1.5t1 5.5v808q0 10 -9 10h-88q-7 0 -7 6v30q0 5 7 5h139q9 0 9 -7z" />
<glyph unicode="^" horiz-adv-x="476" d="M242 453q-2 5 -5 5t-5 -5l-123 -308q-3 -7 -11 -7h-34q-4 0 -5.5 3t0.5 8l143 355q7 17 16 26.5t19 9.5q20 0 35 -36l145 -358l1 -4q0 -6 -8 -6h-33q-10 0 -13 8z" />
<glyph unicode="_" horiz-adv-x="505" d="M437 -95q0 -10 -12 -10l-348 -1q-9 0 -9 8v31q0 8 6 8l355 1q3 0 5.5 -2t2.5 -5v-30z" />
<glyph unicode="`" horiz-adv-x="275" d="M25.5 751q2.5 1 5.5 0l230 -94q6 -4 3 -11l-6 -17q-1 -5 -4 -6.5t-8 0.5l-227 76q-11 4 -8 13l11 35q1 3 3.5 4z" />
<glyph unicode="a" horiz-adv-x="540" d="M216 -10q-79 0 -124.5 39t-45.5 106q0 76 63 120t188 55l99 8q17 2 17 15v30q0 61 -39.5 97.5t-104.5 36.5q-96 0 -162 -89q-3 -5 -5 -6t-6 1l-31 16q-6 4 0 11q33 51 85 80.5t122 29.5q88 0 139 -46t51 -126v-357q0 -11 -11 -11h-25q-10 0 -10 11l-2 57q-1 6 -4 6.5 t-7 -4.5q-82 -80 -187 -80zM399 278l-84 -7q-217 -16 -217 -131q0 -50 35 -78t94 -28q35 0 69 12.5t62 34.5q26 21 40.5 44.5t14.5 45.5v92q0 17 -14 15z" />
<glyph unicode="b" horiz-adv-x="594" d="M100 0q-7 0 -9.5 3t-2.5 11v717q0 11 10 11h31q5 0 7 -2.5t2 -9.5v-251q0 -10 4 -10t9 5q72 66 169 66q108 0 162.5 -76.5t54.5 -196.5q0 -129 -60.5 -203t-167.5 -74q-65 0 -105 25t-60 52q-3 5 -6 5q-4 0 -4 -8l-3 -50q0 -8 -3 -11t-12 -3h-16zM138 178 q0 -39 23.5 -72.5t61.5 -53t79 -19.5q80 0 131 59.5t51 174.5q0 107 -45.5 168.5t-129.5 61.5q-50 0 -94.5 -23.5t-76.5 -60.5v-235z" />
<glyph unicode="c" horiz-adv-x="538" d="M495 429q3 -5 2.5 -7t-3.5 -4l-31 -15q-1 -1 -4 -1t-8 5q-39 49 -73.5 69.5t-76.5 20.5q-58 0 -102.5 -29t-68.5 -81.5t-24 -121.5t24 -121.5t68.5 -81.5t102.5 -29q50 0 89.5 24.5t72.5 74.5q3 5 5 5.5t5 -1.5l28 -15q5 -3 2 -11q-34 -58 -87 -89t-120 -31 q-71 0 -126 34t-85.5 96t-30.5 143q0 80 31 143t86 98.5t125 35.5q126 0 199 -111z" />
<glyph unicode="d" horiz-adv-x="594" d="M458 12v49q0 9 -4 9q-3 0 -8 -5q-20 -20 -37 -34t-50 -27.5t-75 -13.5q-65 0 -117 30t-82 90t-30 146q0 84 30 148.5t84.5 100t126.5 35.5q48 0 81.5 -15t63.5 -39q7 -6 10 -6q5 0 5 13v238q0 6 2 8.5t7 2.5h32q9 0 9 -10v-719q0 -7 -3 -10t-10 -3h-24q-11 0 -11 12z M381 478.5q-37 18.5 -80 18.5q-56 0 -100 -28.5t-69 -82.5t-25 -127q0 -75 25.5 -126t68 -75.5t93.5 -24.5q44 0 81 21.5t59 53.5t22 62v253q-38 37 -75 55.5z" />
<glyph unicode="e" horiz-adv-x="578" d="M132 137q26 -47 71 -75t98 -28q114 0 171 91q6 8 11 3l28 -16q5 -4 1 -11q-71 -111 -213 -111q-72 0 -127.5 34t-86.5 95.5t-31 141.5q0 85 31.5 148.5t87 97t126.5 33.5q107 0 169.5 -70.5t62.5 -196.5v-6q0 -7 -2.5 -10.5t-11.5 -4.5h-404q-7 0 -7 -14q0 -54 26 -101z M462 293q10 0 13.5 3t3.5 11q0 52 -22 95.5t-63 69t-95 25.5q-60 0 -104 -30t-66.5 -77t-21.5 -97h355z" />
<glyph unicode="f" horiz-adv-x="367" d="M342 523v-27q0 -7 -7 -7h-129q-7 0 -7 -8v-469q0 -12 -10 -12h-31q-5 0 -7 2.5t-2 8.5v471q0 7 -6 7h-110q-7 0 -7 7v27q0 7 7 7h109q7 0 7 8v79q0 63 28 94t88 31h74q8 0 8 -8v-25q0 -8 -9 -8h-77q-35 0 -48.5 -19.5t-13.5 -58.5v-86q0 -7 7 -7h130q6 0 6 -7z" />
<glyph unicode="g" horiz-adv-x="586" d="M553 529q4 -3 4 -11v-18q0 -16 -17 -16q-20 -1 -31.5 -3.5t-23.5 -9.5q-13 -7 -17.5 -12t-2.5 -11q1 -3 7 -15.5t9.5 -29t3.5 -34.5q0 -71 -51.5 -115.5t-153.5 -44.5q-77 0 -111 -13.5t-34 -34.5q0 -17 24 -25t81 -11l122 -7q158 -9 158 -136q0 -75 -63.5 -116 t-179.5 -41q-117 0 -180.5 38.5t-63.5 107.5q0 73 92 123q11 6 0 11q-40 17 -40 52q0 19 17.5 37t52.5 29q5 1 5 5t-6 7q-42 23 -61.5 55.5t-19.5 78.5q0 80 56.5 124.5t157.5 44.5q49 0 84 -11.5t61 -33.5q7 -5 10 -5t9 4q47 40 87 40q11 0 15 -3zM398 280.5 q39 30.5 39 90.5q0 61 -39.5 93.5t-116.5 32.5q-76 0 -117.5 -33.5t-41.5 -92.5q0 -58 41 -89.5t118 -31.5q78 0 117 30.5zM186 81q-18 1 -43 -12.5t-43 -38t-18 -53.5q0 -53 53 -82t151 -29q184 0 184 114q0 42 -25.5 64.5t-84.5 25.5z" />
<glyph unicode="h" horiz-adv-x="578" d="M88 10v722q0 10 9 10h29q5 0 7 -2t2 -7v-272q0 -5 2 -6t6 3q63 46 102.5 64t89.5 18q78 0 120 -40t42 -108v-381q0 -11 -11 -11h-29q-10 0 -10 10v365q0 121 -119 121q-48 0 -87.5 -20t-102.5 -70v-396q0 -10 -11 -10h-29q-10 0 -10 10z" />
<glyph unicode="i" horiz-adv-x="226" d="M143 656q0 -16 -14 -16h-34q-12 0 -12 14v74q0 14 13 14h34q5 0 9 -3.5t4 -9.5v-73zM138 13q0 -8 -2.5 -10.5t-10.5 -2.5h-25q-7 0 -9.5 2t-2.5 9v508q0 7 2 9t8 2h30q6 0 8 -2t2 -9v-506z" />
<glyph unicode="j" horiz-adv-x="226" d="M143 656q0 -16 -14 -16h-34q-12 0 -12 14v74q0 14 13 14h34q13 0 13 -13v-73zM112.5 -141q-25.5 -29 -93.5 -29q-25 0 -41 0.5t-20 2.5t-4 7v26q0 7 6 7l57 2q39 1 55 19.5t16 64.5v560q0 11 11 11h30q5 0 7 -2.5t2 -8.5v-565q0 -66 -25.5 -95z" />
<glyph unicode="k" horiz-adv-x="544" d="M514 5q0 -5 -9 -5h-40q-8 0 -13 8l-175 285q-4 5 -9 0l-123 -125q-7 -7 -7 -17v-138q0 -8 -2.5 -10.5t-10.5 -2.5h-25q-7 0 -9.5 2t-2.5 9v720q0 7 2 9t8 2h30q6 0 8 -2t2 -9v-490q0 -10 3 -10q2 0 7 5l276 284q5 6 8.5 8t9.5 2h38q9 0 9 -6q0 -4 -6 -10l-167 -170 q-4 -6 -1 -13l196 -318q3 -4 3 -8z" />
<glyph unicode="l" horiz-adv-x="226" d="M138 13q0 -8 -2.5 -10.5t-10.5 -2.5h-25q-7 0 -9.5 2t-2.5 9v720q0 7 2 9t8 2h30q6 0 8 -2t2 -9v-718z" />
<glyph unicode="m" horiz-adv-x="899" d="M88 10v510q0 10 9 10h29q5 0 7 -2t2 -7v-61q0 -5 2 -6t6 3q59 46 97 64.5t86 18.5q58 0 94 -25.5t48 -61.5q2 -3 4 -3q3 0 11 6q58 46 96.5 65t86.5 19q73 0 112.5 -40t39.5 -108v-381q0 -11 -10 -11h-30q-10 0 -10 10v365q0 121 -109 121q-46 0 -84.5 -21.5t-80.5 -55.5 q-9 -8 -12.5 -14t-3.5 -16v-378q0 -11 -10 -11h-30q-10 0 -10 10v365q0 121 -109 121q-46 0 -84 -20t-97 -70v-396q0 -10 -11 -10h-29q-10 0 -10 10z" />
<glyph unicode="n" horiz-adv-x="578" d="M88 10v510q0 10 9 10h29q5 0 7 -2t2 -7v-61q0 -5 2 -6t6 3q63 46 102.5 64.5t89.5 18.5q78 0 120 -40t42 -108v-381q0 -11 -11 -11h-29q-10 0 -10 10v365q0 121 -119 121q-48 0 -87.5 -20t-102.5 -70v-396q0 -10 -11 -10h-29q-10 0 -10 10z" />
<glyph unicode="o" horiz-adv-x="598" d="M170.5 24.5q-55.5 34.5 -86 96t-30.5 141.5q0 81 31 144t87 98.5t128 35.5t127.5 -35t86 -98t30.5 -143t-30.5 -142.5t-86 -97t-128.5 -34.5t-128.5 34.5zM441 96.5q51 62.5 51 167.5q0 106 -52 169.5t-140 63.5q-59 0 -103 -29t-67.5 -82t-23.5 -122q0 -105 52.5 -167.5 t142.5 -62.5q89 0 140 62.5z" />
<glyph unicode="p" horiz-adv-x="592" d="M136 518v-49q0 -9 4 -9q3 0 23.5 22t56.5 40t90 18q65 0 116 -30t80.5 -89.5t29.5 -145.5q0 -85 -29.5 -149.5t-83 -100t-125.5 -35.5q-46 0 -83 14.5t-63 35.5q-5 5 -10 5q-4 0 -4 -12v-187q0 -6 -2 -8.5t-8 -2.5h-31q-9 0 -9 10v672q0 8 3 10.5t10 2.5h24q11 0 11 -12z M212.5 52q37.5 -19 79.5 -19q56 0 99.5 28.5t68 82.5t24.5 127q0 75 -25 126t-67 75.5t-92 24.5q-46 0 -83 -20.5t-58 -51.5t-21 -61v-257q37 -36 74.5 -55z" />
<glyph unicode="q" horiz-adv-x="594" d="M495 530q6 0 9 -3t3 -11v-670q0 -11 -10 -11h-32q-4 0 -6 2.5t-2 9.5v187q0 13 -4 13q-3 0 -11 -6q-29 -22 -69 -36.5t-86 -14.5q-71 0 -123 34.5t-80 97.5t-28 146q0 124 61 198t169 74q49 0 82.5 -12.5t44.5 -21t38 -34.5q4 -4 6 -4q4 0 5 7l4 41q2 9 4.5 11.5 t11.5 2.5h13zM457 352q0 37 -21.5 70.5t-59 54t-82.5 20.5q-52 0 -94.5 -25.5t-67 -77t-24.5 -125.5q0 -73 24 -126.5t66.5 -81.5t97.5 -28q45 0 88 20t73 54v245z" />
<glyph unicode="r" horiz-adv-x="362" d="M88 10v510q0 10 9 10h29q9 0 9 -9v-67q0 -5 2 -6t6 3q43 47 80.5 68t77.5 21q19 0 27 -2.5t8 -8.5v-33q0 -6 -5 -6l-34 1q-32 0 -69.5 -19.5t-63.5 -49.5t-26 -61v-351q0 -10 -11 -10h-29q-10 0 -10 10z" />
<glyph unicode="s" horiz-adv-x="504" d="M339 477.5q-40 19.5 -92 19.5q-63 0 -103 -27t-40 -73q0 -26 20.5 -48t72.5 -38l134 -43q60 -18 89.5 -51.5t29.5 -77.5q0 -43 -27 -77t-73.5 -53t-104.5 -19q-74 0 -132.5 30.5t-83.5 80.5q-3 7 2 11l27 16q2 2 5.5 1.5t4.5 -2.5q26 -45 71 -69.5t106 -24.5q66 0 110 28 t44 72q0 33 -26.5 56t-86.5 41l-103 31q-71 21 -100 52.5t-29 74.5q0 68 54.5 110t139.5 42q63 0 113.5 -24t79.5 -68q3 -6 -1 -10l-28 -16q-2 -2 -5 -1.5t-5 2.5q-23 35 -63 54.5z" />
<glyph unicode="t" horiz-adv-x="365" d="M188 489q-8 0 -8 -8v-353q0 -51 15 -69t48 -18h77q8 0 8 -7v-21q0 -8 -7 -9q-20 -4 -82 -4q-60 0 -84.5 27.5t-24.5 92.5v361q0 8 -7 8h-90q-7 0 -7 7v27q0 7 7 7h91q7 0 7 7l9 162q0 6 2 8.5t7 2.5h22q10 0 10 -12v-161q0 -7 7 -7h136q7 0 7 -7v-27q0 -4 -1.5 -5.5 t-5.5 -1.5h-136z" />
<glyph unicode="u" horiz-adv-x="573" d="M340 59.5q45 25.5 95 75.5v385q0 10 11 10h29q10 0 10 -10v-510q0 -10 -9 -10h-29q-5 0 -7 2t-2 7v63q0 5 -2 6t-6 -3q-59 -48 -102 -66.5t-85 -18.5q-70 0 -116.5 41.5t-46.5 106.5v381q0 11 10 11h30q10 0 10 -10v-360q0 -57 31.5 -91.5t86.5 -34.5q47 0 92 25.5z" />
<glyph unicode="v" horiz-adv-x="534" d="M501.5 527q2.5 -3 0.5 -7l-205 -508q-5 -12 -20 -12h-19q-15 0 -21 11l-205 508l-1 3q0 8 10 8h31q10 0 13 -9l177 -440q3 -10 7 -10t9 11l177 440q3 8 12 8h27q5 0 7.5 -3z" />
<glyph unicode="w" horiz-adv-x="786" d="M749.5 527q2.5 -3 0.5 -7l-148 -509q-3 -11 -17 -11h-32q-16 0 -19 11l-135 422q-3 8 -6 8q-2 0 -5 -8l-126 -422q-3 -11 -16 -11h-35q-16 0 -19 11l-156 508l-1 4q0 7 9 7h32q10 0 13 -9l134 -440q3 -10 7 -10t7 11l134 441q2 7 11 7h28q10 0 13 -9l141 -440 q3 -10 6 -10q4 0 7 11l129 440q3 8 14 8h22q5 0 7.5 -3z" />
<glyph unicode="x" horiz-adv-x="522" d="M490 4q0 -4 -7 -4h-42q-11 0 -14 6l-160 217q-3 6 -7 6q-3 0 -8 -6l-167 -217q-3 -6 -14 -6h-30q-10 0 -10 6q0 5 5 10l191 242q3 5 3 9t-3 10l-180 242q-2 4 -2 5q0 2 2 4t6 2h39q4 0 7 -1t6 -5l155 -208q5 -5 8 -5q4 0 7 5l152 208q2 4 4.5 5t8.5 1h33q5 0 6 -3t-1 -6 l-180 -238q-3 -4 -3 -8q0 -6 4 -10l186 -251q5 -5 5 -10z" />
<glyph unicode="y" horiz-adv-x="513" d="M57 -163.5q-13 1.5 -13 9.5v20q0 7 5.5 9.5t23.5 2.5h61q25 0 46 20t33.5 50.5t12.5 58.5q0 19 -5 30l-189 480q-1 2 -1 5q0 8 10 8h30q10 0 13 -9l168 -431q3 -9 8 -9q6 0 10 13l165 428q3 8 11 8h28q4 0 6.5 -3.5t0.5 -6.5l-227 -590q-20 -53 -55.5 -74t-90.5 -21 q-38 0 -51 1.5z" />
<glyph unicode="z" horiz-adv-x="463" d="M36.5 1.5q-1.5 1.5 -1.5 6.5v25q0 9 9 21l314 427q3 4 2 6.5t-5 2.5h-290q-5 0 -6.5 1.5t-1.5 6.5v24q0 8 7 8h350q6 0 6 -7v-26q0 -12 -8 -23l-315 -426q-6 -7 3 -7h319q7 0 7 -7v-25q0 -9 -9 -9h-375q-4 0 -5.5 1.5z" />
<glyph unicode="{" horiz-adv-x="276" d="M145 717q29 25 84 25h24q8 0 8 -5v-30q0 -6 -8 -6h-22q-35 0 -49.5 -12.5t-14.5 -40.5v-231q0 -57 -26.5 -89t-68.5 -36q-6 -1 -6.5 -3.5t6.5 -3.5q42 -3 68.5 -33t26.5 -88v-233q0 -29 14 -42t51 -13h20q9 0 9 -8v-24q0 -5 -2 -7t-7 -2h-22q-57 0 -85.5 26t-28.5 69v232 q0 25 -13 49.5t-38 40.5t-60 16q-5 0 -5 7v28q0 7 5 7q54 1 82.5 31.5t28.5 77.5v230q0 43 29 68z" />
<glyph unicode="|" horiz-adv-x="266" d="M119 -165q-8 0 -8 7l-1 997q0 8 7 8h30q9 0 9 -11v-992q0 -9 -8 -9h-29z" />
<glyph unicode="}" horiz-adv-x="276" d="M160 419q0 -47 28.5 -77.5t82.5 -31.5q5 0 5 -7v-28q0 -7 -5 -7q-35 0 -60 -16t-38 -40.5t-13 -49.5v-232q0 -43 -28.5 -69t-85.5 -26h-22q-5 0 -7 2t-2 7v24q0 8 9 8h20q37 0 51 13t14 42v233q0 58 26.5 88t68.5 33q7 1 6.5 3.5t-6.5 3.5q-42 4 -68.5 36t-26.5 89v231 q0 28 -14.5 40.5t-49.5 12.5h-22q-8 0 -8 6v30q0 5 8 5h24q55 0 84 -25t29 -68v-230z" />
<glyph unicode="~" horiz-adv-x="548" d="M438 343.5q-28 -12.5 -67 -12.5q-28 0 -50.5 6t-49.5 18q-28 12 -46 17t-40 5q-59 0 -101 -40q-4 -4 -6 -3.5t-4 5.5l-9 22q-3 8 2 10q27 23 52 35.5t62 12.5q24 0 44 -5.5t53 -17.5q27 -11 48 -17t45 -6q34 0 54 10t36 27q3 3 6 3t6 -6l10 -23q1 -1 1 -4q0 -4 -4 -8 q-14 -16 -42 -28.5z" />
<glyph unicode="&#xa1;" horiz-adv-x="235" d="M145 444h-55q-8 0 -8 9v66q0 6 2 8.5t9 2.5h46q8 0 11 -2.5t3 -9.5v-66q0 -8 -8 -8zM143 -165h-51q-6 0 -6 8l13 524q0 8 9 8h17q11 0 12 -10l13 -523q0 -7 -7 -7z" />
<glyph unicode="&#xa2;" horiz-adv-x="558" d="M503 221q-33 -55 -82.5 -86t-111.5 -34v-87q0 -14 -14 -14h-19q-7 0 -10 3t-3 10v90q-63 8 -110 44t-73 94.5t-26 132.5t26.5 133t73.5 96.5t109 45.5v83q0 10 10 10h27q9 0 9 -9v-82q117 -5 186 -111q3 -5 2.5 -7t-3.5 -4l-31 -15q-1 -1 -4 -1t-8 5q-39 49 -73.5 69.5 t-76.5 20.5q-58 0 -102.5 -29t-68.5 -81.5t-24 -121.5t24 -121.5t68.5 -81.5t102.5 -29q50 0 89.5 24.5t72.5 74.5q3 5 5 5.5t5 -1.5l28 -15q5 -3 2 -11z" />
<glyph unicode="&#xa3;" horiz-adv-x="601" d="M12 9v30q0 8 8 8h33q42 -1 69.5 42t27.5 126q0 53 -12 137q-1 5 -6 5h-92q-5 0 -5 7v29q0 6 5 6h82q8 0 7 7l-17 72q-9 38 -9 71q0 61 27 107t73 71t101 25q61 0 114 -29t69 -68l1 -2q0 -3 -3.5 -4.5t-4.5 -2.5l-30 -12q-2 -1 -5 -1q-4 0 -7 4q-36 65 -130 65 q-65 0 -108.5 -37t-43.5 -100q0 -38 8.5 -83.5t18.5 -75.5q2 -6 6 -6h168q6 0 6 -5v-31q0 -6 -6 -6h-157q-8 0 -8 -7q12 -57 12 -118q-1 -70 -17.5 -113.5t-35.5 -64.5q-7 -7 2 -7h203q54 0 89 17.5t53 58.5q2 3 5 4.5t6 0.5l28 -10q8 -3 6 -9q-22 -55 -70 -82.5t-116 -27.5 h-336q-9 0 -9 9z" />
<glyph unicode="&#xa4;" horiz-adv-x="518" d="M158 230q-7 5 -12 -1l-41 -42q-4 -4 -9 -4t-10 4l-14 15q-4 4 -4 9q0 4 4 8l41 41q3 5 3 8q0 5 -3 9q-28 42 -28 96q0 55 31 99q4 8 -1 13l-41 41q-4 5 -4 10t4 9l14 14q5 5 9 5q3 0 8 -5l42 -42q5 -5 12 -1q44 30 99 30t98 -31q8 -4 13 1l46 46q7 7 13 0l20 -20 q5 -6 0 -12l-47 -47q-5 -5 -1 -11q31 -46 31 -99q0 -55 -31 -97q-3 -9 1 -13l47 -46q6 -7 0 -13l-20 -20q-6 -6 -11 0l-46 45q-3 3 -6 4t-6 -1q-46 -33 -101 -33t-100 31zM323.5 265.5q28.5 17.5 45 46t16.5 61.5t-16.5 61.5t-45 46t-63.5 17.5t-63.5 -17.5t-45 -46 t-16.5 -61.5t16.5 -61.5t45 -46t63.5 -17.5t63.5 17.5z" />
<glyph unicode="&#xa5;" horiz-adv-x="585" d="M567 738.5q2 -3.5 -1 -8.5l-234 -391h144q8 0 8 -7v-26q0 -9 -12 -9h-148v-100h152q8 0 8 -7v-26q0 -9 -12 -9h-148v-141q0 -8 -3.5 -11t-12.5 -3h-28q-13 0 -13 12v142h-150q-5 0 -7 1.5t-2 6.5v26q0 8 6 8h153v100h-150q-5 0 -7 1.5t-2 6.5v26q0 8 6 8h137l-231 391 q-2 4 -2 7q0 6 11 6h38q7 0 10 -2t7 -8l203 -349q1 -1 3.5 -5.5t5.5 -4.5q4 0 8 9l208 350q4 7 6.5 8.5t10.5 1.5h30q6 0 8 -3.5z" />
<glyph unicode="&#xa6;" horiz-adv-x="266" d="M119 442q-8 0 -8 7l-1 390q0 8 7 8h30q9 0 9 -11v-386q0 -8 -8 -8h-29zM119 -165q-8 0 -8 7l-1 390q0 8 7 8h30q9 0 9 -10v-386q0 -9 -8 -9h-29z" />
<glyph unicode="&#xa7;" horiz-adv-x="480" d="M411 137.5q25 -31.5 25 -71.5q0 -38 -23.5 -69t-65.5 -48.5t-96 -17.5q-64 0 -121 30t-84 81q-2 3 -2 5.5t2 3.5l28 17q7 4 10 -2q26 -41 70 -65.5t99 -24.5q58 0 94.5 23t36.5 65q0 32 -25.5 59t-88.5 52l-97 37q-61 24 -89 58.5t-28 80.5t30 80.5t79 51.5 q-63 32 -86 64.5t-23 72.5q0 37 23 67.5t64 47.5t94 17q58 0 105 -26t74 -66q5 -7 0 -10l-25 -15q-4 -2 -7.5 -1.5t-5.5 2.5q-26 33 -60.5 52t-75.5 19q-63 0 -98.5 -22.5t-35.5 -60.5q0 -29 21 -54t77 -47l89 -37q75 -31 108 -70t33 -90q0 -48 -27 -78.5t-72 -50.5 q49 -28 74 -59.5zM327 236q26 12 41.5 34t15.5 48q0 40 -20 66.5t-76 49.5l-63 25q-47 -5 -82.5 -35.5t-35.5 -67.5q0 -33 20 -55t77 -46l69 -29q28 -2 54 10z" />
<glyph unicode="&#xa8;" horiz-adv-x="197" d="M68 654q0 -7 -3 -10t-10 -3h-33q-7 0 -9.5 2.5t-2.5 8.5v79q0 7 2 9t7 2h39q5 0 7.5 -2t2.5 -8v-78zM187 654q0 -7 -3 -10t-10 -3h-33q-7 0 -9.5 2.5t-2.5 8.5v79q0 7 2 9t8 2h38q5 0 7.5 -2t2.5 -8v-78z" />
<glyph unicode="&#xa9;" horiz-adv-x="830" d="M223.5 41q-87.5 51 -138.5 138.5t-51 191.5q0 103 51 190.5t138.5 139t191.5 51.5q103 0 190.5 -51.5t139 -139t51.5 -190.5q0 -104 -51.5 -191.5t-139 -138.5t-190.5 -51q-104 0 -191.5 51zM580 79.5q76 41.5 121.5 117.5t45.5 174q0 97 -45.5 173t-122 118.5 t-164.5 42.5q-90 0 -166 -42t-121 -118.5t-45 -173.5q0 -99 45 -174.5t121 -117t166 -41.5q89 0 165 41.5zM506 565q38 -25 69 -69q3 -4 -1 -8l-33 -16h-1q-4 0 -7 5q-46 70 -112 70q-63 0 -102.5 -47.5t-39.5 -124.5q0 -78 39.5 -125.5t102.5 -47.5q39 0 71 21t52 57 q2 5 10 1l23 -12q5 -3 2 -9q-28 -47 -69.5 -74t-92.5 -27q-56 0 -99 27t-66.5 75.5t-23.5 111.5t24 112.5t67 77t98 27.5q51 0 89 -25z" />
<glyph unicode="&#xaa;" horiz-adv-x="405" d="M284 719q33 -30 33 -84v-163q0 -17 1.5 -26.5t7.5 -25.5l1 -3q0 -6 -8 -6h-28q-9 0 -10 7l-5 36q-1 4 -2.5 4t-6.5 -3q-27 -26 -52.5 -38t-57.5 -12q-52 0 -81.5 24.5t-29.5 67.5q0 94 161 109l58 6q11 2 11 9v17q0 75 -89 75q-31 0 -53 -11t-40 -38q-3 -4 -9 -2l-27 10 q-1 1 -1 3.5t1 4.5q17 33 51.5 51t81.5 18q60 0 93 -30zM111.5 456q21.5 -16 57.5 -16q44 0 78 31q29 26 29 50v48q0 6 -2.5 8t-8.5 1l-47 -4q-128 -10 -128 -76q0 -26 21.5 -42z" />
<glyph unicode="&#xab;" horiz-adv-x="427" d="M206 82l1 -2q0 -3 -8 -3h-16q-7 0 -9 4l-135 168q-5 8 -1 15l137 178q3 4 8 4h18q3 0 5 -2.5t0 -5.5l-110 -175q-4 -7 0 -12zM376 82l1 -2q0 -3 -9 -3h-16q-6 0 -8 4l-135 168q-6 7 -1 15l137 178q3 4 7 4h18q4 0 6 -2t0 -6l-111 -175q-4 -7 0 -12z" />
<glyph unicode="&#xac;" horiz-adv-x="545" d="M477 388v-169q0 -10 -9 -10h-28q-8 0 -8 7l-1 135l-354 -1q-5 0 -7 1.5t-2 6.5v28q0 8 6 8l395 1q8 0 8 -7z" />
<glyph unicode="&#xad;" horiz-adv-x="381" d="M313 252q0 -9 -12 -9l-224 -1q-5 0 -7 1.5t-2 6.5v30q0 8 6 8l231 1q8 0 8 -7v-30z" />
<glyph unicode="&#xae;" horiz-adv-x="545" d="M153 307q-55 32 -87 86.5t-32 119.5t32 120t87 87t120 32q64 0 119 -32t87 -87t32 -120t-32 -119.5t-86.5 -86.5t-119.5 -32t-120 32zM376.5 336.5q45.5 24.5 70.5 70t25 106.5q0 60 -25 106t-70.5 71t-103.5 25q-59 0 -104.5 -25t-70.5 -71t-25 -106q0 -92 55 -146.5 t145 -54.5q58 0 103.5 24.5zM353 393h-27q-2 0 -4 3l-40 107q0 1 -0.5 2t-7.5 1h-53q-4 0 -4 -4v-105q0 -2 -1 -3t-3 -1h-25q-3 0 -3 3v230q0 4 2 4h101q36 0 55.5 -15t19.5 -43q0 -47 -48 -62q-1 0 -1.5 -1t0.5 -2l42 -109q2 -5 -3 -5zM330 568q0 33 -52 33h-57 q-1 0 -2.5 1t-1.5 -4v-59q0 -4 3 -4h61q49 0 49 33z" />
<glyph unicode="&#xaf;" horiz-adv-x="282" d="M272 689q0 -5 -2.5 -7t-8.5 -2h-243q-5 0 -6.5 2t-1.5 7v26q0 8 6 8h250q6 0 6 -6v-28z" />
<glyph unicode="&#xb0;" horiz-adv-x="464" d="M341 597q-43 -43 -109 -43t-109 42.5t-43 109.5t43 109.5t109 42.5t109 -43t43 -109t-43 -109zM308 784.5q-29 30.5 -78 30.5q-48 0 -77 -30t-29 -78q0 -51 28.5 -82t78.5 -31q48 0 77 30.5t29 80.5q0 49 -29 79.5z" />
<glyph unicode="&#xb1;" horiz-adv-x="545" d="M474.5 465q2.5 -2 2.5 -5v-28q0 -10 -12 -10h-171v-174q0 -8 -7 -8h-27q-5 0 -7 2.5t-2 8.5v170h-174q-9 0 -9 9v28q0 8 6 8h176v173q0 5 1.5 7t6.5 2h28q8 0 8 -5v-176h175q3 0 5.5 -2zM477 117v-28q0 -9 -12 -9l-388 -1q-5 0 -7 1.5t-2 6.5v28q0 8 6 8l395 1q8 0 8 -7z " />
<glyph unicode="&#xb2;" horiz-adv-x="452" d="M206 576q51 51 72.5 86t21.5 72q0 44 -31.5 68t-72.5 24q-32 0 -63.5 -15t-51.5 -45q-4 -6 -11 -1l-13 10q-4 3 -4 5t3 6q25 36 64 53.5t80 17.5q57 0 96.5 -31.5t39.5 -94.5q0 -41 -23.5 -78t-83.5 -97l-132 -132q-3 -4 -2 -6t6 -2h234q6 0 6 -6v-20q0 -6 -6 -6h-274 q-8 0 -8 8v16q0 7 2 11.5t8 10.5z" />
<glyph unicode="&#xb3;" horiz-adv-x="467" d="M80 797q30 31 63.5 45.5t73.5 14.5q66 0 107 -33t41 -83q0 -36 -22 -63.5t-60 -41.5q-7 -1 -7 -4q0 -2 7 -3q41 -11 69 -42.5t28 -76.5q0 -57 -45 -94.5t-127 -37.5q-45 0 -80.5 14.5t-67.5 46.5q-2 2 -2 3.5t3 3.5l16 15q4 4 8 0q27 -28 57.5 -40t69.5 -12 q61 0 96.5 27.5t35.5 71.5q0 50 -40 78t-94 28h-57q-6 0 -6 5v20q0 5 6 5h46q54 0 92 27.5t38 68.5q0 36 -31.5 61t-79.5 25q-66 0 -117 -49q-3 -3 -5 -3t-5 3l-11 11q-4 5 0 9z" />
<glyph unicode="&#xb4;" horiz-adv-x="275" d="M264 712l1 -4q0 -6 -9 -9l-227 -76q-2 -1 -5 -1q-6 0 -7 7l-6 17q-1 1 -1 4q0 5 4 7l230 94q3 1 5.5 0t3.5 -4z" />
<glyph unicode="&#xb6;" horiz-adv-x="540" d="M403 705q-4 0 -4 -5v-779q0 -6 -5 -6h-29q-6 0 -6 6v780q0 4 -5 4h-35q-5 0 -5 -5v-779q0 -6 -6 -6h-28q-6 0 -6 6v380q0 3 -4 3q-67 0 -116 29.5t-74.5 78t-25.5 103.5q0 58 26.5 110t79 84.5t126.5 32.5h168q5 0 5 -5v-28q0 -2 -1.5 -3t-3.5 -1h-51z" />
<glyph unicode="&#xb7;" horiz-adv-x="179" d="M133 343q0 -7 -3 -9.5t-11 -2.5h-63q-7 0 -9 2.5t-2 8.5v64q0 10 8 10h73q7 0 7 -8v-65z" />
<glyph unicode="&#xb8;" horiz-adv-x="202" d="M163 -185.5q-29 -19.5 -73 -19.5t-77 21q-4 2 -3 7l10 21q2 4 7 1q12 -9 24.5 -13.5t32.5 -4.5q60 0 60 42q0 23 -19 34t-59 13q-7 0 -5 5l36 84h37l-23 -59q-1 -4 3 -4q42 -3 60 -23.5t18 -48.5q0 -36 -29 -55.5z" />
<glyph unicode="&#xb9;" horiz-adv-x="367" d="M256 407v-23q0 -4 -5 -4h-206q-4 0 -4 4v23q0 4 4 4h86q5 0 5 3v386q0 5 -5 4l-85 -34q-6 -1 -6 5v18q0 3 1.5 4.5t2.5 1.5l88 44q8 4 15 4h19q5 0 5 -7v-425q0 -4 4 -4h76q5 0 5 -4z" />
<glyph unicode="&#xba;" horiz-adv-x="417" d="M321.5 703.5q41.5 -47.5 41.5 -126.5q0 -76 -41 -123t-114 -47t-113.5 47t-40.5 123q0 78 42 126t112 48q72 0 113.5 -47.5zM128 677q-28 -36 -28 -97q0 -64 28 -100.5t80 -36.5q53 0 81 36.5t28 100.5q0 61 -28 97t-81 36q-52 0 -80 -36z" />
<glyph unicode="&#xbb;" horiz-adv-x="426" d="M161 263l-111 175q-1 1 -1 3q0 5 7 5h17q5 0 8 -4l137 -178q2 -4 2 -7t-3 -8l-135 -168q-2 -4 -9 -4h-15q-10 0 -8 5l111 169q4 6 0 12zM330 263l-110 175q-2 3 0 5.5t5 2.5h18q4 0 8 -4l137 -178q3 -3 3 -7t-4 -8l-135 -168q-4 -4 -9 -4h-16q-9 0 -7 5l110 169q5 6 0 12 z" />
<glyph unicode="&#xbc;" horiz-adv-x="867" d="M222 303v-23q0 -4 -5 -4h-206q-4 0 -4 4v23q0 4 4 4h86q5 0 5 3v386q0 5 -5 4l-85 -34q-6 -1 -6 5v18q0 3 1.5 4.5t2.5 1.5l88 44q8 4 15 4h19q5 0 5 -7v-425q0 -4 4 -4h76q5 0 5 -4zM198 4q-3 -5 -6 -6.5t-10 -1.5h-18q-9 0 -9 6q0 4 3 8l488 735q4 5 13 5h23q10 0 5 -9 zM740 467h25q6 0 6 -7v-291q0 -6 5 -6h63q6 0 6 -4v-20q0 -6 -6 -6h-63q-5 0 -5 -7v-120q0 -6 -7 -6h-23q-6 0 -6 6v122q0 5 -5 5h-211q-7 0 -7 6v23q0 7 6 15l212 286q4 4 10 4zM727 163q2 0 4 1t2 3v236q0 8 -3 8q-1 0 -6 -5l-174 -235q-5 -8 5 -8h172z" />
<glyph unicode="&#xbd;" horiz-adv-x="929" d="M222 303v-23q0 -4 -5 -4h-206q-4 0 -4 4v23q0 4 4 4h86q5 0 5 3v386q0 5 -5 4l-85 -34q-6 -1 -6 5v18q0 3 1.5 4.5t2.5 1.5l88 44q8 4 15 4h19q5 0 5 -7v-425q0 -4 4 -4h76q5 0 5 -4zM249 4q-3 -5 -6 -6.5t-10 -1.5h-18q-9 0 -9 6q0 4 3 8l488 735q4 5 13 5h23q10 0 5 -9 zM742 192q51 51 72.5 86t21.5 72q0 44 -31.5 68t-72.5 24q-32 0 -63.5 -15t-51.5 -45q-4 -6 -11 -1l-13 10q-4 3 -4 5t3 6q25 36 64 53.5t80 17.5q57 0 96.5 -31.5t39.5 -94.5q0 -41 -23.5 -78t-83.5 -97l-132 -132q-3 -4 -2 -6t6 -2h234q6 0 6 -6v-20q0 -6 -6 -6h-274 q-8 0 -8 8v16q0 7 2 11.5t8 10.5z" />
<glyph unicode="&#xbe;" horiz-adv-x="893" d="M46 692q30 31 63.5 45.5t73.5 14.5q66 0 107 -33t41 -83q0 -36 -22 -63.5t-60 -41.5q-7 -1 -7 -4q0 -2 7 -3q41 -11 69 -42.5t28 -76.5q0 -57 -45 -94.5t-127 -37.5q-45 0 -80.5 14.5t-67.5 46.5q-2 2 -2 3.5t3 3.5l16 15q4 4 8 0q27 -28 57.5 -40t69.5 -12 q61 0 96.5 27.5t35.5 71.5q0 50 -40 78t-94 28h-57q-6 0 -6 5v20q0 5 6 5h46q54 0 92 27.5t38 68.5q0 36 -31.5 61t-79.5 25q-66 0 -117 -49q-3 -3 -5 -3t-5 3l-11 11q-4 5 0 9zM298 4q-3 -5 -6 -6.5t-10 -1.5h-18q-9 0 -9 6q0 4 3 8l488 735q4 5 13 5h23q10 0 5 -9z M766 467h25q6 0 6 -7v-291q0 -6 5 -6h63q6 0 6 -4v-20q0 -6 -6 -6h-63q-5 0 -5 -7v-120q0 -6 -7 -6h-23q-6 0 -6 6v122q0 5 -5 5h-211q-7 0 -7 6v23q0 7 6 15l212 286q4 4 10 4zM753 163q2 0 4 1t2 3v236q0 8 -3 8q-1 0 -6 -5l-174 -235q-5 -8 5 -8h172z" />
<glyph unicode="&#xbf;" horiz-adv-x="508" d="M228 518q0 7 3.5 9.5t11.5 2.5h46q11 0 11 -11v-66q0 -9 -8 -9h-56q-8 0 -8 8v66zM471 -44q1 -3 -1 -5q-32 -58 -93 -92t-134 -34q-98 0 -155.5 49.5t-57.5 131.5q0 38 13.5 67.5t33.5 50.5t53 50q36 30 57.5 54t36.5 57.5t15 78.5q0 4 2.5 6.5t5.5 2.5h32q9 0 9 -10 q0 -51 -16 -88.5t-38.5 -63t-59.5 -57.5q-45 -40 -67 -71t-22 -76q0 -61 43.5 -97.5t115.5 -36.5q55 0 108 29t70 69q1 3 3 4t6 0l36 -15q3 -1 4 -4z" />
<glyph unicode="&#xc0;" horiz-adv-x="706" d="M51 11l264 719q2 7 6 9.5t11 2.5h43q16 0 19 -11l261 -719l1 -4q0 -8 -9 -8h-35q-11 0 -14 9l-78 216q-3 7 -10 7h-316q-7 0 -10 -7l-80 -217q-1 -8 -12 -8h-33q-11 0 -8 11zM490 280q11 0 8 11l-138 376q-3 10 -7 10q-3 0 -8 -11l-140 -377q-1 -2 -1 -5q0 -4 7 -4h279z M224.5 963q2.5 1 5.5 0l230 -94q6 -4 3 -11l-6 -17q-1 -5 -4 -6.5t-8 0.5l-227 76q-11 4 -8 13l11 35q1 3 3.5 4z" />
<glyph unicode="&#xc1;" horiz-adv-x="706" d="M51 11l264 719q2 7 6 9.5t11 2.5h43q16 0 19 -11l261 -719l1 -4q0 -8 -9 -8h-35q-11 0 -14 9l-78 216q-3 7 -10 7h-316q-7 0 -10 -7l-80 -217q-1 -8 -12 -8h-33q-11 0 -8 11zM490 280q11 0 8 11l-138 376q-3 10 -7 10q-3 0 -8 -11l-140 -377q-1 -2 -1 -5q0 -4 7 -4h279z M479 924l1 -4q0 -6 -9 -9l-227 -76q-2 -1 -5 -1q-6 0 -7 7l-6 17q-1 1 -1 4q0 5 4 7l230 94q3 1 5.5 0t3.5 -4z" />
<glyph unicode="&#xc2;" horiz-adv-x="706" d="M51 11l264 719q2 7 6 9.5t11 2.5h43q16 0 19 -11l261 -719l1 -4q0 -8 -9 -8h-35q-11 0 -14 9l-78 216q-3 7 -10 7h-316q-7 0 -10 -7l-80 -217q-1 -8 -12 -8h-33q-11 0 -8 11zM490 280q11 0 8 11l-138 376q-3 10 -7 10q-3 0 -8 -11l-140 -377q-1 -2 -1 -5q0 -4 7 -4h279z M363 908q-8 6 -10 6q-3 0 -10 -6l-61 -49q-4 -3 -7.5 -4.5t-8.5 -1.5h-41q-5 0 -6 3t4 7l100 82q10 10 21 10h23q7 0 11.5 -4t5.5 -5l98 -83q6 -5 6 -7.5t-7 -2.5h-45q-8 0 -15 6z" />
<glyph unicode="&#xc3;" horiz-adv-x="706" d="M51 11l264 719q2 7 6 9.5t11 2.5h43q16 0 19 -11l261 -719l1 -4q0 -8 -9 -8h-35q-11 0 -14 9l-78 216q-3 7 -10 7h-316q-7 0 -10 -7l-80 -217q-1 -8 -12 -8h-33q-11 0 -8 11zM490 280q11 0 8 11l-138 376q-3 10 -7 10q-3 0 -8 -11l-140 -377q-1 -2 -1 -5q0 -4 7 -4h279z M412 881q-18 0 -32 3.5t-33 9.5q-29 11 -52 11q-17 0 -27.5 -4t-18 -9t-11.5 -7t-6 -2q-3 0 -6 6l-7 19q-1 3 -0.5 5t2.5 4q18 13 33.5 20t36.5 7q25 0 62 -13q38 -12 60 -12q16 0 26.5 3.5t25.5 12.5q5 3 7 3q3 0 6 -6l9 -21q1 -1 1 -3q0 -4 -7 -7q-29 -20 -69 -20z" />
<glyph unicode="&#xc4;" horiz-adv-x="706" d="M51 11l264 719q2 7 6 9.5t11 2.5h43q16 0 19 -11l261 -719l1 -4q0 -8 -9 -8h-35q-11 0 -14 9l-78 216q-3 7 -10 7h-316q-7 0 -10 -7l-80 -217q-1 -8 -12 -8h-33q-11 0 -8 11zM490 280q11 0 8 11l-138 376q-3 10 -7 10q-3 0 -8 -11l-140 -377q-1 -2 -1 -5q0 -4 7 -4h279z M322 866q0 -7 -3 -10t-10 -3h-33q-7 0 -9.5 2.5t-2.5 8.5v79q0 7 2 9t7 2h39q5 0 7.5 -2t2.5 -8v-78zM441 866q0 -7 -3 -10t-10 -3h-33q-7 0 -9.5 2.5t-2.5 8.5v79q0 7 2 9t8 2h38q5 0 7.5 -2t2.5 -8v-78z" />
<glyph unicode="&#xc5;" horiz-adv-x="706" d="M51 11l264 719q2 7 6 9.5t11 2.5h43q16 0 19 -11l261 -719l1 -4q0 -8 -9 -8h-35q-11 0 -14 9l-78 216q-3 7 -10 7h-316q-7 0 -10 -7l-80 -217q-1 -8 -12 -8h-33q-11 0 -8 11zM490 280q11 0 8 11l-138 376q-3 10 -7 10q-3 0 -8 -11l-140 -377q-1 -2 -1 -5q0 -4 7 -4h279z M425 793q-29 -29 -72 -29q-42 0 -71.5 29.5t-29.5 73.5q0 40 30 68.5t71 28.5q43 0 72 -29t29 -70q0 -43 -29 -72zM393 905.5q-16 16.5 -41 16.5q-24 0 -41 -16.5t-17 -41.5q0 -23 17.5 -41t40.5 -18q24 0 40.5 17.5t16.5 41.5q0 25 -16 41.5z" />
<glyph unicode="&#xc6;" horiz-adv-x="974" d="M921.5 46.5q1.5 -1.5 1.5 -6.5v-32q0 -8 -8 -8h-408q-6 0 -8 2t-2 9v216q0 5 -6 5h-250q-9 0 -13 -7l-124 -217q-4 -8 -13 -8h-33q-5 0 -6.5 3t1.5 8l409 719q3 7 7 9.5t12 2.5h420q8 0 8 -8v-31q0 -9 -9 -9h-336q-6 0 -8 -1.5t-2 -7.5v-278q0 -5 2 -6.5t8 -1.5h263 q8 0 8 -8v-32q0 -5 -2 -6.5t-7 -1.5h-262q-6 0 -8 -1.5t-2 -7.5v-285q0 -6 2 -7.5t7 -1.5h352q5 0 6.5 -1.5zM497 290v379q0 10 -5 10t-12 -11l-220 -379q-3 -5 -2.5 -7t5.5 -2h225q9 0 9 10z" />
<glyph unicode="&#xc7;" horiz-adv-x="698" d="M642 174q-25 -78 -92 -129t-156 -55l-17 -44q-1 -4 3 -4q42 -3 60 -23.5t18 -48.5q0 -36 -29 -55.5t-73 -19.5t-77 21q-4 2 -3 7l10 21q2 4 7 1q12 -9 24.5 -13.5t32.5 -4.5q60 0 60 42q0 23 -19 34t-59 13q-7 0 -5 5l30 70q-134 8 -208 107t-74 271q0 120 36 206 t103.5 131.5t161.5 45.5q61 0 118.5 -27.5t95.5 -73t44 -97.5v-4q0 -3 -1.5 -4t-4.5 -1l-45 -4h-2q-4 0 -5 7q-17 70 -70.5 112.5t-127.5 42.5q-119 0 -181 -85t-62 -249q0 -160 63 -244.5t187 -84.5q77 0 127 36.5t80 114.5q1 4 7 3l40 -11q4 -2 3 -9z" />
<glyph unicode="&#xc8;" horiz-adv-x="616" d="M112 740q2 2 8 2h423q7 0 7 -8v-31q0 -5 -2 -7t-7 -2h-364q-6 0 -8 -1.5t-2 -7.5v-278q0 -5 2 -6.5t8 -1.5h282q8 0 8 -8v-32q0 -5 -2 -6.5t-7 -1.5h-281q-6 0 -8 -1.5t-2 -7.5v-285q0 -6 2 -7.5t8 -1.5h379q5 0 7 -1.5t2 -6.5v-32q0 -8 -8 -8h-437q-6 0 -8 2t-2 9v720 q0 7 2 9zM215.5 963q2.5 1 5.5 0l230 -94q6 -4 3 -11l-6 -17q-1 -5 -4 -6.5t-8 0.5l-227 76q-11 4 -8 13l11 35q1 3 3.5 4z" />
<glyph unicode="&#xc9;" horiz-adv-x="616" d="M112 740q2 2 8 2h423q7 0 7 -8v-31q0 -5 -2 -7t-7 -2h-364q-6 0 -8 -1.5t-2 -7.5v-278q0 -5 2 -6.5t8 -1.5h282q8 0 8 -8v-32q0 -5 -2 -6.5t-7 -1.5h-281q-6 0 -8 -1.5t-2 -7.5v-285q0 -6 2 -7.5t8 -1.5h379q5 0 7 -1.5t2 -6.5v-32q0 -8 -8 -8h-437q-6 0 -8 2t-2 9v720 q0 7 2 9zM470 924l1 -4q0 -6 -9 -9l-227 -76q-2 -1 -5 -1q-6 0 -7 7l-6 17q-1 1 -1 4q0 5 4 7l230 94q3 1 5.5 0t3.5 -4z" />
<glyph unicode="&#xca;" horiz-adv-x="616" d="M112 740q2 2 8 2h423q7 0 7 -8v-31q0 -5 -2 -7t-7 -2h-364q-6 0 -8 -1.5t-2 -7.5v-278q0 -5 2 -6.5t8 -1.5h282q8 0 8 -8v-32q0 -5 -2 -6.5t-7 -1.5h-281q-6 0 -8 -1.5t-2 -7.5v-285q0 -6 2 -7.5t8 -1.5h379q5 0 7 -1.5t2 -6.5v-32q0 -8 -8 -8h-437q-6 0 -8 2t-2 9v720 q0 7 2 9zM354 908q-8 6 -10 6q-3 0 -10 -6l-61 -49q-4 -3 -7.5 -4.5t-8.5 -1.5h-41q-5 0 -6 3t4 7l100 82q10 10 21 10h23q7 0 11.5 -4t5.5 -5l98 -83q6 -5 6 -7.5t-7 -2.5h-45q-8 0 -15 6z" />
<glyph unicode="&#xcb;" horiz-adv-x="616" d="M112 740q2 2 8 2h423q7 0 7 -8v-31q0 -5 -2 -7t-7 -2h-364q-6 0 -8 -1.5t-2 -7.5v-278q0 -5 2 -6.5t8 -1.5h282q8 0 8 -8v-32q0 -5 -2 -6.5t-7 -1.5h-281q-6 0 -8 -1.5t-2 -7.5v-285q0 -6 2 -7.5t8 -1.5h379q5 0 7 -1.5t2 -6.5v-32q0 -8 -8 -8h-437q-6 0 -8 2t-2 9v720 q0 7 2 9zM313 866q0 -7 -3 -10t-10 -3h-33q-7 0 -9.5 2.5t-2.5 8.5v79q0 7 2 9t7 2h39q5 0 7.5 -2t2.5 -8v-78zM432 866q0 -7 -3 -10t-10 -3h-33q-7 0 -9.5 2.5t-2.5 8.5v79q0 7 2 9t8 2h38q5 0 7.5 -2t2.5 -8v-78z" />
<glyph unicode="&#xcc;" horiz-adv-x="278" d="M158 742q5 0 7 -2t2 -9v-718q0 -8 -2.5 -10.5t-10.5 -2.5h-32q-7 0 -9.5 2t-2.5 9v720q0 7 2.5 9t7.5 2h38zM13.5 963q2.5 1 5.5 0l230 -94q6 -4 3 -11l-6 -17q-1 -5 -4 -6.5t-8 0.5l-227 76q-11 4 -8 13l11 35q1 3 3.5 4z" />
<glyph unicode="&#xcd;" horiz-adv-x="278" d="M158 742q5 0 7 -2t2 -9v-718q0 -8 -2.5 -10.5t-10.5 -2.5h-32q-7 0 -9.5 2t-2.5 9v720q0 7 2.5 9t7.5 2h38zM268 924l1 -4q0 -6 -9 -9l-227 -76q-2 -1 -5 -1q-6 0 -7 7l-6 17q-1 1 -1 4q0 5 4 7l230 94q3 1 5.5 0t3.5 -4z" />
<glyph unicode="&#xce;" horiz-adv-x="278" d="M158 742q5 0 7 -2t2 -9v-718q0 -8 -2.5 -10.5t-10.5 -2.5h-32q-7 0 -9.5 2t-2.5 9v720q0 7 2.5 9t7.5 2h38zM152 908q-8 6 -10 6q-3 0 -10 -6l-61 -49q-4 -3 -7.5 -4.5t-8.5 -1.5h-41q-5 0 -6 3t4 7l100 82q10 10 21 10h23q7 0 11.5 -4t5.5 -5l98 -83q6 -5 6 -7.5 t-7 -2.5h-45q-8 0 -15 6z" />
<glyph unicode="&#xcf;" horiz-adv-x="278" d="M158 742q5 0 7 -2t2 -9v-718q0 -8 -2.5 -10.5t-10.5 -2.5h-32q-7 0 -9.5 2t-2.5 9v720q0 7 2.5 9t7.5 2h38zM111 866q0 -7 -3 -10t-10 -3h-33q-7 0 -9.5 2.5t-2.5 8.5v79q0 7 2 9t7 2h39q5 0 7.5 -2t2.5 -8v-78zM230 866q0 -7 -3 -10t-10 -3h-33q-7 0 -9.5 2.5t-2.5 8.5 v79q0 7 2 9t8 2h38q5 0 7.5 -2t2.5 -8v-78z" />
<glyph unicode="&#xd0;" horiz-adv-x="709" d="M542 651.5q92 -88.5 92 -275.5q0 -193 -98 -284.5t-303 -91.5h-112q-10 0 -10 11v338h-66q-11 0 -11 11v28q0 9 8 9h69v336q0 9 10 9l126 -1q203 -1 295 -89.5zM429.5 79q75.5 32 110 103t34.5 190q0 123 -35 192t-107.5 98t-193.5 32h-62q-8 0 -8 -14v-283h172q8 0 8 -8 v-28q0 -12 -15 -12h-165v-292q0 -10 12 -10h47q127 0 202.5 32z" />
<glyph unicode="&#xd1;" horiz-adv-x="755" d="M636 742q5 0 7 -2t2 -8v-721q0 -11 -10 -11h-22h-5q-9 0 -15 7l-418 614q-5 7 -8.5 6.5t-3.5 -6.5v-611q0 -10 -11 -10h-32q-10 0 -10 11v720q0 7 2 9t8 2h27q7 0 10 -1.5t6 -6.5l416 -611q5 -6 8 -6q6 0 6 8v607q0 10 9 10h34zM452 881q-18 0 -32 3.5t-33 9.5 q-29 11 -52 11q-17 0 -27.5 -4t-18 -9t-11.5 -7t-6 -2q-3 0 -6 6l-7 19q-1 3 -0.5 5t2.5 4q18 13 33.5 20t36.5 7q25 0 62 -13q38 -12 60 -12q16 0 26.5 3.5t25.5 12.5q5 3 7 3q3 0 6 -6l9 -21q1 -1 1 -3q0 -4 -7 -7q-29 -20 -69 -20z" />
<glyph unicode="&#xd2;" horiz-adv-x="759" d="M155 87.5q-80 97.5 -80 279.5q0 185 81 285t225 100q143 0 223 -99.5t80 -283.5q0 -183 -80 -281t-224 -98q-145 0 -225 97.5zM624 369q0 168 -61.5 251t-181.5 83q-121 0 -183.5 -83.5t-62.5 -250.5q0 -330 247 -330q242 0 242 330zM253.5 963q2.5 1 5.5 0l230 -94 q6 -4 3 -11l-6 -17q-1 -5 -4 -6.5t-8 0.5l-227 76q-11 4 -8 13l11 35q1 3 3.5 4z" />
<glyph unicode="&#xd3;" horiz-adv-x="759" d="M155 87.5q-80 97.5 -80 279.5q0 185 81 285t225 100q143 0 223 -99.5t80 -283.5q0 -183 -80 -281t-224 -98q-145 0 -225 97.5zM624 369q0 168 -61.5 251t-181.5 83q-121 0 -183.5 -83.5t-62.5 -250.5q0 -330 247 -330q242 0 242 330zM508 924l1 -4q0 -6 -9 -9l-227 -76 q-2 -1 -5 -1q-6 0 -7 7l-6 17q-1 1 -1 4q0 5 4 7l230 94q3 1 5.5 0t3.5 -4z" />
<glyph unicode="&#xd4;" horiz-adv-x="759" d="M155 87.5q-80 97.5 -80 279.5q0 185 81 285t225 100q143 0 223 -99.5t80 -283.5q0 -183 -80 -281t-224 -98q-145 0 -225 97.5zM624 369q0 168 -61.5 251t-181.5 83q-121 0 -183.5 -83.5t-62.5 -250.5q0 -330 247 -330q242 0 242 330zM392 908q-8 6 -10 6q-3 0 -10 -6 l-61 -49q-4 -3 -7.5 -4.5t-8.5 -1.5h-41q-5 0 -6 3t4 7l100 82q10 10 21 10h23q7 0 11.5 -4t5.5 -5l98 -83q6 -5 6 -7.5t-7 -2.5h-45q-8 0 -15 6z" />
<glyph unicode="&#xd5;" horiz-adv-x="759" d="M155 87.5q-80 97.5 -80 279.5q0 185 81 285t225 100q143 0 223 -99.5t80 -283.5q0 -183 -80 -281t-224 -98q-145 0 -225 97.5zM624 369q0 168 -61.5 251t-181.5 83q-121 0 -183.5 -83.5t-62.5 -250.5q0 -330 247 -330q242 0 242 330zM441 881q-18 0 -32 3.5t-33 9.5 q-29 11 -52 11q-17 0 -27.5 -4t-18 -9t-11.5 -7t-6 -2q-3 0 -6 6l-7 19q-1 3 -0.5 5t2.5 4q18 13 33.5 20t36.5 7q25 0 62 -13q38 -12 60 -12q16 0 26.5 3.5t25.5 12.5q5 3 7 3q3 0 6 -6l9 -21q1 -1 1 -3q0 -4 -7 -7q-29 -20 -69 -20z" />
<glyph unicode="&#xd6;" horiz-adv-x="759" d="M155 87.5q-80 97.5 -80 279.5q0 185 81 285t225 100q143 0 223 -99.5t80 -283.5q0 -183 -80 -281t-224 -98q-145 0 -225 97.5zM624 369q0 168 -61.5 251t-181.5 83q-121 0 -183.5 -83.5t-62.5 -250.5q0 -330 247 -330q242 0 242 330zM351 866q0 -7 -3 -10t-10 -3h-33 q-7 0 -9.5 2.5t-2.5 8.5v79q0 7 2 9t7 2h39q5 0 7.5 -2t2.5 -8v-78zM470 866q0 -7 -3 -10t-10 -3h-33q-7 0 -9.5 2.5t-2.5 8.5v79q0 7 2 9t8 2h38q5 0 7.5 -2t2.5 -8v-78z" />
<glyph unicode="&#xd7;" horiz-adv-x="522" d="M451 205l-20 -20q-4 -4 -7 -4t-8 5l-155 155l-157 -157q-6 -6 -10 -1l-20 20q-4 4 -4 6q0 4 5 9l154 154l-157 157q-6 6 0 12l20 20q5 5 10 2l159 -159l156 157q7 7 13 0l20 -20q3 -2 3 -4.5t-2 -4.5l-159 -159l158 -158q6 -5 1 -10z" />
<glyph unicode="&#xd8;" horiz-adv-x="713" d="M691 712l-85 -97q55 -95 55 -246q0 -183 -80.5 -281t-223.5 -98q-140 0 -218 90l-72 -82q-6 -7 -10 -7t-11 5l-18 17q-6 6 -7 9.5t3 7.5l83 95q-55 93 -55 242q0 123 36.5 209.5t105 131t163.5 44.5q137 0 217 -92l75 85q7 10 14 4l27 -25q5 -5 1 -12zM149 172l389 448 q-61 82 -181 82q-242 0 -242 -333q0 -123 34 -197zM564 569l-389 -447q63 -82 183 -82q121 0 180.5 81t59.5 248q0 125 -34 200z" />
<glyph unicode="&#xd9;" horiz-adv-x="704" d="M540.5 50.5q-62.5 -60.5 -188.5 -60.5q-129 0 -190.5 63.5t-61.5 195.5v481q0 12 9 12h38q6 0 8.5 -2t2.5 -9v-501q0 -191 197 -191q100 0 149.5 48t49.5 146v499q0 10 9 10h32q8 0 8 -10v-498q0 -123 -62.5 -183.5zM228.5 963q2.5 1 5.5 0l230 -94q6 -4 3 -11l-6 -17 q-1 -5 -4 -6.5t-8 0.5l-227 76q-11 4 -8 13l11 35q1 3 3.5 4z" />
<glyph unicode="&#xda;" horiz-adv-x="704" d="M540.5 50.5q-62.5 -60.5 -188.5 -60.5q-129 0 -190.5 63.5t-61.5 195.5v481q0 12 9 12h38q6 0 8.5 -2t2.5 -9v-501q0 -191 197 -191q100 0 149.5 48t49.5 146v499q0 10 9 10h32q8 0 8 -10v-498q0 -123 -62.5 -183.5zM483 924l1 -4q0 -6 -9 -9l-227 -76q-2 -1 -5 -1 q-6 0 -7 7l-6 17q-1 1 -1 4q0 5 4 7l230 94q3 1 5.5 0t3.5 -4z" />
<glyph unicode="&#xdb;" horiz-adv-x="704" d="M540.5 50.5q-62.5 -60.5 -188.5 -60.5q-129 0 -190.5 63.5t-61.5 195.5v481q0 12 9 12h38q6 0 8.5 -2t2.5 -9v-501q0 -191 197 -191q100 0 149.5 48t49.5 146v499q0 10 9 10h32q8 0 8 -10v-498q0 -123 -62.5 -183.5zM367 908q-8 6 -10 6q-3 0 -10 -6l-61 -49 q-4 -3 -7.5 -4.5t-8.5 -1.5h-41q-5 0 -6 3t4 7l100 82q10 10 21 10h23q7 0 11.5 -4t5.5 -5l98 -83q6 -5 6 -7.5t-7 -2.5h-45q-8 0 -15 6z" />
<glyph unicode="&#xdc;" horiz-adv-x="704" d="M540.5 50.5q-62.5 -60.5 -188.5 -60.5q-129 0 -190.5 63.5t-61.5 195.5v481q0 12 9 12h38q6 0 8.5 -2t2.5 -9v-501q0 -191 197 -191q100 0 149.5 48t49.5 146v499q0 10 9 10h32q8 0 8 -10v-498q0 -123 -62.5 -183.5zM326 866q0 -7 -3 -10t-10 -3h-33q-7 0 -9.5 2.5 t-2.5 8.5v79q0 7 2 9t7 2h39q5 0 7.5 -2t2.5 -8v-78zM445 866q0 -7 -3 -10t-10 -3h-33q-7 0 -9.5 2.5t-2.5 8.5v79q0 7 2 9t8 2h38q5 0 7.5 -2t2.5 -8v-78z" />
<glyph unicode="&#xdd;" horiz-adv-x="647" d="M599 738.5q2 -3.5 -1 -8.5l-239 -403q-3 -5 -3.5 -10t-0.5 -13v-290q0 -8 -3.5 -11t-12.5 -3h-29q-12 0 -12 12v283q0 11 -6 21l-243 413q-2 3 -2 7q0 6 10 6h34q7 0 10.5 -2t7.5 -8l204 -348q7 -12 13 -12q4 0 11 10l203 350q4 7 7 8.5t10 1.5h34q6 0 8 -3.5zM446 924 l1 -4q0 -6 -9 -9l-227 -76q-2 -1 -5 -1q-6 0 -7 7l-6 17q-1 1 -1 4q0 5 4 7l230 94q3 1 5.5 0t3.5 -4z" />
<glyph unicode="&#xde;" horiz-adv-x="678" d="M547.5 230.5q-70.5 -50.5 -190.5 -50.5h-181q-9 0 -9 -10v-160q0 -10 -9 -10h-39q-9 0 -9 9v722q0 7 2.5 9t7.5 2h38q5 0 7 -2t2 -9v-145q0 -5 7 -5h175q124 0 196.5 -47.5t72.5 -144.5q0 -108 -70.5 -158.5zM504 499.5q-54 33.5 -156 33.5h-171q-10 0 -10 -8v-287 q0 -11 8 -11h180q203 0 203 162q0 77 -54 110.5z" />
<glyph unicode="&#xdf;" horiz-adv-x="588" d="M432.5 702.5q37.5 -39.5 37.5 -95.5q0 -37 -15.5 -61t-34.5 -36t-65 -36q-48 -26 -63 -39t-15 -36t14.5 -32.5t60.5 -24.5q55 -18 89.5 -34.5t63.5 -53t29 -95.5q0 -80 -54 -124.5t-135 -44.5q-36 0 -73.5 8.5t-61.5 23.5q-4 2 -5 4t1 6l18 28q2 5 10 1q25 -14 48 -21 t55 -7q69 0 108 32.5t39 89.5q0 41 -20 67t-50 40.5t-77 29.5q-37 12 -57 21.5t-35.5 29t-15.5 52.5q0 36 22.5 61t76.5 52q7 4 34.5 18.5t42 35t14.5 47.5q0 41 -30.5 65.5t-84.5 24.5q-69 0 -110 -41.5t-41 -122.5v-524v-3q0 -8 -8 -8h-33q-9 0 -9 9v468q0 10 -8 10h-59 q-7 0 -7 6v28q0 7 7 7h60q7 0 7 9q0 94 57 149.5t152 55.5q83 0 120.5 -39.5z" />
<glyph unicode="&#xe0;" horiz-adv-x="540" d="M216 -10q-79 0 -124.5 39t-45.5 106q0 76 63 120t188 55l99 8q17 2 17 15v30q0 61 -39.5 97.5t-104.5 36.5q-96 0 -162 -89q-3 -5 -5 -6t-6 1l-31 16q-6 4 0 11q33 51 85 80.5t122 29.5q88 0 139 -46t51 -126v-357q0 -11 -11 -11h-25q-10 0 -10 11l-2 57q-1 6 -4 6.5 t-7 -4.5q-82 -80 -187 -80zM399 278l-84 -7q-217 -16 -217 -131q0 -50 35 -78t94 -28q35 0 69 12.5t62 34.5q26 21 40.5 44.5t14.5 45.5v92q0 17 -14 15zM139.5 751q2.5 1 5.5 0l230 -94q6 -4 3 -11l-6 -17q-1 -5 -4 -6.5t-8 0.5l-227 76q-11 4 -8 13l11 35q1 3 3.5 4z" />
<glyph unicode="&#xe1;" horiz-adv-x="540" d="M216 -10q-79 0 -124.5 39t-45.5 106q0 76 63 120t188 55l99 8q17 2 17 15v30q0 61 -39.5 97.5t-104.5 36.5q-96 0 -162 -89q-3 -5 -5 -6t-6 1l-31 16q-6 4 0 11q33 51 85 80.5t122 29.5q88 0 139 -46t51 -126v-357q0 -11 -11 -11h-25q-10 0 -10 11l-2 57q-1 6 -4 6.5 t-7 -4.5q-82 -80 -187 -80zM399 278l-84 -7q-217 -16 -217 -131q0 -50 35 -78t94 -28q35 0 69 12.5t62 34.5q26 21 40.5 44.5t14.5 45.5v92q0 17 -14 15zM394 712l1 -4q0 -6 -9 -9l-227 -76q-2 -1 -5 -1q-6 0 -7 7l-6 17q-1 1 -1 4q0 5 4 7l230 94q3 1 5.5 0t3.5 -4z" />
<glyph unicode="&#xe2;" horiz-adv-x="540" d="M216 -10q-79 0 -124.5 39t-45.5 106q0 76 63 120t188 55l99 8q17 2 17 15v30q0 61 -39.5 97.5t-104.5 36.5q-96 0 -162 -89q-3 -5 -5 -6t-6 1l-31 16q-6 4 0 11q33 51 85 80.5t122 29.5q88 0 139 -46t51 -126v-357q0 -11 -11 -11h-25q-10 0 -10 11l-2 57q-1 6 -4 6.5 t-7 -4.5q-82 -80 -187 -80zM399 278l-84 -7q-217 -16 -217 -131q0 -50 35 -78t94 -28q35 0 69 12.5t62 34.5q26 21 40.5 44.5t14.5 45.5v92q0 17 -14 15zM278 696q-8 6 -10 6q-3 0 -10 -6l-61 -49q-4 -3 -7.5 -4.5t-8.5 -1.5h-41q-5 0 -6 3t4 7l100 82q10 10 21 10h23 q7 0 11.5 -4t5.5 -5l98 -83q6 -5 6 -7.5t-7 -2.5h-45q-8 0 -15 6z" />
<glyph unicode="&#xe3;" horiz-adv-x="540" d="M216 -10q-79 0 -124.5 39t-45.5 106q0 76 63 120t188 55l99 8q17 2 17 15v30q0 61 -39.5 97.5t-104.5 36.5q-96 0 -162 -89q-3 -5 -5 -6t-6 1l-31 16q-6 4 0 11q33 51 85 80.5t122 29.5q88 0 139 -46t51 -126v-357q0 -11 -11 -11h-25q-10 0 -10 11l-2 57q-1 6 -4 6.5 t-7 -4.5q-82 -80 -187 -80zM399 278l-84 -7q-217 -16 -217 -131q0 -50 35 -78t94 -28q35 0 69 12.5t62 34.5q26 21 40.5 44.5t14.5 45.5v92q0 17 -14 15zM327 669q-18 0 -32 3.5t-33 9.5q-29 11 -52 11q-17 0 -27.5 -4t-18 -9t-11.5 -7t-6 -2q-3 0 -6 6l-7 19q-1 3 -0.5 5 t2.5 4q18 13 33.5 20t36.5 7q25 0 62 -13q38 -12 60 -12q16 0 26.5 3.5t25.5 12.5q5 3 7 3q3 0 6 -6l9 -21q1 -1 1 -3q0 -4 -7 -7q-29 -20 -69 -20z" />
<glyph unicode="&#xe4;" horiz-adv-x="540" d="M216 -10q-79 0 -124.5 39t-45.5 106q0 76 63 120t188 55l99 8q17 2 17 15v30q0 61 -39.5 97.5t-104.5 36.5q-96 0 -162 -89q-3 -5 -5 -6t-6 1l-31 16q-6 4 0 11q33 51 85 80.5t122 29.5q88 0 139 -46t51 -126v-357q0 -11 -11 -11h-25q-10 0 -10 11l-2 57q-1 6 -4 6.5 t-7 -4.5q-82 -80 -187 -80zM399 278l-84 -7q-217 -16 -217 -131q0 -50 35 -78t94 -28q35 0 69 12.5t62 34.5q26 21 40.5 44.5t14.5 45.5v92q0 17 -14 15zM237 654q0 -7 -3 -10t-10 -3h-33q-7 0 -9.5 2.5t-2.5 8.5v79q0 7 2 9t7 2h39q5 0 7.5 -2t2.5 -8v-78zM356 654 q0 -7 -3 -10t-10 -3h-33q-7 0 -9.5 2.5t-2.5 8.5v79q0 7 2 9t8 2h38q5 0 7.5 -2t2.5 -8v-78z" />
<glyph unicode="&#xe5;" horiz-adv-x="540" d="M216 -10q-79 0 -124.5 39t-45.5 106q0 76 63 120t188 55l99 8q17 2 17 15v30q0 61 -39.5 97.5t-104.5 36.5q-96 0 -162 -89q-3 -5 -5 -6t-6 1l-31 16q-6 4 0 11q33 51 85 80.5t122 29.5q88 0 139 -46t51 -126v-357q0 -11 -11 -11h-25q-10 0 -10 11l-2 57q-1 6 -4 6.5 t-7 -4.5q-82 -80 -187 -80zM399 278l-84 -7q-217 -16 -217 -131q0 -50 35 -78t94 -28q35 0 69 12.5t62 34.5q26 21 40.5 44.5t14.5 45.5v92q0 17 -14 15zM340 629q-29 -29 -72 -29q-42 0 -71.5 29.5t-29.5 73.5q0 40 30 68.5t71 28.5q43 0 72 -29t29 -70q0 -43 -29 -72z M308 741.5q-16 16.5 -41 16.5q-24 0 -41 -16.5t-17 -41.5q0 -23 17.5 -41t40.5 -18q24 0 40.5 17.5t16.5 41.5q0 25 -16 41.5z" />
<glyph unicode="&#xe6;" horiz-adv-x="929" d="M460.5 247q-3.5 -5 -3.5 -20q0 -46 26.5 -91t71 -73.5t96.5 -28.5q67 0 104.5 24.5t67.5 66.5q4 5 6 5.5t6 -2.5l26 -16q6 -4 1 -11q-28 -50 -85 -80.5t-129 -30.5q-79 0 -125.5 33.5t-79.5 82.5q-2 2 -3.5 2t-2.5 -2q-40 -51 -90 -83.5t-134 -32.5q-79 0 -123 39 t-44 107q0 75 60 119t182 54l107 9q18 2 18 15v30q0 62 -38.5 98t-109.5 36q-91 0 -159 -89q-4 -5 -6 -6t-6 1l-29 16q-5 3 0 11q31 52 85.5 81t121.5 29q74 0 117 -28t59 -86q30 56 81.5 85t120.5 29q70 0 122 -31.5t81 -91.5t29 -144q0 -10 -4 -15t-14 -6h-387 q-13 0 -16.5 -5zM552 472q-43 -25 -68 -71.5t-25 -106.5l354 -1q11 0 14 3.5t3 12.5q0 51 -23.5 94t-65 68.5t-93.5 25.5q-53 0 -96 -25zM409.5 273.5q-3.5 3.5 -12.5 2.5l-89 -6q-106 -9 -157.5 -41.5t-51.5 -89.5q0 -47 31.5 -76t86.5 -29q53 0 98 19.5t71.5 52t26.5 70.5 v86q0 8 -3.5 11.5z" />
<glyph unicode="&#xe7;" horiz-adv-x="538" d="M503 110q-33 -55 -82 -85.5t-111 -34.5l-17 -44q-1 -4 3 -4q42 -3 60 -23.5t18 -48.5q0 -36 -29 -55.5t-73 -19.5t-77 21q-4 2 -3 7l10 21q2 4 7 1q12 -9 24.5 -13.5t32.5 -4.5q60 0 60 42q0 23 -19 34t-59 13q-7 0 -5 5l30 70q-65 5 -114.5 40.5t-77 95.5t-27.5 136 q0 80 31 143t86 98.5t125 35.5q126 0 199 -111q3 -5 2.5 -7t-3.5 -4l-31 -15q-1 -1 -4 -1t-8 5q-39 49 -73.5 69.5t-76.5 20.5q-58 0 -102.5 -29t-68.5 -81.5t-24 -121.5t24 -121.5t68.5 -81.5t102.5 -29q50 0 89.5 24.5t72.5 74.5q3 5 5 5.5t5 -1.5l28 -15q5 -3 2 -11z" />
<glyph unicode="&#xe8;" horiz-adv-x="578" d="M132 137q26 -47 71 -75t98 -28q114 0 171 91q6 8 11 3l28 -16q5 -4 1 -11q-71 -111 -213 -111q-72 0 -127.5 34t-86.5 95.5t-31 141.5q0 85 31.5 148.5t87 97t126.5 33.5q107 0 169.5 -70.5t62.5 -196.5v-6q0 -7 -2.5 -10.5t-11.5 -4.5h-404q-7 0 -7 -14q0 -54 26 -101z M462 293q10 0 13.5 3t3.5 11q0 52 -22 95.5t-63 69t-95 25.5q-60 0 -104 -30t-66.5 -77t-21.5 -97h355zM168.5 751q2.5 1 5.5 0l230 -94q6 -4 3 -11l-6 -17q-1 -5 -4 -6.5t-8 0.5l-227 76q-11 4 -8 13l11 35q1 3 3.5 4z" />
<glyph unicode="&#xe9;" horiz-adv-x="578" d="M132 137q26 -47 71 -75t98 -28q114 0 171 91q6 8 11 3l28 -16q5 -4 1 -11q-71 -111 -213 -111q-72 0 -127.5 34t-86.5 95.5t-31 141.5q0 85 31.5 148.5t87 97t126.5 33.5q107 0 169.5 -70.5t62.5 -196.5v-6q0 -7 -2.5 -10.5t-11.5 -4.5h-404q-7 0 -7 -14q0 -54 26 -101z M462 293q10 0 13.5 3t3.5 11q0 52 -22 95.5t-63 69t-95 25.5q-60 0 -104 -30t-66.5 -77t-21.5 -97h355zM423 712l1 -4q0 -6 -9 -9l-227 -76q-2 -1 -5 -1q-6 0 -7 7l-6 17q-1 1 -1 4q0 5 4 7l230 94q3 1 5.5 0t3.5 -4z" />
<glyph unicode="&#xea;" horiz-adv-x="578" d="M132 137q26 -47 71 -75t98 -28q114 0 171 91q6 8 11 3l28 -16q5 -4 1 -11q-71 -111 -213 -111q-72 0 -127.5 34t-86.5 95.5t-31 141.5q0 85 31.5 148.5t87 97t126.5 33.5q107 0 169.5 -70.5t62.5 -196.5v-6q0 -7 -2.5 -10.5t-11.5 -4.5h-404q-7 0 -7 -14q0 -54 26 -101z M462 293q10 0 13.5 3t3.5 11q0 52 -22 95.5t-63 69t-95 25.5q-60 0 -104 -30t-66.5 -77t-21.5 -97h355zM307 696q-8 6 -10 6q-3 0 -10 -6l-61 -49q-4 -3 -7.5 -4.5t-8.5 -1.5h-41q-5 0 -6 3t4 7l100 82q10 10 21 10h23q7 0 11.5 -4t5.5 -5l98 -83q6 -5 6 -7.5t-7 -2.5h-45 q-8 0 -15 6z" />
<glyph unicode="&#xeb;" horiz-adv-x="578" d="M132 137q26 -47 71 -75t98 -28q114 0 171 91q6 8 11 3l28 -16q5 -4 1 -11q-71 -111 -213 -111q-72 0 -127.5 34t-86.5 95.5t-31 141.5q0 85 31.5 148.5t87 97t126.5 33.5q107 0 169.5 -70.5t62.5 -196.5v-6q0 -7 -2.5 -10.5t-11.5 -4.5h-404q-7 0 -7 -14q0 -54 26 -101z M462 293q10 0 13.5 3t3.5 11q0 52 -22 95.5t-63 69t-95 25.5q-60 0 -104 -30t-66.5 -77t-21.5 -97h355zM266 654q0 -7 -3 -10t-10 -3h-33q-7 0 -9.5 2.5t-2.5 8.5v79q0 7 2 9t7 2h39q5 0 7.5 -2t2.5 -8v-78zM385 654q0 -7 -3 -10t-10 -3h-33q-7 0 -9.5 2.5t-2.5 8.5v79 q0 7 2 9t8 2h38q5 0 7.5 -2t2.5 -8v-78z" />
<glyph unicode="&#xec;" horiz-adv-x="226" d="M138 13q0 -8 -2.5 -10.5t-10.5 -2.5h-25q-7 0 -9.5 2t-2.5 9v508q0 7 2 9t8 2h30q6 0 8 -2t2 -9v-506zM-15.5 751q2.5 1 5.5 0l230 -94q6 -4 3 -11l-6 -17q-1 -5 -4 -6.5t-8 0.5l-227 76q-11 4 -8 13l11 35q1 3 3.5 4z" />
<glyph unicode="&#xed;" horiz-adv-x="226" d="M138 13q0 -8 -2.5 -10.5t-10.5 -2.5h-25q-7 0 -9.5 2t-2.5 9v508q0 7 2 9t8 2h30q6 0 8 -2t2 -9v-506zM239 712l1 -4q0 -6 -9 -9l-227 -76q-2 -1 -5 -1q-6 0 -7 7l-6 17q-1 1 -1 4q0 5 4 7l230 94q3 1 5.5 0t3.5 -4z" />
<glyph unicode="&#xee;" horiz-adv-x="226" d="M138 13q0 -8 -2.5 -10.5t-10.5 -2.5h-25q-7 0 -9.5 2t-2.5 9v508q0 7 2 9t8 2h30q6 0 8 -2t2 -9v-506zM123 696q-8 6 -10 6q-3 0 -10 -6l-61 -49q-4 -3 -7.5 -4.5t-8.5 -1.5h-41q-5 0 -6 3t4 7l100 82q10 10 21 10h23q7 0 11.5 -4t5.5 -5l98 -83q6 -5 6 -7.5t-7 -2.5h-45 q-8 0 -15 6z" />
<glyph unicode="&#xef;" horiz-adv-x="226" d="M138 13q0 -8 -2.5 -10.5t-10.5 -2.5h-25q-7 0 -9.5 2t-2.5 9v508q0 7 2 9t8 2h30q6 0 8 -2t2 -9v-506zM82 654q0 -7 -3 -10t-10 -3h-33q-7 0 -9.5 2.5t-2.5 8.5v79q0 7 2 9t7 2h39q5 0 7.5 -2t2.5 -8v-78zM201 654q0 -7 -3 -10t-10 -3h-33q-7 0 -9.5 2.5t-2.5 8.5v79 q0 7 2 9t8 2h38q5 0 7.5 -2t2.5 -8v-78z" />
<glyph unicode="&#xf0;" horiz-adv-x="598" d="M514.5 118.5q-29.5 -60.5 -85.5 -94.5t-132 -34q-72 0 -127 33.5t-85.5 93t-30.5 135.5q0 77 30.5 138t84.5 95.5t122 34.5q49 0 90 -16.5t72 -47.5q-48 111 -164 188l-163 -92q-2 -1 -5 -1q-5 0 -9 6l-9 15q-5 7 1 11l150 84q-57 32 -111 53q-4 2 -4.5 5t3.5 6l22 16 q2 1 4.5 2.5t5.5 1.5q5 0 8 -2q64 -25 116 -56l102 57q3 1 6 1t4 -2l13 -23q4 -5 -2 -8l-87 -49q111 -76 160.5 -178.5t49.5 -233.5q0 -78 -29.5 -138.5zM399.5 63q43.5 29 68 79t24.5 112t-25 113t-69 80.5t-98 29.5t-98.5 -29.5t-70 -81t-25.5 -112.5t25.5 -111.5 t70 -79.5t99.5 -29t98.5 29z" />
<glyph unicode="&#xf1;" horiz-adv-x="578" d="M88 10v510q0 10 9 10h29q5 0 7 -2t2 -7v-61q0 -5 2 -6t6 3q63 46 102.5 64.5t89.5 18.5q78 0 120 -40t42 -108v-381q0 -11 -11 -11h-29q-10 0 -10 10v365q0 121 -119 121q-48 0 -87.5 -20t-102.5 -70v-396q0 -10 -11 -10h-29q-10 0 -10 10zM362 669q-18 0 -32 3.5 t-33 9.5q-29 11 -52 11q-17 0 -27.5 -4t-18 -9t-11.5 -7t-6 -2q-3 0 -6 6l-7 19q-1 3 -0.5 5t2.5 4q18 13 33.5 20t36.5 7q25 0 62 -13q38 -12 60 -12q16 0 26.5 3.5t25.5 12.5q5 3 7 3q3 0 6 -6l9 -21q1 -1 1 -3q0 -4 -7 -7q-29 -20 -69 -20z" />
<glyph unicode="&#xf2;" horiz-adv-x="598" d="M170.5 24.5q-55.5 34.5 -86 96t-30.5 141.5q0 81 31 144t87 98.5t128 35.5t127.5 -35t86 -98t30.5 -143t-30.5 -142.5t-86 -97t-128.5 -34.5t-128.5 34.5zM441 96.5q51 62.5 51 167.5q0 106 -52 169.5t-140 63.5q-59 0 -103 -29t-67.5 -82t-23.5 -122q0 -105 52.5 -167.5 t142.5 -62.5q89 0 140 62.5zM172.5 751q2.5 1 5.5 0l230 -94q6 -4 3 -11l-6 -17q-1 -5 -4 -6.5t-8 0.5l-227 76q-11 4 -8 13l11 35q1 3 3.5 4z" />
<glyph unicode="&#xf3;" horiz-adv-x="598" d="M170.5 24.5q-55.5 34.5 -86 96t-30.5 141.5q0 81 31 144t87 98.5t128 35.5t127.5 -35t86 -98t30.5 -143t-30.5 -142.5t-86 -97t-128.5 -34.5t-128.5 34.5zM441 96.5q51 62.5 51 167.5q0 106 -52 169.5t-140 63.5q-59 0 -103 -29t-67.5 -82t-23.5 -122q0 -105 52.5 -167.5 t142.5 -62.5q89 0 140 62.5zM427 712l1 -4q0 -6 -9 -9l-227 -76q-2 -1 -5 -1q-6 0 -7 7l-6 17q-1 1 -1 4q0 5 4 7l230 94q3 1 5.5 0t3.5 -4z" />
<glyph unicode="&#xf4;" horiz-adv-x="598" d="M170.5 24.5q-55.5 34.5 -86 96t-30.5 141.5q0 81 31 144t87 98.5t128 35.5t127.5 -35t86 -98t30.5 -143t-30.5 -142.5t-86 -97t-128.5 -34.5t-128.5 34.5zM441 96.5q51 62.5 51 167.5q0 106 -52 169.5t-140 63.5q-59 0 -103 -29t-67.5 -82t-23.5 -122q0 -105 52.5 -167.5 t142.5 -62.5q89 0 140 62.5zM311 696q-8 6 -10 6q-3 0 -10 -6l-61 -49q-4 -3 -7.5 -4.5t-8.5 -1.5h-41q-5 0 -6 3t4 7l100 82q10 10 21 10h23q7 0 11.5 -4t5.5 -5l98 -83q6 -5 6 -7.5t-7 -2.5h-45q-8 0 -15 6z" />
<glyph unicode="&#xf5;" horiz-adv-x="598" d="M170.5 24.5q-55.5 34.5 -86 96t-30.5 141.5q0 81 31 144t87 98.5t128 35.5t127.5 -35t86 -98t30.5 -143t-30.5 -142.5t-86 -97t-128.5 -34.5t-128.5 34.5zM441 96.5q51 62.5 51 167.5q0 106 -52 169.5t-140 63.5q-59 0 -103 -29t-67.5 -82t-23.5 -122q0 -105 52.5 -167.5 t142.5 -62.5q89 0 140 62.5zM360 669q-18 0 -32 3.5t-33 9.5q-29 11 -52 11q-17 0 -27.5 -4t-18 -9t-11.5 -7t-6 -2q-3 0 -6 6l-7 19q-1 3 -0.5 5t2.5 4q18 13 33.5 20t36.5 7q25 0 62 -13q38 -12 60 -12q16 0 26.5 3.5t25.5 12.5q5 3 7 3q3 0 6 -6l9 -21q1 -1 1 -3 q0 -4 -7 -7q-29 -20 -69 -20z" />
<glyph unicode="&#xf6;" horiz-adv-x="598" d="M170.5 24.5q-55.5 34.5 -86 96t-30.5 141.5q0 81 31 144t87 98.5t128 35.5t127.5 -35t86 -98t30.5 -143t-30.5 -142.5t-86 -97t-128.5 -34.5t-128.5 34.5zM441 96.5q51 62.5 51 167.5q0 106 -52 169.5t-140 63.5q-59 0 -103 -29t-67.5 -82t-23.5 -122q0 -105 52.5 -167.5 t142.5 -62.5q89 0 140 62.5zM270 654q0 -7 -3 -10t-10 -3h-33q-7 0 -9.5 2.5t-2.5 8.5v79q0 7 2 9t7 2h39q5 0 7.5 -2t2.5 -8v-78zM389 654q0 -7 -3 -10t-10 -3h-33q-7 0 -9.5 2.5t-2.5 8.5v79q0 7 2 9t8 2h38q5 0 7.5 -2t2.5 -8v-78z" />
<glyph unicode="&#xf7;" horiz-adv-x="545" d="M317 505q0 -7 -3 -9.5t-11 -2.5h-64q-6 0 -8 2.5t-2 8.5v65q0 9 7 9h74q7 0 7 -8v-65zM477 360q0 -9 -12 -9l-388 -1q-5 0 -7 1.5t-2 6.5v28q0 8 6 8l395 1q8 0 8 -7v-28zM317 179q0 -7 -3 -9.5t-11 -2.5h-64q-6 0 -8 2.5t-2 8.5v65q0 9 7 9h74q7 0 7 -8v-65z" />
<glyph unicode="&#xf8;" horiz-adv-x="577" d="M554 495l-59 -58q47 -72 47 -173q0 -80 -30.5 -142.5t-86 -97t-128.5 -34.5q-56 0 -101.5 20t-77.5 57l-64 -62q-4 -4 -9 -4t-9 4l-11 12q-5 7 -5 10q0 5 5 10l67 66q-40 66 -40 159q0 81 31 144t87 98.5t128 35.5q51 0 94 -18t75 -51l54 53q7 5 10 5t8 -5l15 -14 q6 -9 0 -15zM129 139l305 299q-51 59 -136 59q-59 0 -103 -29t-67.5 -82t-23.5 -122q0 -70 25 -125zM459 402l-306 -300q25 -33 62.5 -50.5t83.5 -17.5q89 0 140 62.5t51 167.5q0 81 -31 138z" />
<glyph unicode="&#xf9;" horiz-adv-x="573" d="M340 59.5q45 25.5 95 75.5v385q0 10 11 10h29q10 0 10 -10v-510q0 -10 -9 -10h-29q-5 0 -7 2t-2 7v63q0 5 -2 6t-6 -3q-59 -48 -102 -66.5t-85 -18.5q-70 0 -116.5 41.5t-46.5 106.5v381q0 11 10 11h30q10 0 10 -10v-360q0 -57 31.5 -91.5t86.5 -34.5q47 0 92 25.5z M141.5 751q2.5 1 5.5 0l230 -94q6 -4 3 -11l-6 -17q-1 -5 -4 -6.5t-8 0.5l-227 76q-11 4 -8 13l11 35q1 3 3.5 4z" />
<glyph unicode="&#xfa;" horiz-adv-x="573" d="M340 59.5q45 25.5 95 75.5v385q0 10 11 10h29q10 0 10 -10v-510q0 -10 -9 -10h-29q-5 0 -7 2t-2 7v63q0 5 -2 6t-6 -3q-59 -48 -102 -66.5t-85 -18.5q-70 0 -116.5 41.5t-46.5 106.5v381q0 11 10 11h30q10 0 10 -10v-360q0 -57 31.5 -91.5t86.5 -34.5q47 0 92 25.5z M396 712l1 -4q0 -6 -9 -9l-227 -76q-2 -1 -5 -1q-6 0 -7 7l-6 17q-1 1 -1 4q0 5 4 7l230 94q3 1 5.5 0t3.5 -4z" />
<glyph unicode="&#xfb;" horiz-adv-x="573" d="M340 59.5q45 25.5 95 75.5v385q0 10 11 10h29q10 0 10 -10v-510q0 -10 -9 -10h-29q-5 0 -7 2t-2 7v63q0 5 -2 6t-6 -3q-59 -48 -102 -66.5t-85 -18.5q-70 0 -116.5 41.5t-46.5 106.5v381q0 11 10 11h30q10 0 10 -10v-360q0 -57 31.5 -91.5t86.5 -34.5q47 0 92 25.5z M280 696q-8 6 -10 6q-3 0 -10 -6l-61 -49q-4 -3 -7.5 -4.5t-8.5 -1.5h-41q-5 0 -6 3t4 7l100 82q10 10 21 10h23q7 0 11.5 -4t5.5 -5l98 -83q6 -5 6 -7.5t-7 -2.5h-45q-8 0 -15 6z" />
<glyph unicode="&#xfc;" horiz-adv-x="573" d="M340 59.5q45 25.5 95 75.5v385q0 10 11 10h29q10 0 10 -10v-510q0 -10 -9 -10h-29q-5 0 -7 2t-2 7v63q0 5 -2 6t-6 -3q-59 -48 -102 -66.5t-85 -18.5q-70 0 -116.5 41.5t-46.5 106.5v381q0 11 10 11h30q10 0 10 -10v-360q0 -57 31.5 -91.5t86.5 -34.5q47 0 92 25.5z M239 654q0 -7 -3 -10t-10 -3h-33q-7 0 -9.5 2.5t-2.5 8.5v79q0 7 2 9t7 2h39q5 0 7.5 -2t2.5 -8v-78zM358 654q0 -7 -3 -10t-10 -3h-33q-7 0 -9.5 2.5t-2.5 8.5v79q0 7 2 9t8 2h38q5 0 7.5 -2t2.5 -8v-78z" />
<glyph unicode="&#xfd;" horiz-adv-x="513" d="M57 -163.5q-13 1.5 -13 9.5v20q0 7 5.5 9.5t23.5 2.5h61q25 0 46 20t33.5 50.5t12.5 58.5q0 19 -5 30l-189 480q-1 2 -1 5q0 8 10 8h30q10 0 13 -9l168 -431q3 -9 8 -9q6 0 10 13l165 428q3 8 11 8h28q4 0 6.5 -3.5t0.5 -6.5l-227 -590q-20 -53 -55.5 -74t-90.5 -21 q-38 0 -51 1.5zM385 712l1 -4q0 -6 -9 -9l-227 -76q-2 -1 -5 -1q-6 0 -7 7l-6 17q-1 1 -1 4q0 5 4 7l230 94q3 1 5.5 0t3.5 -4z" />
<glyph unicode="&#xfe;" horiz-adv-x="590" d="M136 730v-261q0 -9 4 -9q3 0 23.5 22t56.5 40t90 18q65 0 116 -30t80.5 -89.5t29.5 -145.5q0 -85 -29.5 -149.5t-83 -100t-125.5 -35.5q-46 0 -83 14.5t-63 35.5q-5 5 -10 5q-4 0 -4 -12v-187q0 -6 -2 -8.5t-8 -2.5h-31q-9 0 -9 10v884q0 8 3 10.5t10 2.5h24q11 0 11 -12 zM212.5 52q37.5 -19 79.5 -19q56 0 99.5 28.5t68 82.5t24.5 127q0 75 -25 126t-67 75.5t-92 24.5q-46 0 -83 -20.5t-58 -51.5t-21 -61v-257q37 -36 74.5 -55z" />
<glyph unicode="&#xff;" horiz-adv-x="513" d="M57 -163.5q-13 1.5 -13 9.5v20q0 7 5.5 9.5t23.5 2.5h61q25 0 46 20t33.5 50.5t12.5 58.5q0 19 -5 30l-189 480q-1 2 -1 5q0 8 10 8h30q10 0 13 -9l168 -431q3 -9 8 -9q6 0 10 13l165 428q3 8 11 8h28q4 0 6.5 -3.5t0.5 -6.5l-227 -590q-20 -53 -55.5 -74t-90.5 -21 q-38 0 -51 1.5zM228 654q0 -7 -3 -10t-10 -3h-33q-7 0 -9.5 2.5t-2.5 8.5v79q0 7 2 9t7 2h39q5 0 7.5 -2t2.5 -8v-78zM347 654q0 -7 -3 -10t-10 -3h-33q-7 0 -9.5 2.5t-2.5 8.5v79q0 7 2 9t8 2h38q5 0 7.5 -2t2.5 -8v-78z" />
<glyph unicode="&#x131;" horiz-adv-x="226" d="M138 13q0 -8 -2.5 -10.5t-10.5 -2.5h-25q-7 0 -9.5 2t-2.5 9v508q0 7 2 9t8 2h30q6 0 8 -2t2 -9v-506z" />
<glyph unicode="&#x152;" horiz-adv-x="1123" d="M1070 46.5q2 -1.5 2 -6.5v-32q0 -8 -8 -8h-423q-5 0 -7 2t-2 7l-4 122q-37 -70 -99.5 -105.5t-147.5 -35.5q-145 0 -225.5 97.5t-80.5 279.5q0 185 81 285t226 100q85 0 147 -36t99 -107l3 124q0 9 10 9h408q8 0 8 -8v-31q0 -5 -2 -7t-7 -2h-354q-6 0 -8 -1.5t-2 -7.5 v-278q0 -5 2 -6.5t7 -1.5h272q8 0 8 -8v-32q0 -5 -2 -6.5t-7 -1.5h-271q-5 0 -7 -1.5t-2 -7.5v-285q0 -6 2 -7.5t7 -1.5h370q5 0 7 -1.5zM562 120.5q60 81.5 60 248.5q0 334 -241 334q-121 0 -183.5 -83.5t-62.5 -250.5q0 -330 247 -330q120 0 180 81.5z" />
<glyph unicode="&#x153;" horiz-adv-x="1014" d="M170.5 24q-55.5 34 -86 95.5t-30.5 142.5q0 82 31 145t86.5 98t128.5 35q72 0 127 -35t84 -97q5 -7 7 -7q4 0 7 7q28 61 83 96.5t124 35.5q111 0 173 -71.5t62 -198.5q0 -17 -17 -18h-392q-15 0 -15 -17q0 -54 26.5 -100t71 -73t96.5 -27q116 0 171 90q3 5 5.5 5.5 t6.5 -2.5l27 -16q6 -4 1 -11q-70 -111 -212 -111q-70 0 -125 33t-86 92q-3 9 -7 9q-5 0 -11 -12q-30 -58 -84 -90t-124 -32q-73 0 -128.5 34zM440.5 97.5q51.5 62.5 51.5 166.5q0 69 -24 121.5t-67.5 81.5t-100.5 29q-58 0 -102 -29t-68 -81.5t-24 -121.5t24 -121t68.5 -80 t102.5 -28q88 0 139.5 62.5zM637.5 470q-43.5 -26 -67.5 -72t-24 -104l353 -1q10 0 13.5 3t3.5 11q0 52 -23 95t-64 68.5t-94 25.5q-54 0 -97.5 -26z" />
<glyph unicode="&#x178;" horiz-adv-x="647" d="M599 738.5q2 -3.5 -1 -8.5l-239 -403q-3 -5 -3.5 -10t-0.5 -13v-290q0 -8 -3.5 -11t-12.5 -3h-29q-12 0 -12 12v283q0 11 -6 21l-243 413q-2 3 -2 7q0 6 10 6h34q7 0 10.5 -2t7.5 -8l204 -348q7 -12 13 -12q4 0 11 10l203 350q4 7 7 8.5t10 1.5h34q6 0 8 -3.5zM289 866 q0 -7 -3 -10t-10 -3h-33q-7 0 -9.5 2.5t-2.5 8.5v79q0 7 2 9t7 2h39q5 0 7.5 -2t2.5 -8v-78zM408 866q0 -7 -3 -10t-10 -3h-33q-7 0 -9.5 2.5t-2.5 8.5v79q0 7 2 9t8 2h38q5 0 7.5 -2t2.5 -8v-78z" />
<glyph unicode="&#x2c6;" horiz-adv-x="289" d="M154 696q-8 6 -10 6q-3 0 -10 -6l-61 -49q-4 -3 -7.5 -4.5t-8.5 -1.5h-41q-5 0 -6 3t4 7l100 82q10 10 21 10h23q7 0 11.5 -4t5.5 -5l98 -83q6 -5 6 -7.5t-7 -2.5h-45q-8 0 -15 6z" />
<glyph unicode="&#x2dc;" horiz-adv-x="293" d="M206 669q-18 0 -32 3.5t-33 9.5q-29 11 -52 11q-17 0 -27.5 -4t-18 -9t-11.5 -7t-6 -2q-3 0 -6 6l-7 19q-1 3 -0.5 5t2.5 4q18 13 33.5 20t36.5 7q25 0 62 -13q38 -12 60 -12q16 0 26.5 3.5t25.5 12.5q5 3 7 3q3 0 6 -6l9 -21q1 -1 1 -3q0 -4 -7 -7q-29 -20 -69 -20z" />
<glyph unicode="&#x300;" d="M-249.5 751q2.5 1 5.5 0l230 -94q6 -4 3 -11l-6 -17q-1 -5 -4 -6.5t-8 0.5l-227 76q-11 4 -8 13l11 35q1 3 3.5 4z" />
<glyph unicode="&#x301;" d="M-11 712l1 -4q0 -6 -9 -9l-227 -76q-2 -1 -5 -1q-6 0 -7 7l-6 17q-1 1 -1 4q0 5 4 7l230 94q3 1 5.5 0t3.5 -4z" />
<glyph unicode="&#x302;" d="M-135 696q-8 6 -10 6q-3 0 -10 -6l-61 -49q-4 -3 -7.5 -4.5t-8.5 -1.5h-41q-5 0 -6 3t4 7l100 82q10 10 21 10h23q7 0 11.5 -4t5.5 -5l98 -83q6 -5 6 -7.5t-7 -2.5h-45q-8 0 -15 6z" />
<glyph unicode="&#x303;" d="M-87 669q-18 0 -32 3.5t-33 9.5q-29 11 -52 11q-17 0 -27.5 -4t-18 -9t-11.5 -7t-6 -2q-3 0 -6 6l-7 19q-1 3 -0.5 5t2.5 4q18 13 33.5 20t36.5 7q25 0 62 -13q38 -12 60 -12q16 0 26.5 3.5t25.5 12.5q5 3 7 3q3 0 6 -6l9 -21q1 -1 1 -3q0 -4 -7 -7q-29 -20 -69 -20z" />
<glyph unicode="&#x304;" d="M-10 689q0 -5 -2.5 -7t-8.5 -2h-243q-5 0 -6.5 2t-1.5 7v26q0 8 6 8h250q6 0 6 -6v-28z" />
<glyph unicode="&#x308;" d="M-129 654q0 -7 -3 -10t-10 -3h-33q-7 0 -9.5 2.5t-2.5 8.5v79q0 7 2 9t7 2h39q5 0 7.5 -2t2.5 -8v-78zM-10 654q0 -7 -3 -10t-10 -3h-33q-7 0 -9.5 2.5t-2.5 8.5v79q0 7 2 9t8 2h38q5 0 7.5 -2t2.5 -8v-78z" />
<glyph unicode="&#x30a;" d="M-39 628q-29 -29 -72 -29q-42 0 -71.5 29.5t-29.5 73.5q0 40 30 68.5t71 28.5q43 0 72 -29t29 -70q0 -43 -29 -72zM-71 740.5q-16 16.5 -41 16.5q-24 0 -41 -16.5t-17 -41.5q0 -23 17.5 -41t40.5 -18q24 0 40.5 17.5t16.5 41.5q0 25 -16 41.5z" />
<glyph unicode="&#x327;" d="M-39 -185.5q-29 -19.5 -73 -19.5t-77 21q-4 2 -3 7l10 21q2 4 7 1q12 -9 24.5 -13.5t32.5 -4.5q60 0 60 42q0 23 -19 34t-59 13q-7 0 -5 5l36 84h37l-23 -59q-1 -4 3 -4q42 -3 60 -23.5t18 -48.5q0 -36 -29 -55.5z" />
<glyph unicode="&#x2000;" horiz-adv-x="482" />
<glyph unicode="&#x2001;" horiz-adv-x="964" />
<glyph unicode="&#x2002;" horiz-adv-x="482" />
<glyph unicode="&#x2003;" horiz-adv-x="964" />
<glyph unicode="&#x2004;" horiz-adv-x="321" />
<glyph unicode="&#x2005;" horiz-adv-x="241" />
<glyph unicode="&#x2006;" horiz-adv-x="160" />
<glyph unicode="&#x2007;" horiz-adv-x="160" />
<glyph unicode="&#x2008;" horiz-adv-x="120" />
<glyph unicode="&#x2009;" horiz-adv-x="192" />
<glyph unicode="&#x200a;" horiz-adv-x="53" />
<glyph unicode="&#x2010;" horiz-adv-x="381" d="M313 252q0 -9 -12 -9l-224 -1q-5 0 -7 1.5t-2 6.5v30q0 8 6 8l231 1q8 0 8 -7v-30z" />
<glyph unicode="&#x2011;" horiz-adv-x="381" d="M313 252q0 -9 -12 -9l-224 -1q-5 0 -7 1.5t-2 6.5v30q0 8 6 8l231 1q8 0 8 -7v-30z" />
<glyph unicode="&#x2012;" horiz-adv-x="381" d="M313 252q0 -9 -12 -9l-224 -1q-5 0 -7 1.5t-2 6.5v30q0 8 6 8l231 1q8 0 8 -7v-30z" />
<glyph unicode="&#x2013;" horiz-adv-x="545" d="M477 246q0 -10 -12 -10h-388q-5 0 -7 1.5t-2 6.5v30q0 8 6 8l395 1q3 0 5.5 -2t2.5 -5v-30z" />
<glyph unicode="&#x2014;" horiz-adv-x="866" d="M798 246q0 -10 -11 -10h-710q-5 0 -7 1.5t-2 6.5v30q0 8 6 8l716 1q8 0 8 -7v-30z" />
<glyph unicode="&#x2018;" horiz-adv-x="213" d="M163.5 739.5q1.5 -2.5 0.5 -5.5l-45 -93l-2 -9q0 -6 7 -6h17q9 0 9 -8v-73q0 -7 -7 -7h-78q-6 0 -6 7v66q0 2 2 6l68 119q2 6 13 6h17q3 0 4.5 -2.5z" />
<glyph unicode="&#x2019;" horiz-adv-x="213" d="M49.5 540.5q-1.5 2.5 -0.5 5.5l45 93l2 9q0 6 -7 6h-17q-9 0 -9 8v73q0 7 7 7h78q6 0 6 -7v-66q0 -2 -2 -6l-68 -119q-2 -6 -13 -6h-17q-3 0 -4.5 2.5z" />
<glyph unicode="&#x201a;" horiz-adv-x="213" d="M49.5 -114q-1.5 3 -0.5 5l45 94q2 6 2 9q0 6 -7 6h-17q-9 0 -9 8v73q0 7 7 7h78q6 0 6 -7v-66q0 -2 -2 -6l-68 -120q-3 -6 -13 -6h-17q-3 0 -4.5 3z" />
<glyph unicode="&#x201c;" horiz-adv-x="366" d="M58 544v66q0 3 2 7l69 119q2 6 12 6h17q4 0 5.5 -2.5t0.5 -5.5l-45 -93q-2 -4 -2 -9q0 -6 6 -6l17 -1q9 0 9 -8v-72q0 -7 -6 -7h-78q-7 0 -7 6zM211 544v66q0 3 2 7l68 119q4 6 13 6h17q4 0 5.5 -2.5t0.5 -5.5l-45 -93q-2 -4 -2 -9q0 -6 6 -6l17 -1q9 0 9 -8v-72 q0 -7 -7 -7h-77q-7 0 -7 6z" />
<glyph unicode="&#x201d;" horiz-adv-x="366" d="M49.5 540.5q-1.5 2.5 -0.5 5.5l45 93l2 9q0 6 -7 6h-17q-9 0 -9 8v73q0 7 7 7h78q6 0 6 -7v-66q0 -2 -2 -6l-68 -119q-2 -6 -13 -6h-17q-3 0 -4.5 2.5zM202.5 540.5q-1.5 2.5 -0.5 5.5l45 93l2 9q0 6 -7 6h-17q-9 0 -9 8v73q0 7 7 7h78q6 0 6 -7v-66q0 -2 -2 -6l-68 -119 q-2 -6 -13 -6h-17q-3 0 -4.5 2.5z" />
<glyph unicode="&#x201e;" horiz-adv-x="366" d="M202.5 -114q-1.5 3 -0.5 5l45 94q2 6 2 9q0 6 -7 6h-17q-9 0 -9 8v73q0 7 7 7h78q6 0 6 -7v-66q0 -2 -2 -6l-68 -120q-3 -6 -13 -6h-17q-3 0 -4.5 3zM49.5 -114q-1.5 3 -0.5 5l45 94q2 6 2 9q0 6 -7 6h-17q-9 0 -9 8v73q0 7 7 7h78q6 0 6 -7v-66q0 -2 -2 -6l-68 -120 q-3 -6 -13 -6h-17q-3 0 -4.5 3z" />
<glyph unicode="&#x2022;" horiz-adv-x="298" d="M94.5 322.5q-22.5 22.5 -22.5 54.5t22.5 54.5t54.5 22.5t54.5 -22.5t22.5 -54.5t-22.5 -54.5t-54.5 -22.5t-54.5 22.5z" />
<glyph unicode="&#x2026;" horiz-adv-x="682" d="M605 12q0 -7 -3.5 -9.5t-11.5 -2.5h-46q-11 0 -11 11v66q0 10 8 10h56q8 0 8 -9v-66zM130 12q0 -7 -3.5 -9.5t-11.5 -2.5h-46q-11 0 -11 11v66q0 10 8 10h56q8 0 8 -9v-66zM368 12q0 -7 -3.5 -9.5t-11.5 -2.5h-46q-11 0 -11 11v66q0 10 8 10h56q8 0 8 -9v-66z" />
<glyph unicode="&#x202f;" horiz-adv-x="192" />
<glyph unicode="&#x2039;" horiz-adv-x="256" d="M206 82l1 -2q0 -3 -8 -3h-16q-7 0 -9 4l-135 168q-5 8 -1 15l137 178q3 4 8 4h18q3 0 5 -2.5t0 -5.5l-110 -175q-4 -7 0 -12z" />
<glyph unicode="&#x203a;" horiz-adv-x="257" d="M162 263l-111 175q-1 1 -1 3q0 5 7 5h17q5 0 8 -4l137 -178q3 -3 3 -6t-4 -9l-135 -168q-2 -4 -9 -4h-15q-10 0 -8 5l111 169q5 6 0 12z" />
<glyph unicode="&#x2044;" horiz-adv-x="245" d="M-101 4q-3 -5 -6 -6.5t-10 -1.5h-18q-9 0 -9 6q0 4 3 8l488 735q4 5 13 5h23q10 0 5 -9z" />
<glyph unicode="&#x205f;" horiz-adv-x="241" />
<glyph unicode="&#x20ac;" horiz-adv-x="574" d="M535 42.5q0 -2.5 -2 -3.5q-68 -49 -158 -49q-123 0 -200.5 73.5t-97.5 208.5h-84q-5 0 -7 1.5t-2 6.5v26q0 8 6 8h82q-2 36 -2 55q0 33 3 63h-80q-9 0 -9 8v26q0 8 6 8h88q22 133 97.5 205.5t193.5 72.5q83 0 156 -50q7 -6 0 -13l-23 -27q-2 -3 -6 -3.5t-7 1.5 q-56 42 -117 42q-97 0 -156 -58t-77 -170l220 1q7 0 7 -7v-26q0 -9 -11 -9l-221 -1q-3 -30 -3 -63q0 -19 2 -55h226q7 0 7 -6v-26q0 -5 -2.5 -7t-8.5 -2l-217 -1q17 -114 78 -172.5t164 -58.5q70 0 123 37q4 4 7 0l23 -31q2 -2 2 -4.5z" />
<glyph unicode="&#x2122;" horiz-adv-x="894" d="M29 737q0 5 5 5h325q5 0 5 -5v-20q0 -3 -1.5 -4t-4.5 -1h-131q-4 0 -5 -1t-1 -5v-421q0 -4 -1.5 -5.5t-5.5 -1.5h-23q-4 0 -5.5 1.5t-1.5 5.5v421q0 4 -1 5t-5 1h-144q-5 0 -5 5v20zM438 285v450q0 4 1 5.5t5 1.5h26q8 0 9 -6l161 -405q2 -5 4.5 -5t4.5 6l163 405 q2 5 7 5h28q4 0 5 -1.5t1 -5.5v-450q0 -7 -6 -7h-22q-7 0 -7 6v380q0 2 -1 1.5t-2 -1.5l-151 -379q-3 -7 -11 -7h-20q-10 0 -11 7l-149 376q-2 4 -2 0v-377q0 -6 -7 -6h-20q-6 0 -6 7z" />
<glyph unicode="&#x25fc;" horiz-adv-x="530" d="M0 530h530v-530h-530v530z" />
<glyph horiz-adv-x="384" d="M172 192q51 51 72.5 86t21.5 72q0 44 -31.5 68t-72.5 24q-32 0 -63.5 -15t-51.5 -45q-4 -6 -11 -1l-13 10q-4 3 -4 5t3 6q25 36 64 53.5t80 17.5q57 0 96.5 -31.5t39.5 -94.5q0 -41 -23.5 -78t-83.5 -97l-132 -132q-3 -4 -2 -6t6 -2h234q6 0 6 -6v-20q0 -6 -6 -6h-274 q-8 0 -8 8v16q0 7 2 11.5t8 10.5z" />
<glyph horiz-adv-x="416" d="M248 467h25q6 0 6 -7v-291q0 -6 5 -6h63q6 0 6 -4v-20q0 -6 -6 -6h-63q-5 0 -5 -7v-120q0 -6 -7 -6h-23q-6 0 -6 6v122q0 5 -5 5h-211q-7 0 -7 6v23q0 7 6 15l212 286q4 4 10 4zM235 163q2 0 4 1t2 3v236q0 8 -3 8q-1 0 -6 -5l-174 -235q-5 -8 5 -8h172z" />
<glyph horiz-adv-x="299" d="M222 303v-23q0 -4 -5 -4h-206q-4 0 -4 4v23q0 4 4 4h86q5 0 5 3v386q0 5 -5 4l-85 -34q-6 -1 -6 5v18q0 3 1.5 4.5t2.5 1.5l88 44q8 4 15 4h19q5 0 5 -7v-425q0 -4 4 -4h76q5 0 5 -4z" />
<glyph horiz-adv-x="384" d="M172 471q51 51 72.5 86t21.5 72q0 44 -31.5 68t-72.5 24q-32 0 -63.5 -15t-51.5 -45q-4 -6 -11 -1l-13 10q-4 3 -4 5t3 6q25 36 64 53.5t80 17.5q57 0 96.5 -31.5t39.5 -94.5q0 -41 -23.5 -78t-83.5 -97l-132 -132q-3 -4 -2 -6t6 -2h234q6 0 6 -6v-20q0 -6 -6 -6h-274 q-8 0 -8 8v16q0 7 2 11.5t8 10.5z" />
<glyph horiz-adv-x="399" d="M46 692q30 31 63.5 45.5t73.5 14.5q66 0 107 -33t41 -83q0 -36 -22 -63.5t-60 -41.5q-7 -1 -7 -4q0 -2 7 -3q41 -11 69 -42.5t28 -76.5q0 -57 -45 -94.5t-127 -37.5q-45 0 -80.5 14.5t-67.5 46.5q-2 2 -2 3.5t3 3.5l16 15q4 4 8 0q27 -28 57.5 -40t69.5 -12 q61 0 96.5 27.5t35.5 71.5q0 50 -40 78t-94 28h-57q-6 0 -6 5v20q0 5 6 5h46q54 0 92 27.5t38 68.5q0 36 -31.5 61t-79.5 25q-66 0 -117 -49q-3 -3 -5 -3t-5 3l-11 11q-4 5 0 9z" />
</font>
</defs>
</svg>
